G04 #@! TF.GenerationSoftware,KiCad,Pcbnew,10.0.2*
G04 #@! TF.CreationDate,2026-05-18T00:06:32-04:00*
G04 #@! TF.ProjectId,taira-top-plate,74616972-612d-4746-9f70-2d706c617465,1.1*
G04 #@! TF.SameCoordinates,Original*
G04 #@! TF.FileFunction,Legend,Bot*
G04 #@! TF.FilePolarity,Positive*
%FSLAX46Y46*%
G04 Gerber Fmt 4.6, Leading zero omitted, Abs format (unit mm)*
G04 Created by KiCad (PCBNEW 10.0.2) date 2026-05-18 00:06:32*
%MOMM*%
%LPD*%
G01*
G04 APERTURE LIST*
%ADD10C,0.200000*%
%ADD11C,4.200000*%
G04 APERTURE END LIST*
D10*
X126750246Y-130389305D02*
X125950246Y-130389305D01*
X126350246Y-131789305D02*
X126350246Y-130389305D01*
X124883579Y-131789305D02*
X124883579Y-131055972D01*
X124883579Y-131055972D02*
X124950246Y-130922639D01*
X124950246Y-130922639D02*
X125083579Y-130855972D01*
X125083579Y-130855972D02*
X125350246Y-130855972D01*
X125350246Y-130855972D02*
X125483579Y-130922639D01*
X124883579Y-131722639D02*
X125016913Y-131789305D01*
X125016913Y-131789305D02*
X125350246Y-131789305D01*
X125350246Y-131789305D02*
X125483579Y-131722639D01*
X125483579Y-131722639D02*
X125550246Y-131589305D01*
X125550246Y-131589305D02*
X125550246Y-131455972D01*
X125550246Y-131455972D02*
X125483579Y-131322639D01*
X125483579Y-131322639D02*
X125350246Y-131255972D01*
X125350246Y-131255972D02*
X125016913Y-131255972D01*
X125016913Y-131255972D02*
X124883579Y-131189305D01*
X124216912Y-131789305D02*
X124216912Y-130855972D01*
X124216912Y-130389305D02*
X124283579Y-130455972D01*
X124283579Y-130455972D02*
X124216912Y-130522639D01*
X124216912Y-130522639D02*
X124150246Y-130455972D01*
X124150246Y-130455972D02*
X124216912Y-130389305D01*
X124216912Y-130389305D02*
X124216912Y-130522639D01*
X123550245Y-131789305D02*
X123550245Y-130855972D01*
X123550245Y-131122639D02*
X123483579Y-130989305D01*
X123483579Y-130989305D02*
X123416912Y-130922639D01*
X123416912Y-130922639D02*
X123283579Y-130855972D01*
X123283579Y-130855972D02*
X123150245Y-130855972D01*
X122083578Y-131789305D02*
X122083578Y-131055972D01*
X122083578Y-131055972D02*
X122150245Y-130922639D01*
X122150245Y-130922639D02*
X122283578Y-130855972D01*
X122283578Y-130855972D02*
X122550245Y-130855972D01*
X122550245Y-130855972D02*
X122683578Y-130922639D01*
X122083578Y-131722639D02*
X122216912Y-131789305D01*
X122216912Y-131789305D02*
X122550245Y-131789305D01*
X122550245Y-131789305D02*
X122683578Y-131722639D01*
X122683578Y-131722639D02*
X122750245Y-131589305D01*
X122750245Y-131589305D02*
X122750245Y-131455972D01*
X122750245Y-131455972D02*
X122683578Y-131322639D01*
X122683578Y-131322639D02*
X122550245Y-131255972D01*
X122550245Y-131255972D02*
X122216912Y-131255972D01*
X122216912Y-131255972D02*
X122083578Y-131189305D01*
X120483578Y-130855972D02*
X120150244Y-131789305D01*
X120150244Y-131789305D02*
X119816911Y-130855972D01*
X118550244Y-131789305D02*
X119350244Y-131789305D01*
X118950244Y-131789305D02*
X118950244Y-130389305D01*
X118950244Y-130389305D02*
X119083577Y-130589305D01*
X119083577Y-130589305D02*
X119216911Y-130722639D01*
X119216911Y-130722639D02*
X119350244Y-130789305D01*
X117950244Y-131655972D02*
X117883578Y-131722639D01*
X117883578Y-131722639D02*
X117950244Y-131789305D01*
X117950244Y-131789305D02*
X118016911Y-131722639D01*
X118016911Y-131722639D02*
X117950244Y-131655972D01*
X117950244Y-131655972D02*
X117950244Y-131789305D01*
X117016911Y-130389305D02*
X116883577Y-130389305D01*
X116883577Y-130389305D02*
X116750244Y-130455972D01*
X116750244Y-130455972D02*
X116683577Y-130522639D01*
X116683577Y-130522639D02*
X116616911Y-130655972D01*
X116616911Y-130655972D02*
X116550244Y-130922639D01*
X116550244Y-130922639D02*
X116550244Y-131255972D01*
X116550244Y-131255972D02*
X116616911Y-131522639D01*
X116616911Y-131522639D02*
X116683577Y-131655972D01*
X116683577Y-131655972D02*
X116750244Y-131722639D01*
X116750244Y-131722639D02*
X116883577Y-131789305D01*
X116883577Y-131789305D02*
X117016911Y-131789305D01*
X117016911Y-131789305D02*
X117150244Y-131722639D01*
X117150244Y-131722639D02*
X117216911Y-131655972D01*
X117216911Y-131655972D02*
X117283577Y-131522639D01*
X117283577Y-131522639D02*
X117350244Y-131255972D01*
X117350244Y-131255972D02*
X117350244Y-130922639D01*
X117350244Y-130922639D02*
X117283577Y-130655972D01*
X117283577Y-130655972D02*
X117216911Y-130522639D01*
X117216911Y-130522639D02*
X117150244Y-130455972D01*
X117150244Y-130455972D02*
X117016911Y-130389305D01*
X137016914Y-134043227D02*
X137016914Y-132643227D01*
X137016914Y-132643227D02*
X136683581Y-132643227D01*
X136683581Y-132643227D02*
X136483581Y-132709894D01*
X136483581Y-132709894D02*
X136350248Y-132843227D01*
X136350248Y-132843227D02*
X136283581Y-132976561D01*
X136283581Y-132976561D02*
X136216914Y-133243227D01*
X136216914Y-133243227D02*
X136216914Y-133443227D01*
X136216914Y-133443227D02*
X136283581Y-133709894D01*
X136283581Y-133709894D02*
X136350248Y-133843227D01*
X136350248Y-133843227D02*
X136483581Y-133976561D01*
X136483581Y-133976561D02*
X136683581Y-134043227D01*
X136683581Y-134043227D02*
X137016914Y-134043227D01*
X135083581Y-133976561D02*
X135216914Y-134043227D01*
X135216914Y-134043227D02*
X135483581Y-134043227D01*
X135483581Y-134043227D02*
X135616914Y-133976561D01*
X135616914Y-133976561D02*
X135683581Y-133843227D01*
X135683581Y-133843227D02*
X135683581Y-133309894D01*
X135683581Y-133309894D02*
X135616914Y-133176561D01*
X135616914Y-133176561D02*
X135483581Y-133109894D01*
X135483581Y-133109894D02*
X135216914Y-133109894D01*
X135216914Y-133109894D02*
X135083581Y-133176561D01*
X135083581Y-133176561D02*
X135016914Y-133309894D01*
X135016914Y-133309894D02*
X135016914Y-133443227D01*
X135016914Y-133443227D02*
X135683581Y-133576561D01*
X134483581Y-133976561D02*
X134350248Y-134043227D01*
X134350248Y-134043227D02*
X134083581Y-134043227D01*
X134083581Y-134043227D02*
X133950248Y-133976561D01*
X133950248Y-133976561D02*
X133883581Y-133843227D01*
X133883581Y-133843227D02*
X133883581Y-133776561D01*
X133883581Y-133776561D02*
X133950248Y-133643227D01*
X133950248Y-133643227D02*
X134083581Y-133576561D01*
X134083581Y-133576561D02*
X134283581Y-133576561D01*
X134283581Y-133576561D02*
X134416914Y-133509894D01*
X134416914Y-133509894D02*
X134483581Y-133376561D01*
X134483581Y-133376561D02*
X134483581Y-133309894D01*
X134483581Y-133309894D02*
X134416914Y-133176561D01*
X134416914Y-133176561D02*
X134283581Y-133109894D01*
X134283581Y-133109894D02*
X134083581Y-133109894D01*
X134083581Y-133109894D02*
X133950248Y-133176561D01*
X133283581Y-134043227D02*
X133283581Y-133109894D01*
X133283581Y-132643227D02*
X133350248Y-132709894D01*
X133350248Y-132709894D02*
X133283581Y-132776561D01*
X133283581Y-132776561D02*
X133216915Y-132709894D01*
X133216915Y-132709894D02*
X133283581Y-132643227D01*
X133283581Y-132643227D02*
X133283581Y-132776561D01*
X132016914Y-133109894D02*
X132016914Y-134243227D01*
X132016914Y-134243227D02*
X132083581Y-134376561D01*
X132083581Y-134376561D02*
X132150248Y-134443227D01*
X132150248Y-134443227D02*
X132283581Y-134509894D01*
X132283581Y-134509894D02*
X132483581Y-134509894D01*
X132483581Y-134509894D02*
X132616914Y-134443227D01*
X132016914Y-133976561D02*
X132150248Y-134043227D01*
X132150248Y-134043227D02*
X132416914Y-134043227D01*
X132416914Y-134043227D02*
X132550248Y-133976561D01*
X132550248Y-133976561D02*
X132616914Y-133909894D01*
X132616914Y-133909894D02*
X132683581Y-133776561D01*
X132683581Y-133776561D02*
X132683581Y-133376561D01*
X132683581Y-133376561D02*
X132616914Y-133243227D01*
X132616914Y-133243227D02*
X132550248Y-133176561D01*
X132550248Y-133176561D02*
X132416914Y-133109894D01*
X132416914Y-133109894D02*
X132150248Y-133109894D01*
X132150248Y-133109894D02*
X132016914Y-133176561D01*
X131350247Y-133109894D02*
X131350247Y-134043227D01*
X131350247Y-133243227D02*
X131283581Y-133176561D01*
X131283581Y-133176561D02*
X131150247Y-133109894D01*
X131150247Y-133109894D02*
X130950247Y-133109894D01*
X130950247Y-133109894D02*
X130816914Y-133176561D01*
X130816914Y-133176561D02*
X130750247Y-133309894D01*
X130750247Y-133309894D02*
X130750247Y-134043227D01*
X129550247Y-133976561D02*
X129683580Y-134043227D01*
X129683580Y-134043227D02*
X129950247Y-134043227D01*
X129950247Y-134043227D02*
X130083580Y-133976561D01*
X130083580Y-133976561D02*
X130150247Y-133843227D01*
X130150247Y-133843227D02*
X130150247Y-133309894D01*
X130150247Y-133309894D02*
X130083580Y-133176561D01*
X130083580Y-133176561D02*
X129950247Y-133109894D01*
X129950247Y-133109894D02*
X129683580Y-133109894D01*
X129683580Y-133109894D02*
X129550247Y-133176561D01*
X129550247Y-133176561D02*
X129483580Y-133309894D01*
X129483580Y-133309894D02*
X129483580Y-133443227D01*
X129483580Y-133443227D02*
X130150247Y-133576561D01*
X128283580Y-134043227D02*
X128283580Y-132643227D01*
X128283580Y-133976561D02*
X128416914Y-134043227D01*
X128416914Y-134043227D02*
X128683580Y-134043227D01*
X128683580Y-134043227D02*
X128816914Y-133976561D01*
X128816914Y-133976561D02*
X128883580Y-133909894D01*
X128883580Y-133909894D02*
X128950247Y-133776561D01*
X128950247Y-133776561D02*
X128950247Y-133376561D01*
X128950247Y-133376561D02*
X128883580Y-133243227D01*
X128883580Y-133243227D02*
X128816914Y-133176561D01*
X128816914Y-133176561D02*
X128683580Y-133109894D01*
X128683580Y-133109894D02*
X128416914Y-133109894D01*
X128416914Y-133109894D02*
X128283580Y-133176561D01*
X126550246Y-134043227D02*
X126550246Y-132643227D01*
X126550246Y-133176561D02*
X126416913Y-133109894D01*
X126416913Y-133109894D02*
X126150246Y-133109894D01*
X126150246Y-133109894D02*
X126016913Y-133176561D01*
X126016913Y-133176561D02*
X125950246Y-133243227D01*
X125950246Y-133243227D02*
X125883580Y-133376561D01*
X125883580Y-133376561D02*
X125883580Y-133776561D01*
X125883580Y-133776561D02*
X125950246Y-133909894D01*
X125950246Y-133909894D02*
X126016913Y-133976561D01*
X126016913Y-133976561D02*
X126150246Y-134043227D01*
X126150246Y-134043227D02*
X126416913Y-134043227D01*
X126416913Y-134043227D02*
X126550246Y-133976561D01*
X125416913Y-133109894D02*
X125083579Y-134043227D01*
X124750246Y-133109894D02*
X125083579Y-134043227D01*
X125083579Y-134043227D02*
X125216913Y-134376561D01*
X125216913Y-134376561D02*
X125283579Y-134443227D01*
X125283579Y-134443227D02*
X125416913Y-134509894D01*
X123216912Y-133976561D02*
X123083579Y-134043227D01*
X123083579Y-134043227D02*
X122816912Y-134043227D01*
X122816912Y-134043227D02*
X122683579Y-133976561D01*
X122683579Y-133976561D02*
X122616912Y-133843227D01*
X122616912Y-133843227D02*
X122616912Y-133776561D01*
X122616912Y-133776561D02*
X122683579Y-133643227D01*
X122683579Y-133643227D02*
X122816912Y-133576561D01*
X122816912Y-133576561D02*
X123016912Y-133576561D01*
X123016912Y-133576561D02*
X123150245Y-133509894D01*
X123150245Y-133509894D02*
X123216912Y-133376561D01*
X123216912Y-133376561D02*
X123216912Y-133309894D01*
X123216912Y-133309894D02*
X123150245Y-133176561D01*
X123150245Y-133176561D02*
X123016912Y-133109894D01*
X123016912Y-133109894D02*
X122816912Y-133109894D01*
X122816912Y-133109894D02*
X122683579Y-133176561D01*
X122216912Y-133109894D02*
X121683579Y-133109894D01*
X122016912Y-132643227D02*
X122016912Y-133843227D01*
X122016912Y-133843227D02*
X121950246Y-133976561D01*
X121950246Y-133976561D02*
X121816912Y-134043227D01*
X121816912Y-134043227D02*
X121683579Y-134043227D01*
X121216912Y-134043227D02*
X121216912Y-133109894D01*
X121216912Y-133376561D02*
X121150246Y-133243227D01*
X121150246Y-133243227D02*
X121083579Y-133176561D01*
X121083579Y-133176561D02*
X120950246Y-133109894D01*
X120950246Y-133109894D02*
X120816912Y-133109894D01*
X119750245Y-134043227D02*
X119750245Y-133309894D01*
X119750245Y-133309894D02*
X119816912Y-133176561D01*
X119816912Y-133176561D02*
X119950245Y-133109894D01*
X119950245Y-133109894D02*
X120216912Y-133109894D01*
X120216912Y-133109894D02*
X120350245Y-133176561D01*
X119750245Y-133976561D02*
X119883579Y-134043227D01*
X119883579Y-134043227D02*
X120216912Y-134043227D01*
X120216912Y-134043227D02*
X120350245Y-133976561D01*
X120350245Y-133976561D02*
X120416912Y-133843227D01*
X120416912Y-133843227D02*
X120416912Y-133709894D01*
X120416912Y-133709894D02*
X120350245Y-133576561D01*
X120350245Y-133576561D02*
X120216912Y-133509894D01*
X120216912Y-133509894D02*
X119883579Y-133509894D01*
X119883579Y-133509894D02*
X119750245Y-133443227D01*
X119216912Y-133109894D02*
X118883578Y-134043227D01*
X118550245Y-133109894D02*
X118883578Y-134043227D01*
X118883578Y-134043227D02*
X119016912Y-134376561D01*
X119016912Y-134376561D02*
X119083578Y-134443227D01*
X119083578Y-134443227D02*
X119216912Y-134509894D01*
X117483578Y-133976561D02*
X117616911Y-134043227D01*
X117616911Y-134043227D02*
X117883578Y-134043227D01*
X117883578Y-134043227D02*
X118016911Y-133976561D01*
X118016911Y-133976561D02*
X118083578Y-133843227D01*
X118083578Y-133843227D02*
X118083578Y-133309894D01*
X118083578Y-133309894D02*
X118016911Y-133176561D01*
X118016911Y-133176561D02*
X117883578Y-133109894D01*
X117883578Y-133109894D02*
X117616911Y-133109894D01*
X117616911Y-133109894D02*
X117483578Y-133176561D01*
X117483578Y-133176561D02*
X117416911Y-133309894D01*
X117416911Y-133309894D02*
X117416911Y-133443227D01*
X117416911Y-133443227D02*
X118083578Y-133576561D01*
X116816911Y-134043227D02*
X116816911Y-133109894D01*
X116816911Y-133376561D02*
X116750245Y-133243227D01*
X116750245Y-133243227D02*
X116683578Y-133176561D01*
X116683578Y-133176561D02*
X116550245Y-133109894D01*
X116550245Y-133109894D02*
X116416911Y-133109894D01*
%LPC*%
D11*
G04 #@! TO.C,H1*
X96755000Y-62896000D03*
G04 #@! TD*
G04 #@! TO.C,H2*
X134342000Y-58240000D03*
G04 #@! TD*
G04 #@! TO.C,H3*
X172365000Y-58174000D03*
G04 #@! TD*
G04 #@! TO.C,H4*
X96694000Y-116997000D03*
G04 #@! TD*
G04 #@! TO.C,H5*
X134379000Y-94204000D03*
G04 #@! TD*
G04 #@! TO.C,H6*
X172463000Y-94248000D03*
G04 #@! TD*
G04 #@! TO.C,H7*
X165870000Y-117730000D03*
G04 #@! TD*
G04 #@! TO.C,H8*
X204723000Y-134762000D03*
G04 #@! TD*
%LPD*%
M02*
