G04 #@! TF.GenerationSoftware,KiCad,Pcbnew,10.0.2*
G04 #@! TF.CreationDate,2026-05-18T00:06:32-04:00*
G04 #@! TF.ProjectId,taira-top-plate,74616972-612d-4746-9f70-2d706c617465,1.1*
G04 #@! TF.SameCoordinates,Original*
G04 #@! TF.FileFunction,Legend,Top*
G04 #@! TF.FilePolarity,Positive*
%FSLAX46Y46*%
G04 Gerber Fmt 4.6, Leading zero omitted, Abs format (unit mm)*
G04 Created by KiCad (PCBNEW 10.0.2) date 2026-05-18 00:06:32*
%MOMM*%
%LPD*%
G01*
G04 APERTURE LIST*
%ADD10C,0.200000*%
%ADD11C,4.200000*%
G04 APERTURE END LIST*
D10*
X116416911Y-130389305D02*
X117216911Y-130389305D01*
X116816911Y-131789305D02*
X116816911Y-130389305D01*
X118283578Y-131789305D02*
X118283578Y-131055972D01*
X118283578Y-131055972D02*
X118216911Y-130922639D01*
X118216911Y-130922639D02*
X118083578Y-130855972D01*
X118083578Y-130855972D02*
X117816911Y-130855972D01*
X117816911Y-130855972D02*
X117683578Y-130922639D01*
X118283578Y-131722639D02*
X118150245Y-131789305D01*
X118150245Y-131789305D02*
X117816911Y-131789305D01*
X117816911Y-131789305D02*
X117683578Y-131722639D01*
X117683578Y-131722639D02*
X117616911Y-131589305D01*
X117616911Y-131589305D02*
X117616911Y-131455972D01*
X117616911Y-131455972D02*
X117683578Y-131322639D01*
X117683578Y-131322639D02*
X117816911Y-131255972D01*
X117816911Y-131255972D02*
X118150245Y-131255972D01*
X118150245Y-131255972D02*
X118283578Y-131189305D01*
X118950245Y-131789305D02*
X118950245Y-130855972D01*
X118950245Y-130389305D02*
X118883578Y-130455972D01*
X118883578Y-130455972D02*
X118950245Y-130522639D01*
X118950245Y-130522639D02*
X119016912Y-130455972D01*
X119016912Y-130455972D02*
X118950245Y-130389305D01*
X118950245Y-130389305D02*
X118950245Y-130522639D01*
X119616912Y-131789305D02*
X119616912Y-130855972D01*
X119616912Y-131122639D02*
X119683579Y-130989305D01*
X119683579Y-130989305D02*
X119750245Y-130922639D01*
X119750245Y-130922639D02*
X119883579Y-130855972D01*
X119883579Y-130855972D02*
X120016912Y-130855972D01*
X121083579Y-131789305D02*
X121083579Y-131055972D01*
X121083579Y-131055972D02*
X121016912Y-130922639D01*
X121016912Y-130922639D02*
X120883579Y-130855972D01*
X120883579Y-130855972D02*
X120616912Y-130855972D01*
X120616912Y-130855972D02*
X120483579Y-130922639D01*
X121083579Y-131722639D02*
X120950246Y-131789305D01*
X120950246Y-131789305D02*
X120616912Y-131789305D01*
X120616912Y-131789305D02*
X120483579Y-131722639D01*
X120483579Y-131722639D02*
X120416912Y-131589305D01*
X120416912Y-131589305D02*
X120416912Y-131455972D01*
X120416912Y-131455972D02*
X120483579Y-131322639D01*
X120483579Y-131322639D02*
X120616912Y-131255972D01*
X120616912Y-131255972D02*
X120950246Y-131255972D01*
X120950246Y-131255972D02*
X121083579Y-131189305D01*
X122683580Y-130855972D02*
X123016913Y-131789305D01*
X123016913Y-131789305D02*
X123350246Y-130855972D01*
X124616913Y-131789305D02*
X123816913Y-131789305D01*
X124216913Y-131789305D02*
X124216913Y-130389305D01*
X124216913Y-130389305D02*
X124083580Y-130589305D01*
X124083580Y-130589305D02*
X123950247Y-130722639D01*
X123950247Y-130722639D02*
X123816913Y-130789305D01*
X125216913Y-131655972D02*
X125283580Y-131722639D01*
X125283580Y-131722639D02*
X125216913Y-131789305D01*
X125216913Y-131789305D02*
X125150246Y-131722639D01*
X125150246Y-131722639D02*
X125216913Y-131655972D01*
X125216913Y-131655972D02*
X125216913Y-131789305D01*
X126150247Y-130389305D02*
X126283580Y-130389305D01*
X126283580Y-130389305D02*
X126416913Y-130455972D01*
X126416913Y-130455972D02*
X126483580Y-130522639D01*
X126483580Y-130522639D02*
X126550247Y-130655972D01*
X126550247Y-130655972D02*
X126616913Y-130922639D01*
X126616913Y-130922639D02*
X126616913Y-131255972D01*
X126616913Y-131255972D02*
X126550247Y-131522639D01*
X126550247Y-131522639D02*
X126483580Y-131655972D01*
X126483580Y-131655972D02*
X126416913Y-131722639D01*
X126416913Y-131722639D02*
X126283580Y-131789305D01*
X126283580Y-131789305D02*
X126150247Y-131789305D01*
X126150247Y-131789305D02*
X126016913Y-131722639D01*
X126016913Y-131722639D02*
X125950247Y-131655972D01*
X125950247Y-131655972D02*
X125883580Y-131522639D01*
X125883580Y-131522639D02*
X125816913Y-131255972D01*
X125816913Y-131255972D02*
X125816913Y-130922639D01*
X125816913Y-130922639D02*
X125883580Y-130655972D01*
X125883580Y-130655972D02*
X125950247Y-130522639D01*
X125950247Y-130522639D02*
X126016913Y-130455972D01*
X126016913Y-130455972D02*
X126150247Y-130389305D01*
X116616911Y-134043227D02*
X116616911Y-132643227D01*
X116616911Y-132643227D02*
X116950244Y-132643227D01*
X116950244Y-132643227D02*
X117150244Y-132709894D01*
X117150244Y-132709894D02*
X117283578Y-132843227D01*
X117283578Y-132843227D02*
X117350244Y-132976561D01*
X117350244Y-132976561D02*
X117416911Y-133243227D01*
X117416911Y-133243227D02*
X117416911Y-133443227D01*
X117416911Y-133443227D02*
X117350244Y-133709894D01*
X117350244Y-133709894D02*
X117283578Y-133843227D01*
X117283578Y-133843227D02*
X117150244Y-133976561D01*
X117150244Y-133976561D02*
X116950244Y-134043227D01*
X116950244Y-134043227D02*
X116616911Y-134043227D01*
X118550244Y-133976561D02*
X118416911Y-134043227D01*
X118416911Y-134043227D02*
X118150244Y-134043227D01*
X118150244Y-134043227D02*
X118016911Y-133976561D01*
X118016911Y-133976561D02*
X117950244Y-133843227D01*
X117950244Y-133843227D02*
X117950244Y-133309894D01*
X117950244Y-133309894D02*
X118016911Y-133176561D01*
X118016911Y-133176561D02*
X118150244Y-133109894D01*
X118150244Y-133109894D02*
X118416911Y-133109894D01*
X118416911Y-133109894D02*
X118550244Y-133176561D01*
X118550244Y-133176561D02*
X118616911Y-133309894D01*
X118616911Y-133309894D02*
X118616911Y-133443227D01*
X118616911Y-133443227D02*
X117950244Y-133576561D01*
X119150244Y-133976561D02*
X119283578Y-134043227D01*
X119283578Y-134043227D02*
X119550244Y-134043227D01*
X119550244Y-134043227D02*
X119683578Y-133976561D01*
X119683578Y-133976561D02*
X119750244Y-133843227D01*
X119750244Y-133843227D02*
X119750244Y-133776561D01*
X119750244Y-133776561D02*
X119683578Y-133643227D01*
X119683578Y-133643227D02*
X119550244Y-133576561D01*
X119550244Y-133576561D02*
X119350244Y-133576561D01*
X119350244Y-133576561D02*
X119216911Y-133509894D01*
X119216911Y-133509894D02*
X119150244Y-133376561D01*
X119150244Y-133376561D02*
X119150244Y-133309894D01*
X119150244Y-133309894D02*
X119216911Y-133176561D01*
X119216911Y-133176561D02*
X119350244Y-133109894D01*
X119350244Y-133109894D02*
X119550244Y-133109894D01*
X119550244Y-133109894D02*
X119683578Y-133176561D01*
X120350244Y-134043227D02*
X120350244Y-133109894D01*
X120350244Y-132643227D02*
X120283577Y-132709894D01*
X120283577Y-132709894D02*
X120350244Y-132776561D01*
X120350244Y-132776561D02*
X120416911Y-132709894D01*
X120416911Y-132709894D02*
X120350244Y-132643227D01*
X120350244Y-132643227D02*
X120350244Y-132776561D01*
X121616911Y-133109894D02*
X121616911Y-134243227D01*
X121616911Y-134243227D02*
X121550244Y-134376561D01*
X121550244Y-134376561D02*
X121483578Y-134443227D01*
X121483578Y-134443227D02*
X121350244Y-134509894D01*
X121350244Y-134509894D02*
X121150244Y-134509894D01*
X121150244Y-134509894D02*
X121016911Y-134443227D01*
X121616911Y-133976561D02*
X121483578Y-134043227D01*
X121483578Y-134043227D02*
X121216911Y-134043227D01*
X121216911Y-134043227D02*
X121083578Y-133976561D01*
X121083578Y-133976561D02*
X121016911Y-133909894D01*
X121016911Y-133909894D02*
X120950244Y-133776561D01*
X120950244Y-133776561D02*
X120950244Y-133376561D01*
X120950244Y-133376561D02*
X121016911Y-133243227D01*
X121016911Y-133243227D02*
X121083578Y-133176561D01*
X121083578Y-133176561D02*
X121216911Y-133109894D01*
X121216911Y-133109894D02*
X121483578Y-133109894D01*
X121483578Y-133109894D02*
X121616911Y-133176561D01*
X122283578Y-133109894D02*
X122283578Y-134043227D01*
X122283578Y-133243227D02*
X122350245Y-133176561D01*
X122350245Y-133176561D02*
X122483578Y-133109894D01*
X122483578Y-133109894D02*
X122683578Y-133109894D01*
X122683578Y-133109894D02*
X122816911Y-133176561D01*
X122816911Y-133176561D02*
X122883578Y-133309894D01*
X122883578Y-133309894D02*
X122883578Y-134043227D01*
X124083578Y-133976561D02*
X123950245Y-134043227D01*
X123950245Y-134043227D02*
X123683578Y-134043227D01*
X123683578Y-134043227D02*
X123550245Y-133976561D01*
X123550245Y-133976561D02*
X123483578Y-133843227D01*
X123483578Y-133843227D02*
X123483578Y-133309894D01*
X123483578Y-133309894D02*
X123550245Y-133176561D01*
X123550245Y-133176561D02*
X123683578Y-133109894D01*
X123683578Y-133109894D02*
X123950245Y-133109894D01*
X123950245Y-133109894D02*
X124083578Y-133176561D01*
X124083578Y-133176561D02*
X124150245Y-133309894D01*
X124150245Y-133309894D02*
X124150245Y-133443227D01*
X124150245Y-133443227D02*
X123483578Y-133576561D01*
X125350245Y-134043227D02*
X125350245Y-132643227D01*
X125350245Y-133976561D02*
X125216912Y-134043227D01*
X125216912Y-134043227D02*
X124950245Y-134043227D01*
X124950245Y-134043227D02*
X124816912Y-133976561D01*
X124816912Y-133976561D02*
X124750245Y-133909894D01*
X124750245Y-133909894D02*
X124683578Y-133776561D01*
X124683578Y-133776561D02*
X124683578Y-133376561D01*
X124683578Y-133376561D02*
X124750245Y-133243227D01*
X124750245Y-133243227D02*
X124816912Y-133176561D01*
X124816912Y-133176561D02*
X124950245Y-133109894D01*
X124950245Y-133109894D02*
X125216912Y-133109894D01*
X125216912Y-133109894D02*
X125350245Y-133176561D01*
X127083579Y-134043227D02*
X127083579Y-132643227D01*
X127083579Y-133176561D02*
X127216912Y-133109894D01*
X127216912Y-133109894D02*
X127483579Y-133109894D01*
X127483579Y-133109894D02*
X127616912Y-133176561D01*
X127616912Y-133176561D02*
X127683579Y-133243227D01*
X127683579Y-133243227D02*
X127750246Y-133376561D01*
X127750246Y-133376561D02*
X127750246Y-133776561D01*
X127750246Y-133776561D02*
X127683579Y-133909894D01*
X127683579Y-133909894D02*
X127616912Y-133976561D01*
X127616912Y-133976561D02*
X127483579Y-134043227D01*
X127483579Y-134043227D02*
X127216912Y-134043227D01*
X127216912Y-134043227D02*
X127083579Y-133976561D01*
X128216913Y-133109894D02*
X128550246Y-134043227D01*
X128883579Y-133109894D02*
X128550246Y-134043227D01*
X128550246Y-134043227D02*
X128416913Y-134376561D01*
X128416913Y-134376561D02*
X128350246Y-134443227D01*
X128350246Y-134443227D02*
X128216913Y-134509894D01*
X130416913Y-133976561D02*
X130550247Y-134043227D01*
X130550247Y-134043227D02*
X130816913Y-134043227D01*
X130816913Y-134043227D02*
X130950247Y-133976561D01*
X130950247Y-133976561D02*
X131016913Y-133843227D01*
X131016913Y-133843227D02*
X131016913Y-133776561D01*
X131016913Y-133776561D02*
X130950247Y-133643227D01*
X130950247Y-133643227D02*
X130816913Y-133576561D01*
X130816913Y-133576561D02*
X130616913Y-133576561D01*
X130616913Y-133576561D02*
X130483580Y-133509894D01*
X130483580Y-133509894D02*
X130416913Y-133376561D01*
X130416913Y-133376561D02*
X130416913Y-133309894D01*
X130416913Y-133309894D02*
X130483580Y-133176561D01*
X130483580Y-133176561D02*
X130616913Y-133109894D01*
X130616913Y-133109894D02*
X130816913Y-133109894D01*
X130816913Y-133109894D02*
X130950247Y-133176561D01*
X131416913Y-133109894D02*
X131950246Y-133109894D01*
X131616913Y-132643227D02*
X131616913Y-133843227D01*
X131616913Y-133843227D02*
X131683580Y-133976561D01*
X131683580Y-133976561D02*
X131816913Y-134043227D01*
X131816913Y-134043227D02*
X131950246Y-134043227D01*
X132416913Y-134043227D02*
X132416913Y-133109894D01*
X132416913Y-133376561D02*
X132483580Y-133243227D01*
X132483580Y-133243227D02*
X132550246Y-133176561D01*
X132550246Y-133176561D02*
X132683580Y-133109894D01*
X132683580Y-133109894D02*
X132816913Y-133109894D01*
X133883580Y-134043227D02*
X133883580Y-133309894D01*
X133883580Y-133309894D02*
X133816913Y-133176561D01*
X133816913Y-133176561D02*
X133683580Y-133109894D01*
X133683580Y-133109894D02*
X133416913Y-133109894D01*
X133416913Y-133109894D02*
X133283580Y-133176561D01*
X133883580Y-133976561D02*
X133750247Y-134043227D01*
X133750247Y-134043227D02*
X133416913Y-134043227D01*
X133416913Y-134043227D02*
X133283580Y-133976561D01*
X133283580Y-133976561D02*
X133216913Y-133843227D01*
X133216913Y-133843227D02*
X133216913Y-133709894D01*
X133216913Y-133709894D02*
X133283580Y-133576561D01*
X133283580Y-133576561D02*
X133416913Y-133509894D01*
X133416913Y-133509894D02*
X133750247Y-133509894D01*
X133750247Y-133509894D02*
X133883580Y-133443227D01*
X134416914Y-133109894D02*
X134750247Y-134043227D01*
X135083580Y-133109894D02*
X134750247Y-134043227D01*
X134750247Y-134043227D02*
X134616914Y-134376561D01*
X134616914Y-134376561D02*
X134550247Y-134443227D01*
X134550247Y-134443227D02*
X134416914Y-134509894D01*
X136150247Y-133976561D02*
X136016914Y-134043227D01*
X136016914Y-134043227D02*
X135750247Y-134043227D01*
X135750247Y-134043227D02*
X135616914Y-133976561D01*
X135616914Y-133976561D02*
X135550247Y-133843227D01*
X135550247Y-133843227D02*
X135550247Y-133309894D01*
X135550247Y-133309894D02*
X135616914Y-133176561D01*
X135616914Y-133176561D02*
X135750247Y-133109894D01*
X135750247Y-133109894D02*
X136016914Y-133109894D01*
X136016914Y-133109894D02*
X136150247Y-133176561D01*
X136150247Y-133176561D02*
X136216914Y-133309894D01*
X136216914Y-133309894D02*
X136216914Y-133443227D01*
X136216914Y-133443227D02*
X135550247Y-133576561D01*
X136816914Y-134043227D02*
X136816914Y-133109894D01*
X136816914Y-133376561D02*
X136883581Y-133243227D01*
X136883581Y-133243227D02*
X136950247Y-133176561D01*
X136950247Y-133176561D02*
X137083581Y-133109894D01*
X137083581Y-133109894D02*
X137216914Y-133109894D01*
%LPC*%
D11*
G04 #@! TO.C,H1*
X96755000Y-62896000D03*
G04 #@! TD*
G04 #@! TO.C,H2*
X134342000Y-58240000D03*
G04 #@! TD*
G04 #@! TO.C,H3*
X172365000Y-58174000D03*
G04 #@! TD*
G04 #@! TO.C,H4*
X96694000Y-116997000D03*
G04 #@! TD*
G04 #@! TO.C,H5*
X134379000Y-94204000D03*
G04 #@! TD*
G04 #@! TO.C,H6*
X172463000Y-94248000D03*
G04 #@! TD*
G04 #@! TO.C,H7*
X165870000Y-117730000D03*
G04 #@! TD*
G04 #@! TO.C,H8*
X204723000Y-134762000D03*
G04 #@! TD*
%LPD*%
M02*
