G04 #@! TF.GenerationSoftware,KiCad,Pcbnew,10.0.2*
G04 #@! TF.CreationDate,2026-05-18T00:06:31-04:00*
G04 #@! TF.ProjectId,tairakb,74616972-616b-4622-9e6b-696361645f70,1.1*
G04 #@! TF.SameCoordinates,Original*
G04 #@! TF.FileFunction,Copper,L1,Top*
G04 #@! TF.FilePolarity,Positive*
%FSLAX46Y46*%
G04 Gerber Fmt 4.6, Leading zero omitted, Abs format (unit mm)*
G04 Created by KiCad (PCBNEW 10.0.2) date 2026-05-18 00:06:31*
%MOMM*%
%LPD*%
G01*
G04 APERTURE LIST*
G04 Aperture macros list*
%AMRoundRect*
0 Rectangle with rounded corners*
0 $1 Rounding radius*
0 $2 $3 $4 $5 $6 $7 $8 $9 X,Y pos of 4 corners*
0 Add a 4 corners polygon primitive as box body*
4,1,4,$2,$3,$4,$5,$6,$7,$8,$9,$2,$3,0*
0 Add four circle primitives for the rounded corners*
1,1,$1+$1,$2,$3*
1,1,$1+$1,$4,$5*
1,1,$1+$1,$6,$7*
1,1,$1+$1,$8,$9*
0 Add four rect primitives between the rounded corners*
20,1,$1+$1,$2,$3,$4,$5,0*
20,1,$1+$1,$4,$5,$6,$7,0*
20,1,$1+$1,$6,$7,$8,$9,0*
20,1,$1+$1,$8,$9,$2,$3,0*%
%AMRotRect*
0 Rectangle, with rotation*
0 The origin of the aperture is its center*
0 $1 length*
0 $2 width*
0 $3 Rotation angle, in degrees counterclockwise*
0 Add horizontal line*
21,1,$1,$2,0,0,$3*%
G04 Aperture macros list end*
G04 #@! TA.AperFunction,SMDPad,CuDef*
%ADD10R,1.600000X2.200000*%
G04 #@! TD*
G04 #@! TA.AperFunction,SMDPad,CuDef*
%ADD11RotRect,1.600000X2.200000X330.000000*%
G04 #@! TD*
G04 #@! TA.AperFunction,ComponentPad*
%ADD12C,2.000000*%
G04 #@! TD*
G04 #@! TA.AperFunction,ComponentPad*
%ADD13C,1.500000*%
G04 #@! TD*
G04 #@! TA.AperFunction,SMDPad,CuDef*
%ADD14R,0.950000X1.300000*%
G04 #@! TD*
G04 #@! TA.AperFunction,SMDPad,CuDef*
%ADD15R,1.300000X0.950000*%
G04 #@! TD*
G04 #@! TA.AperFunction,SMDPad,CuDef*
%ADD16RotRect,1.300000X0.950000X60.000000*%
G04 #@! TD*
G04 #@! TA.AperFunction,ComponentPad*
%ADD17RoundRect,0.250000X-0.750000X0.750000X-0.750000X-0.750000X0.750000X-0.750000X0.750000X0.750000X0*%
G04 #@! TD*
G04 #@! TA.AperFunction,ComponentPad*
%ADD18C,1.524000*%
G04 #@! TD*
G04 #@! TA.AperFunction,ComponentPad*
%ADD19C,5.000000*%
G04 #@! TD*
G04 #@! TA.AperFunction,ViaPad*
%ADD20C,0.800000*%
G04 #@! TD*
G04 #@! TA.AperFunction,Conductor*
%ADD21C,0.250000*%
G04 #@! TD*
G04 APERTURE END LIST*
D10*
G04 #@! TO.P,SW1,1*
G04 #@! TO.N,Net-(D1-Pad2)*
X95145000Y-57675000D03*
G04 #@! TO.P,SW1,2*
G04 #@! TO.N,/col0*
X84445000Y-59875000D03*
G04 #@! TD*
G04 #@! TO.P,SW2,1*
G04 #@! TO.N,Net-(D2-Pad2)*
X95145000Y-75675000D03*
G04 #@! TO.P,SW2,2*
G04 #@! TO.N,/col0*
X84445000Y-77875000D03*
G04 #@! TD*
G04 #@! TO.P,SW3,1*
G04 #@! TO.N,Net-(D3-Pad2)*
X95145000Y-93675000D03*
G04 #@! TO.P,SW3,2*
G04 #@! TO.N,/col0*
X84445000Y-95875000D03*
G04 #@! TD*
G04 #@! TO.P,SW4,1*
G04 #@! TO.N,Net-(D4-Pad2)*
X95145000Y-111675000D03*
G04 #@! TO.P,SW4,2*
G04 #@! TO.N,/col0*
X84445000Y-113875000D03*
G04 #@! TD*
G04 #@! TO.P,SW5,1*
G04 #@! TO.N,Net-(D5-Pad2)*
X95145000Y-129675000D03*
G04 #@! TO.P,SW5,2*
G04 #@! TO.N,/col0*
X84445000Y-131875000D03*
G04 #@! TD*
G04 #@! TO.P,SW6,1*
G04 #@! TO.N,Net-(D6-Pad2)*
X114145000Y-57675000D03*
G04 #@! TO.P,SW6,2*
G04 #@! TO.N,/col1*
X103445000Y-59875000D03*
G04 #@! TD*
G04 #@! TO.P,SW7,1*
G04 #@! TO.N,Net-(D7-Pad2)*
X114145000Y-75675000D03*
G04 #@! TO.P,SW7,2*
G04 #@! TO.N,/col1*
X103445000Y-77875000D03*
G04 #@! TD*
G04 #@! TO.P,SW8,1*
G04 #@! TO.N,Net-(D8-Pad2)*
X114145000Y-93675000D03*
G04 #@! TO.P,SW8,2*
G04 #@! TO.N,/col1*
X103445000Y-95875000D03*
G04 #@! TD*
G04 #@! TO.P,SW9,1*
G04 #@! TO.N,Net-(D9-Pad2)*
X114145000Y-111675000D03*
G04 #@! TO.P,SW9,2*
G04 #@! TO.N,/col1*
X103445000Y-113875000D03*
G04 #@! TD*
G04 #@! TO.P,SW10,1*
G04 #@! TO.N,Net-(D10-Pad2)*
X114145000Y-129675000D03*
G04 #@! TO.P,SW10,2*
G04 #@! TO.N,/col1*
X103445000Y-131875000D03*
G04 #@! TD*
G04 #@! TO.P,SW11,1*
G04 #@! TO.N,Net-(D11-Pad2)*
X133145000Y-52913000D03*
G04 #@! TO.P,SW11,2*
G04 #@! TO.N,/col2*
X122445000Y-55113000D03*
G04 #@! TD*
G04 #@! TO.P,SW12,1*
G04 #@! TO.N,Net-(D12-Pad2)*
X133145000Y-70913000D03*
G04 #@! TO.P,SW12,2*
G04 #@! TO.N,/col2*
X122445000Y-73113000D03*
G04 #@! TD*
G04 #@! TO.P,SW13,1*
G04 #@! TO.N,Net-(D13-Pad2)*
X133145000Y-88913000D03*
G04 #@! TO.P,SW13,2*
G04 #@! TO.N,/col2*
X122445000Y-91113000D03*
G04 #@! TD*
G04 #@! TO.P,SW14,1*
G04 #@! TO.N,Net-(D14-Pad2)*
X133145000Y-106913000D03*
G04 #@! TO.P,SW14,2*
G04 #@! TO.N,/col2*
X122445000Y-109113000D03*
G04 #@! TD*
G04 #@! TO.P,SW15,1*
G04 #@! TO.N,Net-(D15-Pad2)*
X133145000Y-124913000D03*
G04 #@! TO.P,SW15,2*
G04 #@! TO.N,/col2*
X122445000Y-127113000D03*
G04 #@! TD*
G04 #@! TO.P,SW16,1*
G04 #@! TO.N,Net-(D16-Pad2)*
X152145000Y-50532000D03*
G04 #@! TO.P,SW16,2*
G04 #@! TO.N,/col3*
X141445000Y-52732000D03*
G04 #@! TD*
G04 #@! TO.P,SW17,1*
G04 #@! TO.N,Net-(D17-Pad2)*
X152145000Y-68532000D03*
G04 #@! TO.P,SW17,2*
G04 #@! TO.N,/col3*
X141445000Y-70732000D03*
G04 #@! TD*
G04 #@! TO.P,SW18,1*
G04 #@! TO.N,Net-(D18-Pad2)*
X152145000Y-86532000D03*
G04 #@! TO.P,SW18,2*
G04 #@! TO.N,/col3*
X141445000Y-88732000D03*
G04 #@! TD*
G04 #@! TO.P,SW19,1*
G04 #@! TO.N,Net-(D19-Pad2)*
X152145000Y-104532000D03*
G04 #@! TO.P,SW19,2*
G04 #@! TO.N,/col3*
X141445000Y-106732000D03*
G04 #@! TD*
G04 #@! TO.P,SW20,1*
G04 #@! TO.N,Net-(D20-Pad2)*
X136345000Y-115132000D03*
G04 #@! TO.P,SW20,2*
G04 #@! TO.N,/col3*
X147045000Y-112932000D03*
G04 #@! TD*
G04 #@! TO.P,SW21,1*
G04 #@! TO.N,Net-(D21-Pad2)*
X171145000Y-52913000D03*
G04 #@! TO.P,SW21,2*
G04 #@! TO.N,/col4*
X160445000Y-55113000D03*
G04 #@! TD*
G04 #@! TO.P,SW22,1*
G04 #@! TO.N,Net-(D22-Pad2)*
X171145000Y-70913000D03*
G04 #@! TO.P,SW22,2*
G04 #@! TO.N,/col4*
X160445000Y-73113000D03*
G04 #@! TD*
G04 #@! TO.P,SW23,1*
G04 #@! TO.N,Net-(D23-Pad2)*
X171145000Y-88913000D03*
G04 #@! TO.P,SW23,2*
G04 #@! TO.N,/col4*
X160445000Y-91113000D03*
G04 #@! TD*
G04 #@! TO.P,SW24,1*
G04 #@! TO.N,Net-(D24-Pad2)*
X171145000Y-106913000D03*
G04 #@! TO.P,SW24,2*
G04 #@! TO.N,/col4*
X160445000Y-109113000D03*
G04 #@! TD*
D11*
G04 #@! TO.P,SW25,1*
G04 #@! TO.N,Net-(D25-Pad2)*
X170313399Y-121081706D03*
G04 #@! TO.P,SW25,2*
G04 #@! TO.N,/col4*
X180679871Y-124526450D03*
G04 #@! TD*
D10*
G04 #@! TO.P,SW26,1*
G04 #@! TO.N,Net-(D26-Pad2)*
X174345000Y-48894000D03*
G04 #@! TO.P,SW26,2*
G04 #@! TO.N,/col5*
X185045000Y-46694000D03*
G04 #@! TD*
G04 #@! TO.P,SW27,1*
G04 #@! TO.N,Net-(D27-Pad2)*
X190145000Y-74294000D03*
G04 #@! TO.P,SW27,2*
G04 #@! TO.N,/col5*
X179445000Y-76494000D03*
G04 #@! TD*
G04 #@! TO.P,SW28,1*
G04 #@! TO.N,Net-(D28-Pad2)*
X174345000Y-84894000D03*
G04 #@! TO.P,SW28,2*
G04 #@! TO.N,/col5*
X185045000Y-82694000D03*
G04 #@! TD*
G04 #@! TO.P,SW29,1*
G04 #@! TO.N,Net-(D29-Pad2)*
X190145000Y-110294000D03*
G04 #@! TO.P,SW29,2*
G04 #@! TO.N,/col5*
X179445000Y-112494000D03*
G04 #@! TD*
D11*
G04 #@! TO.P,SW32,1*
G04 #@! TO.N,Net-(D32-Pad2)*
X212538399Y-124517706D03*
G04 #@! TO.P,SW32,2*
G04 #@! TO.N,/col6*
X222904871Y-127962450D03*
G04 #@! TD*
G04 #@! TO.P,SW33,1*
G04 #@! TO.N,Net-(D33-Pad2)*
X203468399Y-140235706D03*
G04 #@! TO.P,SW33,2*
G04 #@! TO.N,/col6*
X213834871Y-143680450D03*
G04 #@! TD*
D12*
G04 #@! TO.P,RSW1,1*
G04 #@! TO.N,GND*
X202365000Y-100951000D03*
G04 #@! TO.P,RSW1,2*
G04 #@! TO.N,/RST*
X202365000Y-107451000D03*
G04 #@! TD*
D13*
G04 #@! TO.P,BSW1,1*
G04 #@! TO.N,N/C*
X209000000Y-103600000D03*
G04 #@! TO.P,BSW1,2*
G04 #@! TO.N,Net-(BSW1-Pad2)*
X209000000Y-101100000D03*
G04 #@! TO.P,BSW1,3*
G04 #@! TO.N,+BATT*
X209000000Y-98600000D03*
G04 #@! TD*
D14*
G04 #@! TO.P,D1,1*
G04 #@! TO.N,/row0*
X95118000Y-50865000D03*
G04 #@! TO.P,D1,2*
G04 #@! TO.N,Net-(D1-Pad2)*
X95118000Y-54415000D03*
G04 #@! TD*
G04 #@! TO.P,D2,1*
G04 #@! TO.N,/row1*
X95118000Y-68865000D03*
G04 #@! TO.P,D2,2*
G04 #@! TO.N,Net-(D2-Pad2)*
X95118000Y-72415000D03*
G04 #@! TD*
G04 #@! TO.P,D3,1*
G04 #@! TO.N,/row2*
X95118000Y-86865000D03*
G04 #@! TO.P,D3,2*
G04 #@! TO.N,Net-(D3-Pad2)*
X95118000Y-90415000D03*
G04 #@! TD*
G04 #@! TO.P,D4,1*
G04 #@! TO.N,/row3*
X95118000Y-104865000D03*
G04 #@! TO.P,D4,2*
G04 #@! TO.N,Net-(D4-Pad2)*
X95118000Y-108415000D03*
G04 #@! TD*
G04 #@! TO.P,D5,1*
G04 #@! TO.N,/row4*
X95118000Y-122865000D03*
G04 #@! TO.P,D5,2*
G04 #@! TO.N,Net-(D5-Pad2)*
X95118000Y-126415000D03*
G04 #@! TD*
G04 #@! TO.P,D6,1*
G04 #@! TO.N,/row0*
X114118000Y-50865000D03*
G04 #@! TO.P,D6,2*
G04 #@! TO.N,Net-(D6-Pad2)*
X114118000Y-54415000D03*
G04 #@! TD*
G04 #@! TO.P,D7,1*
G04 #@! TO.N,/row1*
X114118000Y-68865000D03*
G04 #@! TO.P,D7,2*
G04 #@! TO.N,Net-(D7-Pad2)*
X114118000Y-72415000D03*
G04 #@! TD*
G04 #@! TO.P,D8,1*
G04 #@! TO.N,/row2*
X114118000Y-86865000D03*
G04 #@! TO.P,D8,2*
G04 #@! TO.N,Net-(D8-Pad2)*
X114118000Y-90415000D03*
G04 #@! TD*
G04 #@! TO.P,D9,1*
G04 #@! TO.N,/row3*
X114118000Y-104865000D03*
G04 #@! TO.P,D9,2*
G04 #@! TO.N,Net-(D9-Pad2)*
X114118000Y-108415000D03*
G04 #@! TD*
G04 #@! TO.P,D10,1*
G04 #@! TO.N,/row4*
X114118000Y-122865000D03*
G04 #@! TO.P,D10,2*
G04 #@! TO.N,Net-(D10-Pad2)*
X114118000Y-126415000D03*
G04 #@! TD*
G04 #@! TO.P,D11,1*
G04 #@! TO.N,/row0*
X133133000Y-46140000D03*
G04 #@! TO.P,D11,2*
G04 #@! TO.N,Net-(D11-Pad2)*
X133133000Y-49690000D03*
G04 #@! TD*
G04 #@! TO.P,D12,1*
G04 #@! TO.N,/row1*
X133133000Y-64140000D03*
G04 #@! TO.P,D12,2*
G04 #@! TO.N,Net-(D12-Pad2)*
X133133000Y-67690000D03*
G04 #@! TD*
G04 #@! TO.P,D13,1*
G04 #@! TO.N,/row2*
X133133000Y-82140000D03*
G04 #@! TO.P,D13,2*
G04 #@! TO.N,Net-(D13-Pad2)*
X133133000Y-85690000D03*
G04 #@! TD*
G04 #@! TO.P,D14,1*
G04 #@! TO.N,/row3*
X133133000Y-100140000D03*
G04 #@! TO.P,D14,2*
G04 #@! TO.N,Net-(D14-Pad2)*
X133133000Y-103690000D03*
G04 #@! TD*
G04 #@! TO.P,D15,1*
G04 #@! TO.N,/row4*
X133133000Y-118140000D03*
G04 #@! TO.P,D15,2*
G04 #@! TO.N,Net-(D15-Pad2)*
X133133000Y-121690000D03*
G04 #@! TD*
G04 #@! TO.P,D16,1*
G04 #@! TO.N,/row0*
X152150000Y-43795000D03*
G04 #@! TO.P,D16,2*
G04 #@! TO.N,Net-(D16-Pad2)*
X152150000Y-47345000D03*
G04 #@! TD*
G04 #@! TO.P,D17,1*
G04 #@! TO.N,/row1*
X152150000Y-61795000D03*
G04 #@! TO.P,D17,2*
G04 #@! TO.N,Net-(D17-Pad2)*
X152150000Y-65345000D03*
G04 #@! TD*
G04 #@! TO.P,D18,1*
G04 #@! TO.N,/row2*
X152150000Y-79795000D03*
G04 #@! TO.P,D18,2*
G04 #@! TO.N,Net-(D18-Pad2)*
X152150000Y-83345000D03*
G04 #@! TD*
G04 #@! TO.P,D19,1*
G04 #@! TO.N,/row3*
X152150000Y-97795000D03*
G04 #@! TO.P,D19,2*
G04 #@! TO.N,Net-(D19-Pad2)*
X152150000Y-101345000D03*
G04 #@! TD*
D15*
G04 #@! TO.P,D20,1*
G04 #@! TO.N,/row4*
X147243000Y-120856000D03*
G04 #@! TO.P,D20,2*
G04 #@! TO.N,Net-(D20-Pad2)*
X150793000Y-120856000D03*
G04 #@! TD*
D14*
G04 #@! TO.P,D21,1*
G04 #@! TO.N,/row0*
X171132000Y-46177000D03*
G04 #@! TO.P,D21,2*
G04 #@! TO.N,Net-(D21-Pad2)*
X171132000Y-49727000D03*
G04 #@! TD*
G04 #@! TO.P,D22,1*
G04 #@! TO.N,/row1*
X171132000Y-64177000D03*
G04 #@! TO.P,D22,2*
G04 #@! TO.N,Net-(D22-Pad2)*
X171132000Y-67727000D03*
G04 #@! TD*
G04 #@! TO.P,D23,1*
G04 #@! TO.N,/row2*
X171132000Y-82177000D03*
G04 #@! TO.P,D23,2*
G04 #@! TO.N,Net-(D23-Pad2)*
X171132000Y-85727000D03*
G04 #@! TD*
G04 #@! TO.P,D24,1*
G04 #@! TO.N,/row3*
X171132000Y-100177000D03*
G04 #@! TO.P,D24,2*
G04 #@! TO.N,Net-(D24-Pad2)*
X171132000Y-103727000D03*
G04 #@! TD*
D16*
G04 #@! TO.P,D25,1*
G04 #@! TO.N,/row4*
X165937500Y-128631195D03*
G04 #@! TO.P,D25,2*
G04 #@! TO.N,Net-(D25-Pad2)*
X167712500Y-125556805D03*
G04 #@! TD*
D15*
G04 #@! TO.P,D26,1*
G04 #@! TO.N,/row0*
X180511000Y-58331000D03*
G04 #@! TO.P,D26,2*
G04 #@! TO.N,Net-(D26-Pad2)*
X184061000Y-58331000D03*
G04 #@! TD*
D14*
G04 #@! TO.P,D27,1*
G04 #@! TO.N,/row1*
X174431000Y-67785000D03*
G04 #@! TO.P,D27,2*
G04 #@! TO.N,Net-(D27-Pad2)*
X174431000Y-71335000D03*
G04 #@! TD*
G04 #@! TO.P,D28,1*
G04 #@! TO.N,/row2*
X174259000Y-78352000D03*
G04 #@! TO.P,D28,2*
G04 #@! TO.N,Net-(D28-Pad2)*
X174259000Y-81902000D03*
G04 #@! TD*
G04 #@! TO.P,D29,1*
G04 #@! TO.N,/row3*
X174431000Y-103785000D03*
G04 #@! TO.P,D29,2*
G04 #@! TO.N,Net-(D29-Pad2)*
X174431000Y-107335000D03*
G04 #@! TD*
D16*
G04 #@! TO.P,D31,1*
G04 #@! TO.N,/row2*
X191590500Y-122438195D03*
G04 #@! TO.P,D31,2*
G04 #@! TO.N,Net-(D31-Pad2)*
X193365500Y-119363805D03*
G04 #@! TD*
G04 #@! TO.P,D32,1*
G04 #@! TO.N,/row3*
X208228500Y-132047195D03*
G04 #@! TO.P,D32,2*
G04 #@! TO.N,Net-(D32-Pad2)*
X210003500Y-128972805D03*
G04 #@! TD*
D17*
G04 #@! TO.P,BT1,1*
G04 #@! TO.N,Net-(BSW1-Pad2)*
X209141000Y-108087000D03*
D12*
G04 #@! TO.P,BT1,2*
G04 #@! TO.N,GND*
X209141000Y-112587000D03*
G04 #@! TD*
D16*
G04 #@! TO.P,D30,1*
G04 #@! TO.N,/row4*
X182530500Y-138157195D03*
G04 #@! TO.P,D30,2*
G04 #@! TO.N,Net-(D30-Pad2)*
X184305500Y-135082805D03*
G04 #@! TD*
D18*
G04 #@! TO.P,U3,1*
G04 #@! TO.N,Net-(U3-Pad1)*
X196881400Y-63093600D03*
X210795000Y-64363600D03*
G04 #@! TO.P,U3,2*
G04 #@! TO.N,Net-(U3-Pad2)*
X196881400Y-65633600D03*
X210795000Y-66903600D03*
G04 #@! TO.P,U3,3*
G04 #@! TO.N,GND*
X196881400Y-68173600D03*
X210795000Y-69443600D03*
G04 #@! TO.P,U3,4*
X196881400Y-70713600D03*
X210795000Y-71983600D03*
G04 #@! TO.P,U3,5*
G04 #@! TO.N,Net-(U3-Pad5)*
X196881400Y-73253600D03*
X210795000Y-74523600D03*
G04 #@! TO.P,U3,6*
G04 #@! TO.N,Net-(U3-Pad6)*
X196881400Y-75793600D03*
X210795000Y-77063600D03*
G04 #@! TO.P,U3,7*
G04 #@! TO.N,/row0*
X196881400Y-78333600D03*
X210795000Y-79603600D03*
G04 #@! TO.P,U3,8*
G04 #@! TO.N,/row1*
X196881400Y-80873600D03*
X210795000Y-82143600D03*
G04 #@! TO.P,U3,9*
G04 #@! TO.N,/row2*
X196881400Y-83413600D03*
X210795000Y-84683600D03*
G04 #@! TO.P,U3,10*
G04 #@! TO.N,/row3*
X196881400Y-85953600D03*
X210795000Y-87223600D03*
G04 #@! TO.P,U3,11*
G04 #@! TO.N,/row4*
X196881400Y-88493600D03*
X210795000Y-89763600D03*
G04 #@! TO.P,U3,12*
G04 #@! TO.N,Net-(U3-Pad12)*
X196881400Y-91033600D03*
X210795000Y-92303600D03*
G04 #@! TO.P,U3,13*
G04 #@! TO.N,Net-(U3-Pad13)*
X195555000Y-92303600D03*
X212101400Y-91033600D03*
G04 #@! TO.P,U3,14*
G04 #@! TO.N,/col6*
X195555000Y-89763600D03*
X212101400Y-88493600D03*
G04 #@! TO.P,U3,15*
G04 #@! TO.N,/col5*
X195555000Y-87223600D03*
X212101400Y-85953600D03*
G04 #@! TO.P,U3,16*
G04 #@! TO.N,/col4*
X195555000Y-84683600D03*
X212101400Y-83413600D03*
G04 #@! TO.P,U3,17*
G04 #@! TO.N,/col3*
X195555000Y-82143600D03*
X212101400Y-80873600D03*
G04 #@! TO.P,U3,18*
G04 #@! TO.N,/col2*
X195555000Y-79603600D03*
X212101400Y-78333600D03*
G04 #@! TO.P,U3,19*
G04 #@! TO.N,/col1*
X195555000Y-77063600D03*
X212101400Y-75793600D03*
G04 #@! TO.P,U3,20*
G04 #@! TO.N,/col0*
X195555000Y-74523600D03*
X212101400Y-73253600D03*
G04 #@! TO.P,U3,21*
G04 #@! TO.N,VCC*
X195555000Y-71983600D03*
X212101400Y-70713600D03*
G04 #@! TO.P,U3,22*
G04 #@! TO.N,/RST*
X195555000Y-69443600D03*
X212101400Y-68173600D03*
G04 #@! TO.P,U3,23*
G04 #@! TO.N,GND*
X195555000Y-66903600D03*
X212101400Y-65633600D03*
G04 #@! TO.P,U3,24*
G04 #@! TO.N,+BATT*
X195555000Y-64363600D03*
X212101400Y-63093600D03*
G04 #@! TD*
D10*
G04 #@! TO.P,SW20-1,1*
G04 #@! TO.N,Net-(D20-Pad2)*
X161341000Y-126560000D03*
G04 #@! TO.P,SW20-1,2*
G04 #@! TO.N,/col3*
X150641000Y-128760000D03*
G04 #@! TD*
D19*
G04 #@! TO.P,H1,*
G04 #@! TO.N,*
X96755000Y-62896000D03*
G04 #@! TD*
G04 #@! TO.P,H2,*
G04 #@! TO.N,*
X134342000Y-58240000D03*
G04 #@! TD*
G04 #@! TO.P,H3,*
G04 #@! TO.N,*
X172365000Y-58174000D03*
G04 #@! TD*
G04 #@! TO.P,H4,*
G04 #@! TO.N,*
X96694000Y-116997000D03*
G04 #@! TD*
G04 #@! TO.P,H5,*
G04 #@! TO.N,*
X134379000Y-94204000D03*
G04 #@! TD*
G04 #@! TO.P,H6,*
G04 #@! TO.N,*
X172463000Y-94248000D03*
G04 #@! TD*
G04 #@! TO.P,H7,*
G04 #@! TO.N,*
X165870000Y-117730000D03*
G04 #@! TD*
G04 #@! TO.P,H8,*
G04 #@! TO.N,*
X204723000Y-134762000D03*
G04 #@! TD*
D16*
G04 #@! TO.P,D33,1*
G04 #@! TO.N,/row4*
X199122500Y-147759195D03*
G04 #@! TO.P,D33,2*
G04 #@! TO.N,Net-(D33-Pad2)*
X200897500Y-144684805D03*
G04 #@! TD*
D11*
G04 #@! TO.P,SW30,1*
G04 #@! TO.N,Net-(D30-Pad2)*
X186898399Y-130666706D03*
G04 #@! TO.P,SW30,2*
G04 #@! TO.N,/col5*
X197264871Y-134111450D03*
G04 #@! TD*
G04 #@! TO.P,SW31,1*
G04 #@! TO.N,Net-(D31-Pad2)*
X195968399Y-114955706D03*
G04 #@! TO.P,SW31,2*
G04 #@! TO.N,/col6*
X206334871Y-118400450D03*
G04 #@! TD*
D20*
G04 #@! TO.N,Net-(D1-Pad2)*
X87325000Y-56989000D03*
X96726000Y-54413000D03*
G04 #@! TO.N,/col0*
X87273920Y-97974803D03*
X87281993Y-133974676D03*
X87274336Y-79974797D03*
X87332717Y-115973170D03*
X87162000Y-62041000D03*
G04 #@! TO.N,Net-(D2-Pad2)*
X87279000Y-75042000D03*
X96671000Y-72387000D03*
G04 #@! TO.N,Net-(D3-Pad2)*
X96671000Y-90434000D03*
X87278000Y-93135000D03*
G04 #@! TO.N,Net-(D4-Pad2)*
X96727000Y-108463000D03*
X87278000Y-111211000D03*
G04 #@! TO.N,Net-(D5-Pad2)*
X96782000Y-126390000D03*
X87224000Y-129023000D03*
G04 #@! TO.N,Net-(D6-Pad2)*
X106260000Y-57008000D03*
X115760000Y-54410000D03*
G04 #@! TO.N,/col1*
X183448487Y-118450210D03*
X107435000Y-128490000D03*
X185426654Y-118522654D03*
X106301624Y-97974239D03*
X106264000Y-116051000D03*
X106261095Y-61974940D03*
X106260000Y-80018000D03*
G04 #@! TO.N,Net-(D7-Pad2)*
X115760000Y-72410000D03*
X106260000Y-74860000D03*
G04 #@! TO.N,Net-(D8-Pad2)*
X106226000Y-92941000D03*
X115726000Y-90410000D03*
G04 #@! TO.N,Net-(D9-Pad2)*
X106226000Y-110930000D03*
X115688000Y-108439000D03*
G04 #@! TO.N,Net-(D10-Pad2)*
X115653000Y-126410000D03*
X106226000Y-128934000D03*
G04 #@! TO.N,Net-(D11-Pad2)*
X125379000Y-52107000D03*
X134731000Y-49695000D03*
G04 #@! TO.N,/col2*
X183423047Y-117450532D03*
X125272441Y-111212823D03*
X125195208Y-93212412D03*
X125345079Y-129210616D03*
X125230000Y-57265000D03*
X125269643Y-75212858D03*
X187149307Y-117825307D03*
G04 #@! TO.N,Net-(D12-Pad2)*
X125306000Y-70223000D03*
X134695000Y-67679000D03*
G04 #@! TO.N,Net-(D13-Pad2)*
X125270000Y-88317000D03*
X134696000Y-85719000D03*
G04 #@! TO.N,Net-(D14-Pad2)*
X134733000Y-103688000D03*
X125233000Y-106053000D03*
G04 #@! TO.N,Net-(D15-Pad2)*
X125270000Y-124178000D03*
X134733000Y-121698000D03*
G04 #@! TO.N,Net-(D16-Pad2)*
X153785000Y-47322000D03*
X144396000Y-49771000D03*
G04 #@! TO.N,/col3*
X174144000Y-116085000D03*
X144287000Y-72878000D03*
X153619000Y-130883000D03*
X179795000Y-119934000D03*
X144182069Y-90831059D03*
X144107000Y-109755000D03*
X144211000Y-54929000D03*
G04 #@! TO.N,Net-(D17-Pad2)*
X153751000Y-65381000D03*
X144399000Y-67794000D03*
G04 #@! TO.N,Net-(D18-Pad2)*
X153758000Y-83378000D03*
X144294000Y-85716000D03*
G04 #@! TO.N,Net-(D19-Pad2)*
X144255000Y-103854000D03*
X153644000Y-101428000D03*
G04 #@! TO.N,Net-(D20-Pad2)*
X149426000Y-120863000D03*
X153396000Y-125947000D03*
G04 #@! TO.N,Net-(D21-Pad2)*
X172647000Y-49727000D03*
X163258000Y-52177000D03*
G04 #@! TO.N,/col4*
X163258401Y-57212959D03*
X165991999Y-110938001D03*
X163296079Y-75212380D03*
X177746276Y-119916724D03*
X163332000Y-93289000D03*
G04 #@! TO.N,Net-(D22-Pad2)*
X172721000Y-67709000D03*
X163183000Y-70121000D03*
G04 #@! TO.N,Net-(D23-Pad2)*
X172722000Y-85719000D03*
X163221000Y-88131000D03*
G04 #@! TO.N,Net-(D24-Pad2)*
X163371000Y-106359000D03*
X172649000Y-103725000D03*
G04 #@! TO.N,Net-(D25-Pad2)*
X176897000Y-125256000D03*
X168844000Y-126295000D03*
G04 #@! TO.N,Net-(D26-Pad2)*
X185043501Y-57108501D03*
X189862000Y-46378000D03*
G04 #@! TO.N,/col5*
X182299000Y-114683000D03*
X194281776Y-129452224D03*
X188270000Y-125477000D03*
X179445000Y-71953000D03*
X182249000Y-49490000D03*
X181581499Y-86260499D03*
X188270000Y-123789001D03*
G04 #@! TO.N,Net-(D27-Pad2)*
X173088000Y-71338000D03*
X182180000Y-73754000D03*
G04 #@! TO.N,Net-(D28-Pad2)*
X175575000Y-81868000D03*
X181587000Y-84911000D03*
G04 #@! TO.N,Net-(D29-Pad2)*
X182225000Y-109598000D03*
X173244000Y-107377000D03*
G04 #@! TO.N,Net-(D32-Pad2)*
X219133000Y-128619000D03*
X210857000Y-129658000D03*
G04 #@! TO.N,/col6*
X212330147Y-140392770D03*
X205028773Y-115223274D03*
X221511651Y-124733323D03*
G04 #@! TO.N,Net-(D33-Pad2)*
X201810000Y-145328000D03*
X210160000Y-144660000D03*
G04 #@! TO.N,/row0*
X198878000Y-79545000D03*
X95097000Y-49361000D03*
X171125000Y-44738000D03*
X180510000Y-56992000D03*
X152152000Y-42089000D03*
X133135000Y-44536000D03*
X114127000Y-49289000D03*
G04 #@! TO.N,/row1*
X114127000Y-67215000D03*
X171125000Y-62625000D03*
X198878000Y-82255000D03*
X174424000Y-66328000D03*
X133137000Y-62595000D03*
X152155000Y-60186000D03*
X95097000Y-67449000D03*
G04 #@! TO.N,/row2*
X171126000Y-80635000D03*
X198903600Y-84683600D03*
X189637000Y-87429000D03*
X190293000Y-88914000D03*
X190863000Y-123789000D03*
X95096000Y-85328000D03*
X174239000Y-76784000D03*
X133137000Y-80561000D03*
X114093000Y-85215000D03*
X152125000Y-78219000D03*
G04 #@! TO.N,/row3*
X133137000Y-98529000D03*
X152123000Y-96233000D03*
X174432000Y-102218000D03*
X114130000Y-103355000D03*
X209150000Y-132813000D03*
X95152000Y-103411000D03*
X200974000Y-87266000D03*
X171127000Y-98677000D03*
G04 #@! TO.N,/row4*
X189305000Y-119011000D03*
X146160000Y-120863000D03*
X191042939Y-89648000D03*
X114131000Y-121252000D03*
X186749000Y-121516000D03*
X189331000Y-91386000D03*
X133137000Y-116540000D03*
X95152000Y-121284000D03*
X186749000Y-123766000D03*
X198571000Y-89772000D03*
X165319000Y-129858000D03*
X198321000Y-149040000D03*
X181937000Y-139163000D03*
G04 #@! TO.N,Net-(D31-Pad2)*
X194574000Y-120264000D03*
X202553000Y-119262000D03*
G04 #@! TO.N,Net-(D30-Pad2)*
X185277000Y-135823000D03*
X193552000Y-134821000D03*
G04 #@! TO.N,Net-(U3-Pad1)*
X199031000Y-64358000D03*
G04 #@! TO.N,Net-(U3-Pad2)*
X199031000Y-66864000D03*
G04 #@! TO.N,Net-(U3-Pad5)*
X198929000Y-74483000D03*
G04 #@! TO.N,Net-(U3-Pad6)*
X198878000Y-76988000D03*
G04 #@! TO.N,Net-(U3-Pad12)*
X205883000Y-91052000D03*
G04 #@! TO.N,VCC*
X198980000Y-70801000D03*
G04 #@! TD*
G04 #@! TO.N,Net-(D1-Pad2)*
D21*
X95120000Y-54413000D02*
X95118000Y-54415000D01*
X89836001Y-59500001D02*
X93319999Y-59500001D01*
X95145000Y-54442000D02*
X95118000Y-54415000D01*
X96726000Y-54413000D02*
X95120000Y-54413000D01*
X93319999Y-59500001D02*
X95145000Y-57675000D01*
X95145000Y-57675000D02*
X95145000Y-54442000D01*
X87325000Y-56989000D02*
X89836001Y-59500001D01*
G04 #@! TO.N,/col0*
X86544797Y-79974797D02*
X87274336Y-79974797D01*
X84445000Y-113875000D02*
X86543170Y-115973170D01*
X86544803Y-97974803D02*
X87273920Y-97974803D01*
X212101400Y-73253600D02*
X198490162Y-73253600D01*
X197220162Y-74523600D02*
X195555000Y-74523600D01*
X191767939Y-111156063D02*
X191767939Y-78310661D01*
X164059989Y-134150011D02*
X164593999Y-133616001D01*
X84445000Y-59875000D02*
X84445000Y-77875000D01*
X87457328Y-134150011D02*
X164059989Y-134150011D01*
X170248300Y-119191723D02*
X183732279Y-119191723D01*
X198490162Y-73253600D02*
X197220162Y-74523600D01*
X87281993Y-133974676D02*
X87457328Y-134150011D01*
X84445000Y-95875000D02*
X84445000Y-83376002D01*
X84445000Y-95875000D02*
X86544803Y-97974803D01*
X84445000Y-59875000D02*
X86611000Y-62041000D01*
X84445000Y-95875000D02*
X84445000Y-113875000D01*
X84445000Y-83376002D02*
X84445000Y-77875000D01*
X84445000Y-131875000D02*
X84445000Y-113875000D01*
X86611000Y-62041000D02*
X87162000Y-62041000D01*
X183732279Y-119191723D02*
X191767939Y-111156063D01*
X86543170Y-115973170D02*
X87332717Y-115973170D01*
X164593999Y-133616001D02*
X164593999Y-124846024D01*
X164593999Y-124846024D02*
X170248300Y-119191723D01*
X191767939Y-78310661D02*
X195555000Y-74523600D01*
X84445000Y-77875000D02*
X86544797Y-79974797D01*
X84445000Y-131875000D02*
X86544676Y-133974676D01*
X86544676Y-133974676D02*
X87281993Y-133974676D01*
G04 #@! TO.N,Net-(D2-Pad2)*
X89737001Y-77500001D02*
X93319999Y-77500001D01*
X87279000Y-75042000D02*
X89737001Y-77500001D01*
X93319999Y-77500001D02*
X95145000Y-75675000D01*
X96643000Y-72415000D02*
X96671000Y-72387000D01*
X95145000Y-75675000D02*
X95145000Y-72442000D01*
X95118000Y-72415000D02*
X96643000Y-72415000D01*
X95145000Y-72442000D02*
X95118000Y-72415000D01*
G04 #@! TO.N,Net-(D3-Pad2)*
X95145000Y-93675000D02*
X95145000Y-90442000D01*
X96652000Y-90415000D02*
X96671000Y-90434000D01*
X93319999Y-95500001D02*
X95145000Y-93675000D01*
X87278000Y-93135000D02*
X89643001Y-95500001D01*
X95118000Y-90415000D02*
X96652000Y-90415000D01*
X95145000Y-90442000D02*
X95118000Y-90415000D01*
X89643001Y-95500001D02*
X93319999Y-95500001D01*
G04 #@! TO.N,Net-(D4-Pad2)*
X89567001Y-113500001D02*
X93319999Y-113500001D01*
X95145000Y-108442000D02*
X95118000Y-108415000D01*
X96727000Y-108463000D02*
X95166000Y-108463000D01*
X93319999Y-113500001D02*
X95145000Y-111675000D01*
X95145000Y-111675000D02*
X95145000Y-108442000D01*
X87278000Y-111211000D02*
X89567001Y-113500001D01*
X95166000Y-108463000D02*
X95118000Y-108415000D01*
G04 #@! TO.N,Net-(D5-Pad2)*
X95118000Y-126415000D02*
X96757000Y-126415000D01*
X95145000Y-129675000D02*
X95145000Y-126442000D01*
X96757000Y-126415000D02*
X96782000Y-126390000D01*
X95145000Y-126442000D02*
X95118000Y-126415000D01*
X87224000Y-129023000D02*
X89701001Y-131500001D01*
X93319999Y-131500001D02*
X95145000Y-129675000D01*
X89701001Y-131500001D02*
X93319999Y-131500001D01*
G04 #@! TO.N,Net-(D6-Pad2)*
X114145000Y-54442000D02*
X114118000Y-54415000D01*
X106260000Y-57008000D02*
X108752001Y-59500001D01*
X112319999Y-59500001D02*
X114145000Y-57675000D01*
X108752001Y-59500001D02*
X112319999Y-59500001D01*
X114145000Y-57675000D02*
X114145000Y-54442000D01*
X114118000Y-54415000D02*
X115755000Y-54415000D01*
X115755000Y-54415000D02*
X115760000Y-54410000D01*
G04 #@! TO.N,/col1*
X103445000Y-131875000D02*
X103445000Y-113875000D01*
X105544239Y-97974239D02*
X106301624Y-97974239D01*
X107153999Y-128208999D02*
X107435000Y-128490000D01*
X105544940Y-61974940D02*
X106261095Y-61974940D01*
X192217949Y-108358800D02*
X192217949Y-111731359D01*
X105761001Y-128208999D02*
X107153999Y-128208999D01*
X103445000Y-77875000D02*
X103445000Y-59875000D01*
X103445000Y-130525000D02*
X105761001Y-128208999D01*
X103445000Y-59875000D02*
X105544940Y-61974940D01*
X192217949Y-108358800D02*
X192217949Y-108183000D01*
X192217949Y-80400651D02*
X192217949Y-108358800D01*
X103445000Y-77875000D02*
X105588000Y-80018000D01*
X103543998Y-131875000D02*
X105368999Y-133700001D01*
X103445000Y-131875000D02*
X103445000Y-130525000D01*
X195555000Y-77063600D02*
X192217949Y-80400651D01*
X197220162Y-77063600D02*
X195555000Y-77063600D01*
X164143989Y-124659624D02*
X170353403Y-118450210D01*
X105621000Y-116051000D02*
X106264000Y-116051000D01*
X198490162Y-75793600D02*
X197220162Y-77063600D01*
X170353403Y-118450210D02*
X183448487Y-118450210D01*
X164143989Y-133403011D02*
X164143989Y-124659624D01*
X103445000Y-95875000D02*
X103445000Y-77875000D01*
X105368999Y-133700001D02*
X163846999Y-133700001D01*
X105588000Y-80018000D02*
X106260000Y-80018000D01*
X103445000Y-113875000D02*
X105621000Y-116051000D01*
X212101400Y-75793600D02*
X198490162Y-75793600D01*
X192217949Y-111731359D02*
X185426654Y-118522654D01*
X103445000Y-113875000D02*
X103445000Y-95875000D01*
X103445000Y-95875000D02*
X105544239Y-97974239D01*
X163846999Y-133700001D02*
X164143989Y-133403011D01*
X103445000Y-131875000D02*
X103543998Y-131875000D01*
G04 #@! TO.N,Net-(D7-Pad2)*
X108900001Y-77500001D02*
X112319999Y-77500001D01*
X114145000Y-72442000D02*
X114118000Y-72415000D01*
X115755000Y-72415000D02*
X115760000Y-72410000D01*
X106260000Y-74860000D02*
X108900001Y-77500001D01*
X112319999Y-77500001D02*
X114145000Y-75675000D01*
X114145000Y-75675000D02*
X114145000Y-72442000D01*
X114118000Y-72415000D02*
X115755000Y-72415000D01*
G04 #@! TO.N,Net-(D8-Pad2)*
X115721000Y-90415000D02*
X115726000Y-90410000D01*
X108785001Y-95500001D02*
X112319999Y-95500001D01*
X114145000Y-93675000D02*
X114145000Y-90442000D01*
X114118000Y-90415000D02*
X115721000Y-90415000D01*
X114145000Y-90442000D02*
X114118000Y-90415000D01*
X106226000Y-92941000D02*
X108785001Y-95500001D01*
X112319999Y-95500001D02*
X114145000Y-93675000D01*
G04 #@! TO.N,Net-(D9-Pad2)*
X108796001Y-113500001D02*
X112319999Y-113500001D01*
X106226000Y-110930000D02*
X108796001Y-113500001D01*
X112319999Y-113500001D02*
X114145000Y-111675000D01*
X114145000Y-108442000D02*
X114118000Y-108415000D01*
X115688000Y-108439000D02*
X114142000Y-108439000D01*
X114142000Y-108439000D02*
X114118000Y-108415000D01*
X114145000Y-111675000D02*
X114145000Y-108442000D01*
G04 #@! TO.N,Net-(D10-Pad2)*
X106226000Y-128934000D02*
X108792001Y-131500001D01*
X114123000Y-126410000D02*
X114118000Y-126415000D01*
X108792001Y-131500001D02*
X112319999Y-131500001D01*
X112319999Y-131500001D02*
X114145000Y-129675000D01*
X114145000Y-126442000D02*
X114118000Y-126415000D01*
X114145000Y-129675000D02*
X114145000Y-126442000D01*
X115653000Y-126410000D02*
X114123000Y-126410000D01*
G04 #@! TO.N,Net-(D11-Pad2)*
X125379000Y-52107000D02*
X128010001Y-54738001D01*
X134726000Y-49690000D02*
X134731000Y-49695000D01*
X131319999Y-54738001D02*
X133145000Y-52913000D01*
X133145000Y-52913000D02*
X133145000Y-49702000D01*
X128010001Y-54738001D02*
X131319999Y-54738001D01*
X133133000Y-49690000D02*
X134726000Y-49690000D01*
X133145000Y-49702000D02*
X133133000Y-49690000D01*
G04 #@! TO.N,/col2*
X122445000Y-55113000D02*
X124597000Y-57265000D01*
X192667959Y-82490641D02*
X192667959Y-108172400D01*
X197220162Y-79603600D02*
X195555000Y-79603600D01*
X122445000Y-109113000D02*
X122445000Y-91113000D01*
X122445000Y-73113000D02*
X124544858Y-75212858D01*
X122445000Y-127113000D02*
X122445000Y-130238991D01*
X122445000Y-127113000D02*
X124542616Y-129210616D01*
X122445000Y-91113000D02*
X124544412Y-93212412D01*
X163466599Y-133249991D02*
X163693979Y-133022611D01*
X163693979Y-133022611D02*
X163693980Y-124473223D01*
X170716671Y-117450532D02*
X183423047Y-117450532D01*
X124544823Y-111212823D02*
X125272441Y-111212823D01*
X124544858Y-75212858D02*
X125269643Y-75212858D01*
X192667959Y-112306655D02*
X187149307Y-117825307D01*
X122445000Y-127113000D02*
X122445000Y-109113000D01*
X122445000Y-73113000D02*
X122445000Y-55113000D01*
X124597000Y-57265000D02*
X125230000Y-57265000D01*
X198490162Y-78333600D02*
X197220162Y-79603600D01*
X212101400Y-78333600D02*
X198490162Y-78333600D01*
X122445000Y-130238991D02*
X125456000Y-133249991D01*
X122445000Y-109113000D02*
X124544823Y-111212823D01*
X163693980Y-124473223D02*
X170716671Y-117450532D01*
X124544412Y-93212412D02*
X125195208Y-93212412D01*
X122445000Y-91113000D02*
X122445000Y-73113000D01*
X125456000Y-133249991D02*
X163466599Y-133249991D01*
X192667959Y-108172400D02*
X192667959Y-112306655D01*
X195555000Y-79603600D02*
X192667959Y-82490641D01*
X124542616Y-129210616D02*
X125345079Y-129210616D01*
G04 #@! TO.N,Net-(D12-Pad2)*
X134684000Y-67690000D02*
X134695000Y-67679000D01*
X127821001Y-72738001D02*
X131319999Y-72738001D01*
X133145000Y-67702000D02*
X133133000Y-67690000D01*
X133133000Y-67690000D02*
X134684000Y-67690000D01*
X133145000Y-70913000D02*
X133145000Y-67702000D01*
X125306000Y-70223000D02*
X127821001Y-72738001D01*
X131319999Y-72738001D02*
X133145000Y-70913000D01*
G04 #@! TO.N,Net-(D13-Pad2)*
X133145000Y-88913000D02*
X133145000Y-85702000D01*
X133133000Y-85690000D02*
X134667000Y-85690000D01*
X127691001Y-90738001D02*
X131319999Y-90738001D01*
X133145000Y-85702000D02*
X133133000Y-85690000D01*
X131319999Y-90738001D02*
X133145000Y-88913000D01*
X125270000Y-88317000D02*
X127691001Y-90738001D01*
X134667000Y-85690000D02*
X134696000Y-85719000D01*
G04 #@! TO.N,Net-(D14-Pad2)*
X125233000Y-106053000D02*
X127918001Y-108738001D01*
X133145000Y-106913000D02*
X133145000Y-103702000D01*
X131319999Y-108738001D02*
X133145000Y-106913000D01*
X134731000Y-103690000D02*
X134733000Y-103688000D01*
X133133000Y-103690000D02*
X134731000Y-103690000D01*
X127918001Y-108738001D02*
X131319999Y-108738001D01*
X133145000Y-103702000D02*
X133133000Y-103690000D01*
G04 #@! TO.N,Net-(D15-Pad2)*
X125270000Y-124178000D02*
X127830001Y-126738001D01*
X133145000Y-124913000D02*
X133145000Y-121702000D01*
X127830001Y-126738001D02*
X131319999Y-126738001D01*
X131319999Y-126738001D02*
X133145000Y-124913000D01*
X133145000Y-121702000D02*
X133133000Y-121690000D01*
X134725000Y-121690000D02*
X134733000Y-121698000D01*
X133133000Y-121690000D02*
X134725000Y-121690000D01*
G04 #@! TO.N,Net-(D16-Pad2)*
X152150000Y-47345000D02*
X153762000Y-47345000D01*
X146982001Y-52357001D02*
X150319999Y-52357001D01*
X153762000Y-47345000D02*
X153785000Y-47322000D01*
X152145000Y-47350000D02*
X152150000Y-47345000D01*
X144396000Y-49771000D02*
X146982001Y-52357001D01*
X150319999Y-52357001D02*
X152145000Y-50532000D01*
X152145000Y-50532000D02*
X152145000Y-47350000D01*
G04 #@! TO.N,/col3*
X143591000Y-72878000D02*
X144287000Y-72878000D01*
X153619000Y-130883000D02*
X152764000Y-130883000D01*
X193117969Y-88387811D02*
X193117969Y-107986000D01*
X163044999Y-127341003D02*
X163044999Y-116373999D01*
X141445000Y-88732000D02*
X143544059Y-90831059D01*
X141445000Y-70732000D02*
X141445000Y-52732000D01*
X163044999Y-116373999D02*
X164513999Y-114904999D01*
X144133000Y-109781000D02*
X144107000Y-109755000D01*
X151768001Y-121591001D02*
X151768001Y-114953999D01*
X212101400Y-80873600D02*
X198490162Y-80873600D01*
X143642000Y-54929000D02*
X144211000Y-54929000D01*
X144155000Y-109781000D02*
X144133000Y-109781000D01*
X141445000Y-70732000D02*
X143591000Y-72878000D01*
X195555000Y-82143600D02*
X193117969Y-84580631D01*
X186113616Y-119934000D02*
X179795000Y-119934000D01*
X198490162Y-80873600D02*
X197220162Y-82143600D01*
X147045000Y-112671000D02*
X144155000Y-109781000D01*
X197220162Y-82143600D02*
X195555000Y-82143600D01*
X193117969Y-112929647D02*
X186113616Y-119934000D01*
X141445000Y-52732000D02*
X143642000Y-54929000D01*
X151768001Y-114953999D02*
X149746002Y-112932000D01*
X141445000Y-88732000D02*
X141445000Y-70732000D01*
X149746002Y-112932000D02*
X147045000Y-112932000D01*
X172963999Y-114904999D02*
X174144000Y-116085000D01*
X150641000Y-128760000D02*
X150641000Y-122718002D01*
X193117969Y-107986000D02*
X193117969Y-112929647D01*
X150641000Y-122718002D02*
X151768001Y-121591001D01*
X164513999Y-114904999D02*
X172963999Y-114904999D01*
X147045000Y-112932000D02*
X147045000Y-112671000D01*
X144155000Y-109781000D02*
X141445000Y-107071000D01*
X152764000Y-130883000D02*
X150641000Y-128760000D01*
X153619000Y-130883000D02*
X159503002Y-130883000D01*
X141445000Y-107071000D02*
X141445000Y-106732000D01*
X193117969Y-84580631D02*
X193117969Y-88387811D01*
X141445000Y-106732000D02*
X141445000Y-88732000D01*
X143544059Y-90831059D02*
X144182069Y-90831059D01*
X159503002Y-130883000D02*
X163044999Y-127341003D01*
G04 #@! TO.N,Net-(D17-Pad2)*
X146962001Y-70357001D02*
X150319999Y-70357001D01*
X153715000Y-65345000D02*
X153751000Y-65381000D01*
X152145000Y-68532000D02*
X152145000Y-65350000D01*
X150319999Y-70357001D02*
X152145000Y-68532000D01*
X144399000Y-67794000D02*
X146962001Y-70357001D01*
X152145000Y-65350000D02*
X152150000Y-65345000D01*
X152150000Y-65345000D02*
X153715000Y-65345000D01*
G04 #@! TO.N,Net-(D18-Pad2)*
X152145000Y-86532000D02*
X152145000Y-83350000D01*
X153725000Y-83345000D02*
X153758000Y-83378000D01*
X144294000Y-85716000D02*
X146935001Y-88357001D01*
X150319999Y-88357001D02*
X152145000Y-86532000D01*
X146935001Y-88357001D02*
X150319999Y-88357001D01*
X152145000Y-83350000D02*
X152150000Y-83345000D01*
X152150000Y-83345000D02*
X153725000Y-83345000D01*
G04 #@! TO.N,Net-(D19-Pad2)*
X146758001Y-106357001D02*
X150319999Y-106357001D01*
X152145000Y-101350000D02*
X152150000Y-101345000D01*
X152150000Y-101345000D02*
X153561000Y-101345000D01*
X150319999Y-106357001D02*
X152145000Y-104532000D01*
X144255000Y-103854000D02*
X146758001Y-106357001D01*
X153561000Y-101345000D02*
X153644000Y-101428000D01*
X152145000Y-104532000D02*
X152145000Y-101350000D01*
G04 #@! TO.N,Net-(D20-Pad2)*
X136345000Y-116482000D02*
X136932000Y-117069000D01*
X155834001Y-128385001D02*
X153396000Y-125947000D01*
X145146997Y-116806999D02*
X149202998Y-120863000D01*
X143010998Y-117069000D02*
X143272999Y-116806999D01*
X150793000Y-120856000D02*
X149433000Y-120856000D01*
X159515999Y-128385001D02*
X155834001Y-128385001D01*
X149433000Y-120856000D02*
X149426000Y-120863000D01*
X161341000Y-126560000D02*
X159515999Y-128385001D01*
X136345000Y-115132000D02*
X136345000Y-116482000D01*
X143272999Y-116806999D02*
X145146997Y-116806999D01*
X136932000Y-117069000D02*
X143010998Y-117069000D01*
X149202998Y-120863000D02*
X149426000Y-120863000D01*
G04 #@! TO.N,Net-(D21-Pad2)*
X171145000Y-49740000D02*
X171132000Y-49727000D01*
X163258000Y-52177000D02*
X165819001Y-54738001D01*
X171132000Y-49727000D02*
X172647000Y-49727000D01*
X171145000Y-52913000D02*
X171145000Y-49740000D01*
X169319999Y-54738001D02*
X171145000Y-52913000D01*
X165819001Y-54738001D02*
X169319999Y-54738001D01*
G04 #@! TO.N,/col4*
X197220162Y-84683600D02*
X195555000Y-84683600D01*
X162621000Y-93289000D02*
X163332000Y-93289000D01*
X189019719Y-122789174D02*
X188900022Y-122908871D01*
X193725871Y-109743985D02*
X195868366Y-110979534D01*
X160445000Y-73113000D02*
X160445000Y-55113000D01*
X180679871Y-122908871D02*
X180679871Y-122850319D01*
X160445000Y-109113000D02*
X160445000Y-94691000D01*
X180679871Y-124526450D02*
X180679871Y-122908871D01*
X195555000Y-84683600D02*
X193567979Y-86670621D01*
X160445000Y-55113000D02*
X162544959Y-57212959D01*
X195868366Y-110979534D02*
X189019719Y-122789174D01*
X165991999Y-110938001D02*
X162270001Y-110938001D01*
X160445000Y-94691000D02*
X160445000Y-91113000D01*
X212101400Y-83413600D02*
X198490162Y-83413600D01*
X162270001Y-110938001D02*
X160445000Y-109113000D01*
X188900022Y-122908871D02*
X180679871Y-122908871D01*
X193567979Y-86670621D02*
X193567980Y-109586093D01*
X160445000Y-91113000D02*
X160445000Y-73113000D01*
X198490162Y-83413600D02*
X197220162Y-84683600D01*
X162544959Y-57212959D02*
X163258401Y-57212959D01*
X162544380Y-75212380D02*
X163296079Y-75212380D01*
X160445000Y-73113000D02*
X162544380Y-75212380D01*
X180679871Y-122850319D02*
X177746276Y-119916724D01*
X160445000Y-91113000D02*
X162621000Y-93289000D01*
X193567980Y-109586093D02*
X193725871Y-109743985D01*
G04 #@! TO.N,Net-(D22-Pad2)*
X163183000Y-70121000D02*
X165800001Y-72738001D01*
X171132000Y-67727000D02*
X172703000Y-67727000D01*
X172703000Y-67727000D02*
X172721000Y-67709000D01*
X171145000Y-67740000D02*
X171132000Y-67727000D01*
X171145000Y-70913000D02*
X171145000Y-67740000D01*
X165800001Y-72738001D02*
X169319999Y-72738001D01*
X169319999Y-72738001D02*
X171145000Y-70913000D01*
G04 #@! TO.N,Net-(D23-Pad2)*
X171145000Y-88913000D02*
X171145000Y-85740000D01*
X163221000Y-88131000D02*
X165828001Y-90738001D01*
X171132000Y-85727000D02*
X172714000Y-85727000D01*
X165828001Y-90738001D02*
X169319999Y-90738001D01*
X171145000Y-85740000D02*
X171132000Y-85727000D01*
X169319999Y-90738001D02*
X171145000Y-88913000D01*
X172714000Y-85727000D02*
X172722000Y-85719000D01*
G04 #@! TO.N,Net-(D24-Pad2)*
X163371000Y-106359000D02*
X165750001Y-108738001D01*
X172647000Y-103727000D02*
X172649000Y-103725000D01*
X171145000Y-106913000D02*
X171145000Y-103740000D01*
X171145000Y-103740000D02*
X171132000Y-103727000D01*
X169319999Y-108738001D02*
X171145000Y-106913000D01*
X165750001Y-108738001D02*
X169319999Y-108738001D01*
X171132000Y-103727000D02*
X172647000Y-103727000D01*
G04 #@! TO.N,Net-(D25-Pad2)*
X170313399Y-121081706D02*
X170313399Y-122721234D01*
X168105805Y-125556805D02*
X168844000Y-126295000D01*
X167712500Y-125556805D02*
X168105805Y-125556805D01*
X172848165Y-125256000D02*
X176897000Y-125256000D01*
X170313399Y-122955906D02*
X167712500Y-125556805D01*
X170313399Y-121081706D02*
X170313399Y-122955906D01*
X170313399Y-122721234D02*
X172848165Y-125256000D01*
G04 #@! TO.N,Net-(D26-Pad2)*
X178370001Y-44868999D02*
X188352999Y-44868999D01*
X184061000Y-58331000D02*
X184061000Y-58091002D01*
X174345000Y-48894000D02*
X178370001Y-44868999D01*
X188352999Y-44868999D02*
X189862000Y-46378000D01*
X184061000Y-58091002D02*
X185043501Y-57108501D01*
G04 #@! TO.N,/col5*
X182535500Y-79584500D02*
X179445000Y-76494000D01*
X179445000Y-76494000D02*
X179445000Y-71953000D01*
X179445000Y-71953000D02*
X179445000Y-52294000D01*
X199760162Y-87223600D02*
X195555000Y-87223600D01*
X181581499Y-86260499D02*
X185045000Y-82796998D01*
X185045000Y-82694000D02*
X185045000Y-82094000D01*
X194017989Y-88760611D02*
X194017989Y-109306521D01*
X197264871Y-132435319D02*
X194281776Y-129452224D01*
X194017989Y-109306521D02*
X194095058Y-109383590D01*
X182249000Y-49490000D02*
X185045000Y-46694000D01*
X201030162Y-85953600D02*
X199760162Y-87223600D01*
X179445000Y-88396998D02*
X181581499Y-86260499D01*
X185045000Y-82796998D02*
X185045000Y-82694000D01*
X196483954Y-110815060D02*
X188270000Y-124979000D01*
X179445000Y-112494000D02*
X181634000Y-114683000D01*
X197264871Y-134111450D02*
X197264871Y-132435319D01*
X188270000Y-125477000D02*
X188270000Y-124979000D01*
X194112155Y-109447273D02*
X196483954Y-110815060D01*
X195555000Y-87223600D02*
X194017989Y-88760611D01*
X185045000Y-82094000D02*
X182535500Y-79584500D01*
X194095058Y-109383590D02*
X194112155Y-109447273D01*
X181634000Y-114683000D02*
X182299000Y-114683000D01*
X179445000Y-52294000D02*
X182249000Y-49490000D01*
X212101400Y-85953600D02*
X201030162Y-85953600D01*
X188270000Y-124979000D02*
X188270000Y-123789001D01*
X179445000Y-111304998D02*
X179445000Y-112494000D01*
X179445000Y-112494000D02*
X179445000Y-88396998D01*
G04 #@! TO.N,Net-(D27-Pad2)*
X174428000Y-71338000D02*
X174431000Y-71335000D01*
X173088000Y-71338000D02*
X174428000Y-71338000D01*
X182180000Y-73754000D02*
X184545001Y-76119001D01*
X184545001Y-76119001D02*
X188319999Y-76119001D01*
X188319999Y-76119001D02*
X190145000Y-74294000D01*
G04 #@! TO.N,Net-(D28-Pad2)*
X174259000Y-81902000D02*
X175541000Y-81902000D01*
X176170001Y-86719001D02*
X179778999Y-86719001D01*
X179778999Y-86719001D02*
X181587000Y-84911000D01*
X174345000Y-84894000D02*
X176170001Y-86719001D01*
X175541000Y-81902000D02*
X175575000Y-81868000D01*
X174345000Y-81988000D02*
X174259000Y-81902000D01*
X174345000Y-84894000D02*
X174345000Y-81988000D01*
G04 #@! TO.N,Net-(D29-Pad2)*
X188319999Y-112119001D02*
X190145000Y-110294000D01*
X173244000Y-107377000D02*
X174389000Y-107377000D01*
X184746001Y-112119001D02*
X188319999Y-112119001D01*
X174389000Y-107377000D02*
X174431000Y-107335000D01*
X182225000Y-109598000D02*
X184746001Y-112119001D01*
G04 #@! TO.N,Net-(D32-Pad2)*
X212538399Y-126437906D02*
X210003500Y-128972805D01*
X210171805Y-128972805D02*
X210857000Y-129658000D01*
X212538399Y-124517706D02*
X212538399Y-126157234D01*
X210003500Y-128972805D02*
X210171805Y-128972805D01*
X215000165Y-128619000D02*
X219133000Y-128619000D01*
X212538399Y-126157234D02*
X215000165Y-128619000D01*
X212538399Y-124517706D02*
X212538399Y-126437906D01*
G04 #@! TO.N,/col6*
X194467999Y-109120121D02*
X194498439Y-109150561D01*
X221511651Y-124733323D02*
X205028773Y-115223274D01*
X195555000Y-89763600D02*
X194467999Y-90850601D01*
X213834871Y-143680450D02*
X222904871Y-127962450D01*
X206334871Y-116529372D02*
X205028773Y-115223274D01*
X194467999Y-90850601D02*
X194467999Y-109120121D01*
X197220162Y-89763600D02*
X195555000Y-89763600D01*
X222904871Y-127962450D02*
X222904871Y-126126543D01*
X213834871Y-143680450D02*
X213834871Y-141897494D01*
X206334871Y-118400450D02*
X206334871Y-116529372D01*
X198490162Y-88493600D02*
X197220162Y-89763600D01*
X205028773Y-115223274D02*
X194498439Y-109150561D01*
X222904871Y-126126543D02*
X221511651Y-124733323D01*
X212101400Y-88493600D02*
X198490162Y-88493600D01*
X213834871Y-141897494D02*
X212330147Y-140392770D01*
G04 #@! TO.N,Net-(D33-Pad2)*
X201810000Y-145328000D02*
X201540695Y-145328000D01*
X206253165Y-144660000D02*
X203468399Y-141875234D01*
X203468399Y-142113906D02*
X200897500Y-144684805D01*
X201540695Y-145328000D02*
X200897500Y-144684805D01*
X210160000Y-144660000D02*
X206253165Y-144660000D01*
X203468399Y-140235706D02*
X203468399Y-142113906D01*
X203468399Y-141875234D02*
X203468399Y-140235706D01*
G04 #@! TO.N,GND*
X212101400Y-65633600D02*
X209335600Y-65633600D01*
G04 #@! TO.N,/RST*
X212101400Y-68173600D02*
X213188401Y-69260601D01*
X206495501Y-95504499D02*
X205004499Y-96995501D01*
X210504499Y-95504499D02*
X206495501Y-95504499D01*
X205004499Y-96995501D02*
X205004499Y-101004499D01*
X197220162Y-69443600D02*
X195555000Y-69443600D01*
X213188401Y-69260601D02*
X213188401Y-92820597D01*
X205004499Y-101004499D02*
X205000000Y-101008998D01*
X213188401Y-92820597D02*
X210504499Y-95504499D01*
X205000000Y-104816000D02*
X202365000Y-107451000D01*
X205000000Y-101008998D02*
X205000000Y-104816000D01*
X198490162Y-68173600D02*
X197220162Y-69443600D01*
X212101400Y-68173600D02*
X198490162Y-68173600D01*
G04 #@! TO.N,Net-(BSW1-Pad2)*
X210075001Y-107152999D02*
X210075001Y-102175001D01*
X209141000Y-108087000D02*
X210075001Y-107152999D01*
X210075001Y-102175001D02*
X209000000Y-101100000D01*
G04 #@! TO.N,+BATT*
X197151400Y-64363600D02*
X195555000Y-64363600D01*
X198421400Y-63093600D02*
X197151400Y-64363600D01*
X212101400Y-63093600D02*
X198421400Y-63093600D01*
G04 #@! TO.N,/row0*
X133135000Y-44536000D02*
X133135000Y-46138000D01*
X210795000Y-79603600D02*
X198936600Y-79603600D01*
X95097000Y-49361000D02*
X95097000Y-50844000D01*
X133135000Y-46138000D02*
X133133000Y-46140000D01*
X171125000Y-44738000D02*
X171125000Y-46170000D01*
X180511000Y-56993000D02*
X180510000Y-56992000D01*
X152152000Y-42089000D02*
X152152000Y-43793000D01*
X198936600Y-79603600D02*
X198878000Y-79545000D01*
X95097000Y-50844000D02*
X95118000Y-50865000D01*
X171125000Y-46170000D02*
X171132000Y-46177000D01*
X180511000Y-58331000D02*
X180511000Y-56993000D01*
X152152000Y-43793000D02*
X152150000Y-43795000D01*
X114127000Y-49289000D02*
X114127000Y-50856000D01*
X114127000Y-50856000D02*
X114118000Y-50865000D01*
G04 #@! TO.N,/row1*
X174431000Y-67785000D02*
X174431000Y-66335000D01*
X198989400Y-82143600D02*
X198878000Y-82255000D01*
X133137000Y-64136000D02*
X133133000Y-64140000D01*
X95118000Y-67470000D02*
X95097000Y-67449000D01*
X171125000Y-62625000D02*
X171125000Y-64170000D01*
X171125000Y-64170000D02*
X171132000Y-64177000D01*
X152155000Y-60186000D02*
X152155000Y-61790000D01*
X95118000Y-68865000D02*
X95118000Y-67470000D01*
X133137000Y-62595000D02*
X133137000Y-64136000D01*
X114127000Y-68856000D02*
X114118000Y-68865000D01*
X210795000Y-82143600D02*
X198989400Y-82143600D01*
X152155000Y-61790000D02*
X152150000Y-61795000D01*
X174431000Y-66335000D02*
X174424000Y-66328000D01*
X114127000Y-67215000D02*
X114127000Y-68856000D01*
G04 #@! TO.N,/row2*
X174239000Y-78332000D02*
X174259000Y-78352000D01*
X189637000Y-88258000D02*
X190293000Y-88914000D01*
X152125000Y-79770000D02*
X152150000Y-79795000D01*
X133137000Y-80561000D02*
X133137000Y-82136000D01*
X114093000Y-85215000D02*
X114093000Y-86840000D01*
X95096000Y-85328000D02*
X95096000Y-86843000D01*
X133137000Y-82136000D02*
X133133000Y-82140000D01*
X171132000Y-82177000D02*
X171132000Y-80641000D01*
X190863000Y-123165695D02*
X191590500Y-122438195D01*
X95096000Y-86843000D02*
X95118000Y-86865000D01*
X190863000Y-123789000D02*
X190863000Y-123165695D01*
X210795000Y-84683600D02*
X198903600Y-84683600D01*
X171132000Y-80641000D02*
X171126000Y-80635000D01*
X174239000Y-76784000D02*
X174239000Y-78332000D01*
X114093000Y-86840000D02*
X114118000Y-86865000D01*
X189637000Y-87429000D02*
X189637000Y-88258000D01*
X152125000Y-78219000D02*
X152125000Y-79770000D01*
G04 #@! TO.N,/row3*
X133137000Y-98529000D02*
X133137000Y-100136000D01*
X208994305Y-132813000D02*
X208228500Y-132047195D01*
X210795000Y-87223600D02*
X201016400Y-87223600D01*
X174431000Y-103785000D02*
X174431000Y-102219000D01*
X201016400Y-87223600D02*
X200974000Y-87266000D01*
X171127000Y-100172000D02*
X171132000Y-100177000D01*
X114118000Y-103367000D02*
X114130000Y-103355000D01*
X174431000Y-102219000D02*
X174432000Y-102218000D01*
X133137000Y-100136000D02*
X133133000Y-100140000D01*
X114118000Y-104865000D02*
X114118000Y-103367000D01*
X209150000Y-132813000D02*
X208994305Y-132813000D01*
X95118000Y-103445000D02*
X95152000Y-103411000D01*
X95118000Y-104865000D02*
X95118000Y-103445000D01*
X152123000Y-97768000D02*
X152150000Y-97795000D01*
X171127000Y-98677000D02*
X171127000Y-100172000D01*
X152123000Y-96233000D02*
X152123000Y-97768000D01*
G04 #@! TO.N,/row4*
X184084512Y-133957378D02*
X182530500Y-135511390D01*
X186800000Y-121516000D02*
X186749000Y-121516000D01*
X147243000Y-120856000D02*
X146167000Y-120856000D01*
X165319000Y-129249695D02*
X165937500Y-128631195D01*
X184084512Y-126430488D02*
X184084512Y-133957378D01*
X165319000Y-129858000D02*
X165319000Y-129249695D01*
X186749000Y-123766000D02*
X184084512Y-126430488D01*
X199122500Y-147759195D02*
X199122500Y-148238500D01*
X191042939Y-89648000D02*
X191042939Y-89674061D01*
X114118000Y-122865000D02*
X114118000Y-121265000D01*
X182530500Y-138569500D02*
X181937000Y-139163000D01*
X199122500Y-148238500D02*
X198321000Y-149040000D01*
X95152000Y-121284000D02*
X95152000Y-122831000D01*
X95152000Y-122831000D02*
X95118000Y-122865000D01*
X198579400Y-89763600D02*
X198571000Y-89772000D01*
X146167000Y-120856000D02*
X146160000Y-120863000D01*
X182530500Y-135511390D02*
X182530500Y-138157195D01*
X210795000Y-89763600D02*
X198579400Y-89763600D01*
X133137000Y-116540000D02*
X133137000Y-118136000D01*
X182530500Y-138157195D02*
X182530500Y-138569500D01*
X191042939Y-89674061D02*
X189331000Y-91386000D01*
X114118000Y-121265000D02*
X114131000Y-121252000D01*
X133137000Y-118136000D02*
X133133000Y-118140000D01*
X189305000Y-119011000D02*
X186800000Y-121516000D01*
G04 #@! TO.N,Net-(D31-Pad2)*
X195968399Y-116760906D02*
X193365500Y-119363805D01*
X197911862Y-119262000D02*
X202553000Y-119262000D01*
X195968399Y-114955706D02*
X195968399Y-116760906D01*
X193365500Y-119363805D02*
X193673805Y-119363805D01*
X195968399Y-117318537D02*
X197911862Y-119262000D01*
X195968399Y-114955706D02*
X195968399Y-117318537D01*
X193673805Y-119363805D02*
X194574000Y-120264000D01*
G04 #@! TO.N,Net-(D30-Pad2)*
X186898399Y-132489906D02*
X184305500Y-135082805D01*
X185045695Y-135823000D02*
X184305500Y-135082805D01*
X185277000Y-135823000D02*
X185045695Y-135823000D01*
X186898399Y-132306234D02*
X189413165Y-134821000D01*
X186898399Y-130666706D02*
X186898399Y-132306234D01*
X186898399Y-130666706D02*
X186898399Y-132489906D01*
X189413165Y-134821000D02*
X193552000Y-134821000D01*
G04 #@! TO.N,Net-(U3-Pad1)*
X199036600Y-64363600D02*
X199031000Y-64358000D01*
X210795000Y-64363600D02*
X199036600Y-64363600D01*
G04 #@! TO.N,Net-(U3-Pad2)*
X210795000Y-66903600D02*
X199070600Y-66903600D01*
X199070600Y-66903600D02*
X199031000Y-66864000D01*
G04 #@! TO.N,Net-(U3-Pad5)*
X210795000Y-74523600D02*
X198969600Y-74523600D01*
X198969600Y-74523600D02*
X198929000Y-74483000D01*
G04 #@! TO.N,Net-(U3-Pad6)*
X210795000Y-77063600D02*
X198953600Y-77063600D01*
X198953600Y-77063600D02*
X198878000Y-76988000D01*
G04 #@! TO.N,Net-(U3-Pad12)*
X196881400Y-91033600D02*
X205864600Y-91033600D01*
X205864600Y-91033600D02*
X205883000Y-91052000D01*
G04 #@! TO.N,Net-(U3-Pad13)*
X206051398Y-92303600D02*
X195555000Y-92303600D01*
X212101400Y-91033600D02*
X207321398Y-91033600D01*
X207321398Y-91033600D02*
X206051398Y-92303600D01*
G04 #@! TO.N,VCC*
X212101400Y-70713600D02*
X199067400Y-70713600D01*
X199067400Y-70713600D02*
X198980000Y-70801000D01*
G04 #@! TD*
G04 #@! TA.AperFunction,Conductor*
G04 #@! TO.N,GND*
G36*
X209542748Y-91676267D02*
G01*
X209583950Y-91703797D01*
X209611480Y-91744999D01*
X209621147Y-91793600D01*
X209611480Y-91842201D01*
X209573805Y-91933155D01*
X209525000Y-92178517D01*
X209525000Y-92428682D01*
X209573805Y-92674044D01*
X209669540Y-92905168D01*
X209808527Y-93113176D01*
X209985423Y-93290072D01*
X210193431Y-93429059D01*
X210424555Y-93524794D01*
X210669917Y-93573600D01*
X210920083Y-93573600D01*
X211165444Y-93524794D01*
X211298639Y-93469623D01*
X211347240Y-93459956D01*
X211395840Y-93469623D01*
X211437042Y-93497153D01*
X211464573Y-93538355D01*
X211474240Y-93586956D01*
X211464573Y-93635556D01*
X211437043Y-93676758D01*
X211437043Y-93676759D01*
X210279501Y-94834302D01*
X210238299Y-94861832D01*
X210189698Y-94871499D01*
X206532823Y-94871499D01*
X206520375Y-94870887D01*
X206495500Y-94868437D01*
X206470625Y-94870887D01*
X206470607Y-94870887D01*
X206371416Y-94880657D01*
X206252089Y-94916854D01*
X206142121Y-94975633D01*
X206045736Y-95054734D01*
X206029874Y-95074064D01*
X206021505Y-95083299D01*
X204583305Y-96521500D01*
X204574070Y-96529869D01*
X204554734Y-96545736D01*
X204475633Y-96642121D01*
X204416854Y-96752089D01*
X204380657Y-96871417D01*
X204370888Y-96970606D01*
X204370887Y-96970628D01*
X204368437Y-96995501D01*
X204370887Y-97020376D01*
X204371499Y-97032824D01*
X204371500Y-100925978D01*
X204370888Y-100938427D01*
X204366388Y-100984115D01*
X204366388Y-100984125D01*
X204363938Y-101008998D01*
X204366388Y-101033873D01*
X204367000Y-101046321D01*
X204367001Y-104501197D01*
X204357334Y-104549798D01*
X204329804Y-104591000D01*
X202946179Y-105974626D01*
X202904977Y-106002156D01*
X202856376Y-106011823D01*
X202807776Y-106002156D01*
X202804869Y-106000951D01*
X202513524Y-105943000D01*
X202216476Y-105943000D01*
X201925133Y-106000951D01*
X201650692Y-106114628D01*
X201403708Y-106279658D01*
X201193658Y-106489708D01*
X201028628Y-106736692D01*
X200914951Y-107011133D01*
X200857000Y-107302476D01*
X200857000Y-107599523D01*
X200914951Y-107890866D01*
X201028628Y-108165307D01*
X201193658Y-108412291D01*
X201403708Y-108622341D01*
X201650692Y-108787371D01*
X201925133Y-108901048D01*
X202216476Y-108959000D01*
X202513524Y-108959000D01*
X202804866Y-108901048D01*
X203079307Y-108787371D01*
X203326291Y-108622341D01*
X203536341Y-108412291D01*
X203701371Y-108165307D01*
X203815048Y-107890866D01*
X203873000Y-107599523D01*
X203873000Y-107343234D01*
X207629928Y-107343234D01*
X207629928Y-108830765D01*
X207645153Y-108985357D01*
X207688426Y-109128010D01*
X207758702Y-109259485D01*
X207853275Y-109374724D01*
X207968514Y-109469297D01*
X208099989Y-109539573D01*
X208242642Y-109582846D01*
X208397234Y-109598072D01*
X209884766Y-109598072D01*
X210039357Y-109582846D01*
X210182010Y-109539573D01*
X210313485Y-109469297D01*
X210428724Y-109374724D01*
X210523297Y-109259485D01*
X210593573Y-109128010D01*
X210636846Y-108985357D01*
X210652072Y-108830765D01*
X210652072Y-107448006D01*
X210659900Y-107408648D01*
X210659015Y-107408380D01*
X210698842Y-107277083D01*
X210708613Y-107177884D01*
X210708613Y-107177874D01*
X210711062Y-107152999D01*
X210708613Y-107128124D01*
X210708001Y-107115676D01*
X210708001Y-102212323D01*
X210708613Y-102199874D01*
X210711062Y-102175000D01*
X210708613Y-102150126D01*
X210708613Y-102150116D01*
X210698842Y-102050916D01*
X210662645Y-101931588D01*
X210603866Y-101821621D01*
X210524765Y-101725237D01*
X210505436Y-101709374D01*
X210496201Y-101701005D01*
X210266364Y-101471168D01*
X210238834Y-101429966D01*
X210229167Y-101381365D01*
X210231607Y-101356589D01*
X210258000Y-101223901D01*
X210258000Y-100976099D01*
X210209655Y-100733055D01*
X210114825Y-100504115D01*
X209977151Y-100298072D01*
X209801927Y-100122848D01*
X209595884Y-99985174D01*
X209552811Y-99967333D01*
X209511609Y-99939802D01*
X209484079Y-99898601D01*
X209474412Y-99850000D01*
X209484079Y-99801399D01*
X209511610Y-99760197D01*
X209552811Y-99732667D01*
X209595884Y-99714825D01*
X209801927Y-99577151D01*
X209977151Y-99401927D01*
X210114825Y-99195884D01*
X210209655Y-98966944D01*
X210258000Y-98723900D01*
X210258000Y-98476099D01*
X210209655Y-98233055D01*
X210114825Y-98004115D01*
X209977151Y-97798072D01*
X209801927Y-97622848D01*
X209595884Y-97485174D01*
X209366944Y-97390344D01*
X209123901Y-97342000D01*
X208876099Y-97342000D01*
X208633055Y-97390344D01*
X208404115Y-97485174D01*
X208198072Y-97622848D01*
X208022848Y-97798072D01*
X207885174Y-98004115D01*
X207790344Y-98233055D01*
X207742000Y-98476099D01*
X207742000Y-98723900D01*
X207790344Y-98966944D01*
X207885174Y-99195884D01*
X208022848Y-99401927D01*
X208198072Y-99577151D01*
X208404115Y-99714825D01*
X208447189Y-99732667D01*
X208488391Y-99760198D01*
X208515921Y-99801399D01*
X208525588Y-99850000D01*
X208515921Y-99898601D01*
X208488390Y-99939803D01*
X208447189Y-99967333D01*
X208404115Y-99985174D01*
X208198072Y-100122848D01*
X208022848Y-100298072D01*
X207885174Y-100504115D01*
X207790344Y-100733055D01*
X207742000Y-100976099D01*
X207742000Y-101223900D01*
X207790344Y-101466944D01*
X207885174Y-101695884D01*
X208022848Y-101901927D01*
X208198072Y-102077151D01*
X208404115Y-102214825D01*
X208447189Y-102232667D01*
X208488391Y-102260198D01*
X208515921Y-102301399D01*
X208525588Y-102350000D01*
X208515921Y-102398601D01*
X208488390Y-102439803D01*
X208447189Y-102467333D01*
X208404115Y-102485174D01*
X208198072Y-102622848D01*
X208022848Y-102798072D01*
X207885174Y-103004115D01*
X207790344Y-103233055D01*
X207742000Y-103476099D01*
X207742000Y-103723900D01*
X207790344Y-103966944D01*
X207885174Y-104195884D01*
X208022848Y-104401927D01*
X208198072Y-104577151D01*
X208404115Y-104714825D01*
X208633055Y-104809655D01*
X208876099Y-104858000D01*
X209123901Y-104858000D01*
X209290224Y-104824916D01*
X209339777Y-104824916D01*
X209385558Y-104843879D01*
X209420598Y-104878918D01*
X209439561Y-104924699D01*
X209442001Y-104949476D01*
X209442001Y-106448928D01*
X209432334Y-106497529D01*
X209404804Y-106538731D01*
X209363602Y-106566261D01*
X209315001Y-106575928D01*
X208397234Y-106575928D01*
X208242642Y-106591153D01*
X208099989Y-106634426D01*
X207968514Y-106704702D01*
X207853275Y-106799275D01*
X207758702Y-106914514D01*
X207688426Y-107045989D01*
X207645153Y-107188642D01*
X207629928Y-107343234D01*
X203873000Y-107343234D01*
X203873000Y-107302476D01*
X203815048Y-107011130D01*
X203813844Y-107008224D01*
X203804177Y-106959623D01*
X203813845Y-106911022D01*
X203841374Y-106869821D01*
X205421200Y-105289996D01*
X205430435Y-105281627D01*
X205449764Y-105265764D01*
X205528865Y-105169379D01*
X205587644Y-105059411D01*
X205623841Y-104940084D01*
X205633609Y-104840913D01*
X205633611Y-104840877D01*
X205636061Y-104816000D01*
X205633611Y-104791123D01*
X205633000Y-104778675D01*
X205633000Y-101087511D01*
X205633612Y-101075063D01*
X205640561Y-101004499D01*
X205638111Y-100979614D01*
X205637499Y-100967166D01*
X205637499Y-97310302D01*
X205647166Y-97261701D01*
X205674696Y-97220499D01*
X206720500Y-96174696D01*
X206761702Y-96147166D01*
X206810303Y-96137499D01*
X210467177Y-96137499D01*
X210479626Y-96138111D01*
X210504499Y-96140560D01*
X210529372Y-96138111D01*
X210529395Y-96138109D01*
X210628583Y-96128340D01*
X210747910Y-96092143D01*
X210857878Y-96033364D01*
X210954263Y-95954263D01*
X210970131Y-95934928D01*
X210978500Y-95925693D01*
X212910198Y-93993996D01*
X212951400Y-93966466D01*
X213000001Y-93956799D01*
X213048602Y-93966466D01*
X213089804Y-93993996D01*
X213117334Y-94035198D01*
X213127001Y-94083799D01*
X213127001Y-118944970D01*
X213117334Y-118993571D01*
X213089804Y-119034773D01*
X213048602Y-119062303D01*
X213000001Y-119071970D01*
X212951400Y-119062303D01*
X212936533Y-119054974D01*
X205959814Y-115029649D01*
X205922548Y-114996987D01*
X205905949Y-114968246D01*
X205833431Y-114793173D01*
X205734064Y-114644460D01*
X205607586Y-114517982D01*
X205458873Y-114418615D01*
X205293625Y-114350167D01*
X205118203Y-114315274D01*
X204939343Y-114315274D01*
X204824105Y-114338196D01*
X204774552Y-114338196D01*
X204735884Y-114323653D01*
X203884084Y-113832430D01*
X203749998Y-113755104D01*
X208332106Y-113755104D01*
X208382826Y-113895141D01*
X208614876Y-114008027D01*
X208902218Y-114083363D01*
X209198734Y-114101196D01*
X209493023Y-114060838D01*
X209776104Y-113963042D01*
X209898221Y-113897770D01*
X209949893Y-113755104D01*
X209141000Y-112946211D01*
X208332106Y-113755104D01*
X203749998Y-113755104D01*
X202023773Y-112759612D01*
X201824570Y-112644734D01*
X207626803Y-112644734D01*
X207667161Y-112939023D01*
X207764957Y-113222104D01*
X207830229Y-113344221D01*
X207972895Y-113395893D01*
X208781789Y-112587000D01*
X209500211Y-112587000D01*
X210309104Y-113395893D01*
X210449141Y-113345173D01*
X210562027Y-113113123D01*
X210637363Y-112825781D01*
X210655196Y-112529265D01*
X210614838Y-112234976D01*
X210517042Y-111951895D01*
X210451770Y-111829778D01*
X210309104Y-111778106D01*
X209500211Y-112587000D01*
X208781789Y-112587000D01*
X207972895Y-111778106D01*
X207832858Y-111828826D01*
X207719972Y-112060876D01*
X207644636Y-112348218D01*
X207626803Y-112644734D01*
X201824570Y-112644734D01*
X199946378Y-111561604D01*
X199698915Y-111418895D01*
X208332106Y-111418895D01*
X209141000Y-112227789D01*
X209949893Y-111418895D01*
X209899173Y-111278858D01*
X209667123Y-111165972D01*
X209379781Y-111090636D01*
X209083265Y-111072803D01*
X208788976Y-111113161D01*
X208505895Y-111210957D01*
X208383778Y-111276229D01*
X208332106Y-111418895D01*
X199698915Y-111418895D01*
X195164554Y-108803986D01*
X195127282Y-108771332D01*
X195105343Y-108726900D01*
X195100999Y-108693969D01*
X195100999Y-102119104D01*
X201556106Y-102119104D01*
X201606826Y-102259141D01*
X201838876Y-102372027D01*
X202126218Y-102447363D01*
X202422734Y-102465196D01*
X202717023Y-102424838D01*
X203000104Y-102327042D01*
X203122221Y-102261770D01*
X203173893Y-102119104D01*
X202365000Y-101310211D01*
X201556106Y-102119104D01*
X195100999Y-102119104D01*
X195100999Y-101008734D01*
X200850803Y-101008734D01*
X200891161Y-101303023D01*
X200988957Y-101586104D01*
X201054229Y-101708221D01*
X201196895Y-101759893D01*
X202005789Y-100951000D01*
X202724211Y-100951000D01*
X203533104Y-101759893D01*
X203673141Y-101709173D01*
X203786027Y-101477123D01*
X203861363Y-101189781D01*
X203879196Y-100893265D01*
X203838838Y-100598976D01*
X203741042Y-100315895D01*
X203675770Y-100193778D01*
X203533104Y-100142106D01*
X202724211Y-100951000D01*
X202005789Y-100951000D01*
X201196895Y-100142106D01*
X201056858Y-100192826D01*
X200943972Y-100424876D01*
X200868636Y-100712218D01*
X200850803Y-101008734D01*
X195100999Y-101008734D01*
X195100999Y-99782895D01*
X201556106Y-99782895D01*
X202365000Y-100591789D01*
X203173893Y-99782895D01*
X203123173Y-99642858D01*
X202891123Y-99529972D01*
X202603781Y-99454636D01*
X202307265Y-99436803D01*
X202012976Y-99477161D01*
X201729895Y-99574957D01*
X201607778Y-99640229D01*
X201556106Y-99782895D01*
X195100999Y-99782895D01*
X195100999Y-97285040D01*
X195110666Y-97236439D01*
X195138196Y-97195237D01*
X195179398Y-97167707D01*
X195227999Y-97158040D01*
X195240455Y-97158652D01*
X195244950Y-97159095D01*
X195245772Y-97159179D01*
X195249286Y-97159548D01*
X195307115Y-97165218D01*
X195307171Y-97165224D01*
X195335357Y-97168000D01*
X198792643Y-97168000D01*
X198816289Y-97165671D01*
X198819706Y-97165514D01*
X198827480Y-97164753D01*
X198854923Y-97161869D01*
X198855749Y-97161785D01*
X198879840Y-97159412D01*
X198884751Y-97158166D01*
X198936016Y-97147642D01*
X198937758Y-97147297D01*
X198994449Y-97136482D01*
X198997201Y-97135651D01*
X199046722Y-97120322D01*
X199100279Y-97097809D01*
X199101918Y-97097133D01*
X199155451Y-97075503D01*
X199157873Y-97074215D01*
X199203584Y-97049499D01*
X199251756Y-97017006D01*
X199253235Y-97016024D01*
X199301533Y-96984418D01*
X199303780Y-96982586D01*
X199343704Y-96949558D01*
X199384648Y-96908326D01*
X199385908Y-96907074D01*
X199427153Y-96866683D01*
X199428921Y-96864545D01*
X199461748Y-96824296D01*
X199493908Y-96775892D01*
X199494900Y-96774420D01*
X199527502Y-96726806D01*
X199528825Y-96724358D01*
X199553203Y-96678511D01*
X199575344Y-96624797D01*
X199576031Y-96623163D01*
X199598775Y-96570096D01*
X199599636Y-96567313D01*
X199614607Y-96517728D01*
X199625900Y-96460700D01*
X199626256Y-96458966D01*
X199638253Y-96402517D01*
X199638548Y-96399713D01*
X199644218Y-96341885D01*
X199644224Y-96341829D01*
X199647000Y-96313642D01*
X199647000Y-95368357D01*
X199644671Y-95344711D01*
X199644514Y-95341293D01*
X199643753Y-95333519D01*
X199640869Y-95306077D01*
X199640785Y-95305251D01*
X199638412Y-95281159D01*
X199637166Y-95276249D01*
X199626642Y-95224984D01*
X199626297Y-95223242D01*
X199615482Y-95166550D01*
X199614651Y-95163798D01*
X199599324Y-95114283D01*
X199576807Y-95060717D01*
X199576132Y-95059079D01*
X199554503Y-95005548D01*
X199553215Y-95003126D01*
X199528496Y-94957410D01*
X199495991Y-94909220D01*
X199495009Y-94907742D01*
X199463418Y-94859465D01*
X199461598Y-94857234D01*
X199428557Y-94817295D01*
X199387309Y-94776334D01*
X199386059Y-94775075D01*
X199345689Y-94733851D01*
X199343475Y-94732020D01*
X199303309Y-94699261D01*
X199254900Y-94667099D01*
X199253428Y-94666105D01*
X199205812Y-94633501D01*
X199203358Y-94632174D01*
X199157506Y-94607793D01*
X199103785Y-94585650D01*
X199102153Y-94584964D01*
X199049100Y-94562225D01*
X199046313Y-94561363D01*
X198996727Y-94546392D01*
X198939693Y-94535099D01*
X198937956Y-94534743D01*
X198881511Y-94522745D01*
X198878771Y-94522457D01*
X198820885Y-94516782D01*
X198820829Y-94516776D01*
X198792643Y-94514000D01*
X195335357Y-94514000D01*
X195311711Y-94516329D01*
X195308293Y-94516485D01*
X195300519Y-94517246D01*
X195273077Y-94520131D01*
X195272253Y-94520215D01*
X195240449Y-94523348D01*
X195191135Y-94518492D01*
X195147433Y-94495134D01*
X195115996Y-94456829D01*
X195101611Y-94409410D01*
X195100999Y-94396960D01*
X195100999Y-93662924D01*
X195110666Y-93614323D01*
X195138196Y-93573121D01*
X195179398Y-93545591D01*
X195227999Y-93535924D01*
X195252776Y-93538364D01*
X195429918Y-93573600D01*
X195680083Y-93573600D01*
X195925444Y-93524794D01*
X196156568Y-93429059D01*
X196364576Y-93290072D01*
X196541472Y-93113176D01*
X196621744Y-92993042D01*
X196656784Y-92958003D01*
X196702565Y-92939040D01*
X196727341Y-92936600D01*
X206014076Y-92936600D01*
X206026525Y-92937212D01*
X206051398Y-92939661D01*
X206076271Y-92937212D01*
X206076294Y-92937210D01*
X206175482Y-92927441D01*
X206294809Y-92891244D01*
X206404777Y-92832465D01*
X206501162Y-92753364D01*
X206517030Y-92734029D01*
X206525399Y-92724794D01*
X207546397Y-91703797D01*
X207587599Y-91676267D01*
X207636200Y-91666600D01*
X209494147Y-91666600D01*
X209542748Y-91676267D01*
G37*
G04 #@! TD.AperFunction*
G04 #@! TA.AperFunction,Conductor*
G36*
X191918804Y-58789294D02*
G01*
X191950958Y-58808409D01*
X192217656Y-59025921D01*
X192266079Y-59058094D01*
X192267549Y-59059086D01*
X192315159Y-59091685D01*
X192317671Y-59093043D01*
X192705688Y-59299355D01*
X192759415Y-59321500D01*
X192761049Y-59322187D01*
X192814096Y-59344923D01*
X192816751Y-59345744D01*
X193237536Y-59472787D01*
X193294557Y-59484077D01*
X193296296Y-59484433D01*
X193352730Y-59496428D01*
X193355566Y-59496726D01*
X193798602Y-59540167D01*
X193798658Y-59540173D01*
X193827359Y-59543000D01*
X211389278Y-59543000D01*
X211401671Y-59543606D01*
X211741843Y-59576961D01*
X211766157Y-59581775D01*
X212059976Y-59670483D01*
X212082892Y-59679929D01*
X212353885Y-59824018D01*
X212374530Y-59837734D01*
X212612370Y-60031712D01*
X212629957Y-60049177D01*
X212825596Y-60285664D01*
X212839456Y-60306213D01*
X212985431Y-60576187D01*
X212995036Y-60599036D01*
X213085795Y-60892231D01*
X213090779Y-60916511D01*
X213126304Y-61254512D01*
X213127000Y-61267787D01*
X213127000Y-62016545D01*
X213117333Y-62065146D01*
X213089803Y-62106348D01*
X213048601Y-62133878D01*
X213000000Y-62143545D01*
X212951399Y-62133878D01*
X212921496Y-62113898D01*
X212921377Y-62114077D01*
X212702968Y-61968140D01*
X212471844Y-61872405D01*
X212226483Y-61823600D01*
X211976317Y-61823600D01*
X211730955Y-61872405D01*
X211499831Y-61968140D01*
X211291823Y-62107127D01*
X211114927Y-62284023D01*
X211034656Y-62404158D01*
X210999616Y-62439197D01*
X210953835Y-62458160D01*
X210929059Y-62460600D01*
X198458722Y-62460600D01*
X198446274Y-62459988D01*
X198421399Y-62457538D01*
X198396524Y-62459988D01*
X198396506Y-62459988D01*
X198297315Y-62469758D01*
X198177986Y-62505955D01*
X198160266Y-62515428D01*
X198112847Y-62529813D01*
X198063533Y-62524957D01*
X198019831Y-62501599D01*
X197994801Y-62473983D01*
X197867875Y-62284026D01*
X197690976Y-62107127D01*
X197482968Y-61968140D01*
X197251844Y-61872405D01*
X197006483Y-61823600D01*
X196756317Y-61823600D01*
X196510955Y-61872405D01*
X196279831Y-61968140D01*
X196071823Y-62107127D01*
X195894927Y-62284023D01*
X195755940Y-62492031D01*
X195660205Y-62723155D01*
X195608960Y-62980784D01*
X195608593Y-62980711D01*
X195601733Y-63015201D01*
X195574203Y-63056403D01*
X195533001Y-63083933D01*
X195484400Y-63093600D01*
X195429917Y-63093600D01*
X195184555Y-63142405D01*
X194953431Y-63238140D01*
X194745423Y-63377127D01*
X194568527Y-63554023D01*
X194429540Y-63762031D01*
X194333805Y-63993155D01*
X194285000Y-64238517D01*
X194285000Y-64488682D01*
X194333805Y-64734044D01*
X194429540Y-64965168D01*
X194568527Y-65173176D01*
X194745423Y-65350072D01*
X194953431Y-65489059D01*
X195013544Y-65513959D01*
X195054746Y-65541490D01*
X195082276Y-65582692D01*
X195091943Y-65631292D01*
X195082276Y-65679893D01*
X195054745Y-65721095D01*
X195013543Y-65748625D01*
X195007995Y-65750772D01*
X195003708Y-65752316D01*
X194943761Y-65784358D01*
X194911306Y-65900695D01*
X195599503Y-66588892D01*
X195617748Y-66592522D01*
X195658946Y-66620050D01*
X195838551Y-66799655D01*
X195866081Y-66840857D01*
X195869709Y-66859098D01*
X196563072Y-67552461D01*
X196579948Y-67551181D01*
X196627032Y-67566627D01*
X196654466Y-67587455D01*
X196881400Y-67814389D01*
X197525093Y-67170695D01*
X197493685Y-67058113D01*
X197410597Y-67019043D01*
X197370730Y-66989613D01*
X197345160Y-66947167D01*
X197337779Y-66898167D01*
X197349712Y-66850072D01*
X197379142Y-66810205D01*
X197416040Y-66786782D01*
X197482967Y-66759060D01*
X197690976Y-66620072D01*
X197867872Y-66443176D01*
X198006859Y-66235168D01*
X198102594Y-66004044D01*
X198151400Y-65758682D01*
X198151400Y-65508517D01*
X198102594Y-65263155D01*
X198006859Y-65032031D01*
X197867872Y-64824023D01*
X197816825Y-64772976D01*
X197789295Y-64731774D01*
X197779628Y-64683173D01*
X197789295Y-64634572D01*
X197816825Y-64593370D01*
X197928406Y-64481789D01*
X197969608Y-64454259D01*
X198018209Y-64444592D01*
X198066810Y-64454259D01*
X198108012Y-64481789D01*
X198135542Y-64522991D01*
X198142769Y-64546816D01*
X198157893Y-64622852D01*
X198226341Y-64788100D01*
X198325708Y-64936813D01*
X198452186Y-65063291D01*
X198600899Y-65162658D01*
X198766147Y-65231106D01*
X198941570Y-65266000D01*
X199120430Y-65266000D01*
X199295852Y-65231106D01*
X199461100Y-65162658D01*
X199609813Y-65063291D01*
X199639308Y-65033797D01*
X199680510Y-65006267D01*
X199729111Y-64996600D01*
X209622659Y-64996600D01*
X209671260Y-65006267D01*
X209712462Y-65033797D01*
X209728256Y-65053042D01*
X209808527Y-65173176D01*
X209985423Y-65350072D01*
X210193431Y-65489059D01*
X210259116Y-65516267D01*
X210300318Y-65543798D01*
X210327848Y-65585000D01*
X210337515Y-65633600D01*
X210327848Y-65682201D01*
X210300317Y-65723403D01*
X210259116Y-65750933D01*
X210193431Y-65778140D01*
X209985423Y-65917127D01*
X209808527Y-66094023D01*
X209728256Y-66214158D01*
X209693216Y-66249197D01*
X209647435Y-66268160D01*
X209622659Y-66270600D01*
X199774311Y-66270600D01*
X199725710Y-66260933D01*
X199684508Y-66233403D01*
X199609813Y-66158708D01*
X199461100Y-66059341D01*
X199295852Y-65990893D01*
X199120430Y-65956000D01*
X198941570Y-65956000D01*
X198766147Y-65990893D01*
X198600899Y-66059341D01*
X198452186Y-66158708D01*
X198325708Y-66285186D01*
X198226341Y-66433899D01*
X198157893Y-66599147D01*
X198123000Y-66774570D01*
X198123000Y-66953429D01*
X198157893Y-67128852D01*
X198226341Y-67294100D01*
X198297556Y-67400680D01*
X198316519Y-67446461D01*
X198316519Y-67496014D01*
X198297556Y-67541795D01*
X198262516Y-67576834D01*
X198251828Y-67583240D01*
X198177145Y-67623160D01*
X198129726Y-67637545D01*
X198080411Y-67632689D01*
X198036709Y-67609330D01*
X198005273Y-67571026D01*
X198005272Y-67571025D01*
X198000641Y-67562361D01*
X197884304Y-67529906D01*
X197196109Y-68218101D01*
X197192481Y-68236344D01*
X197164951Y-68277546D01*
X196985346Y-68457151D01*
X196944144Y-68484681D01*
X196895543Y-68494348D01*
X196881401Y-68491535D01*
X196867262Y-68494348D01*
X196818661Y-68484682D01*
X196777459Y-68457154D01*
X196777455Y-68457151D01*
X196597850Y-68277546D01*
X196570320Y-68236344D01*
X196566691Y-68218102D01*
X195873327Y-67524738D01*
X195856452Y-67526019D01*
X195809368Y-67510573D01*
X195781934Y-67489745D01*
X195555000Y-67262811D01*
X194911306Y-67906504D01*
X194942714Y-68019086D01*
X195025803Y-68058157D01*
X195065670Y-68087587D01*
X195091240Y-68130033D01*
X195098621Y-68179033D01*
X195086688Y-68227128D01*
X195057258Y-68266995D01*
X195020360Y-68290418D01*
X194953432Y-68318139D01*
X194745423Y-68457127D01*
X194568527Y-68634023D01*
X194429540Y-68842031D01*
X194333805Y-69073155D01*
X194285000Y-69318517D01*
X194285000Y-69568682D01*
X194333805Y-69814044D01*
X194429540Y-70045168D01*
X194568527Y-70253176D01*
X194745423Y-70430072D01*
X194953431Y-70569059D01*
X195019116Y-70596267D01*
X195060318Y-70623798D01*
X195087848Y-70665000D01*
X195097515Y-70713600D01*
X195087848Y-70762201D01*
X195060317Y-70803403D01*
X195019116Y-70830933D01*
X194953431Y-70858140D01*
X194745423Y-70997127D01*
X194568527Y-71174023D01*
X194429540Y-71382031D01*
X194333805Y-71613155D01*
X194285000Y-71858517D01*
X194285000Y-72108682D01*
X194333805Y-72354044D01*
X194429540Y-72585168D01*
X194568527Y-72793176D01*
X194745423Y-72970072D01*
X194953431Y-73109059D01*
X195019116Y-73136267D01*
X195060318Y-73163798D01*
X195087848Y-73205000D01*
X195097515Y-73253600D01*
X195087848Y-73302201D01*
X195060317Y-73343403D01*
X195019116Y-73370933D01*
X194953431Y-73398140D01*
X194745423Y-73537127D01*
X194568527Y-73714023D01*
X194429540Y-73922031D01*
X194333805Y-74153155D01*
X194285000Y-74398517D01*
X194285000Y-74648682D01*
X194313188Y-74790394D01*
X194313188Y-74839947D01*
X194294225Y-74885728D01*
X194278431Y-74904973D01*
X192035849Y-77147556D01*
X191994647Y-77175086D01*
X191946046Y-77184753D01*
X191897445Y-77175086D01*
X191856243Y-77147556D01*
X191828713Y-77106354D01*
X191819047Y-77058280D01*
X191777191Y-66976144D01*
X191777162Y-66969073D01*
X194280536Y-66969073D01*
X194317797Y-67216447D01*
X194403716Y-67454891D01*
X194435758Y-67514838D01*
X194552095Y-67547293D01*
X195195789Y-66903600D01*
X194552095Y-66259906D01*
X194439513Y-66291314D01*
X194352495Y-66476369D01*
X194292252Y-66719177D01*
X194280536Y-66969073D01*
X191777162Y-66969073D01*
X191743692Y-58907354D01*
X191753158Y-58858714D01*
X191780516Y-58817398D01*
X191821603Y-58789697D01*
X191870164Y-58779828D01*
X191918804Y-58789294D01*
G37*
G04 #@! TD.AperFunction*
G04 #@! TA.AperFunction,Conductor*
G36*
X196944148Y-70402522D02*
G01*
X196985346Y-70430050D01*
X197164951Y-70609655D01*
X197192481Y-70650857D01*
X197196109Y-70669098D01*
X197884304Y-71357293D01*
X197996886Y-71325885D01*
X198001112Y-71316900D01*
X198030542Y-71277033D01*
X198072988Y-71251463D01*
X198121989Y-71244082D01*
X198170083Y-71256015D01*
X198209950Y-71285445D01*
X198221637Y-71300386D01*
X198274708Y-71379813D01*
X198401186Y-71506291D01*
X198549899Y-71605658D01*
X198715147Y-71674106D01*
X198890570Y-71709000D01*
X199069430Y-71709000D01*
X199244852Y-71674106D01*
X199410100Y-71605658D01*
X199558813Y-71506291D01*
X199681308Y-71383797D01*
X199722510Y-71356267D01*
X199771111Y-71346600D01*
X209491076Y-71346600D01*
X209539677Y-71356267D01*
X209580879Y-71383797D01*
X209608409Y-71424999D01*
X209618076Y-71473600D01*
X209608409Y-71522201D01*
X209606004Y-71527643D01*
X209592494Y-71556371D01*
X209532252Y-71799177D01*
X209520536Y-72049073D01*
X209557797Y-72296447D01*
X209613325Y-72450548D01*
X209620706Y-72499548D01*
X209608773Y-72547643D01*
X209579343Y-72587510D01*
X209536897Y-72613080D01*
X209493845Y-72620600D01*
X198527484Y-72620600D01*
X198515036Y-72619988D01*
X198490161Y-72617538D01*
X198465286Y-72619988D01*
X198465268Y-72619988D01*
X198366077Y-72629758D01*
X198246750Y-72665955D01*
X198178360Y-72702511D01*
X198130941Y-72716895D01*
X198081626Y-72712039D01*
X198037925Y-72688680D01*
X198012895Y-72661064D01*
X197867874Y-72444025D01*
X197690976Y-72267127D01*
X197482968Y-72128140D01*
X197422856Y-72103241D01*
X197381654Y-72075710D01*
X197354124Y-72034508D01*
X197344457Y-71985908D01*
X197354124Y-71937307D01*
X197381655Y-71896105D01*
X197422857Y-71868575D01*
X197428405Y-71866428D01*
X197432691Y-71864883D01*
X197492638Y-71832841D01*
X197525093Y-71716504D01*
X196836898Y-71028309D01*
X196818661Y-71024682D01*
X196777459Y-70997154D01*
X196777455Y-70997151D01*
X196597850Y-70817546D01*
X196570320Y-70776344D01*
X196560653Y-70727743D01*
X196563466Y-70713600D01*
X196560653Y-70699458D01*
X196570320Y-70650857D01*
X196597850Y-70609655D01*
X196777455Y-70430050D01*
X196818657Y-70402520D01*
X196867258Y-70392853D01*
X196881401Y-70395666D01*
X196895547Y-70392853D01*
X196944148Y-70402522D01*
G37*
G04 #@! TD.AperFunction*
G04 #@! TA.AperFunction,Conductor*
G36*
X210857748Y-71672522D02*
G01*
X210898946Y-71700050D01*
X211078551Y-71879655D01*
X211106081Y-71920857D01*
X211115748Y-71969458D01*
X211112934Y-71983600D01*
X211115748Y-71997743D01*
X211106081Y-72046344D01*
X211078551Y-72087546D01*
X210898946Y-72267151D01*
X210857744Y-72294681D01*
X210809143Y-72304348D01*
X210795001Y-72301535D01*
X210780862Y-72304348D01*
X210732261Y-72294682D01*
X210691059Y-72267154D01*
X210691055Y-72267151D01*
X210511450Y-72087546D01*
X210483920Y-72046344D01*
X210474253Y-71997743D01*
X210477066Y-71983600D01*
X210474253Y-71969458D01*
X210483920Y-71920857D01*
X210511450Y-71879655D01*
X210691055Y-71700050D01*
X210732257Y-71672520D01*
X210780858Y-71662853D01*
X210795001Y-71665666D01*
X210809147Y-71662853D01*
X210857748Y-71672522D01*
G37*
G04 #@! TD.AperFunction*
G04 #@! TA.AperFunction,Conductor*
G36*
X210857748Y-69132522D02*
G01*
X210898946Y-69160050D01*
X211078551Y-69339655D01*
X211106081Y-69380857D01*
X211115748Y-69429458D01*
X211112934Y-69443600D01*
X211115748Y-69457743D01*
X211106081Y-69506344D01*
X211078551Y-69547546D01*
X210898946Y-69727151D01*
X210857744Y-69754681D01*
X210809143Y-69764348D01*
X210795001Y-69761535D01*
X210780862Y-69764348D01*
X210732261Y-69754682D01*
X210691059Y-69727154D01*
X210691055Y-69727151D01*
X210511450Y-69547546D01*
X210483920Y-69506344D01*
X210474253Y-69457743D01*
X210477066Y-69443600D01*
X210474253Y-69429458D01*
X210483920Y-69380857D01*
X210511450Y-69339655D01*
X210691055Y-69160050D01*
X210732257Y-69132520D01*
X210780858Y-69122853D01*
X210795001Y-69125666D01*
X210809147Y-69122853D01*
X210857748Y-69132522D01*
G37*
G04 #@! TD.AperFunction*
G04 #@! TA.AperFunction,Conductor*
G36*
X212164148Y-65322522D02*
G01*
X212205346Y-65350050D01*
X212384951Y-65529655D01*
X212412481Y-65570857D01*
X212422148Y-65619458D01*
X212419334Y-65633600D01*
X212422148Y-65647743D01*
X212412481Y-65696344D01*
X212384951Y-65737546D01*
X212205346Y-65917151D01*
X212164144Y-65944681D01*
X212115543Y-65954348D01*
X212101401Y-65951535D01*
X212087262Y-65954348D01*
X212038661Y-65944682D01*
X211997459Y-65917154D01*
X211997455Y-65917151D01*
X211817850Y-65737546D01*
X211790320Y-65696344D01*
X211780653Y-65647743D01*
X211783466Y-65633600D01*
X211780653Y-65619458D01*
X211790320Y-65570857D01*
X211817850Y-65529655D01*
X211997455Y-65350050D01*
X212038657Y-65322520D01*
X212087258Y-65312853D01*
X212101401Y-65315666D01*
X212115547Y-65312853D01*
X212164148Y-65322522D01*
G37*
G04 #@! TD.AperFunction*
G04 #@! TD*
M02*
