G04 #@! TF.GenerationSoftware,KiCad,Pcbnew,10.0.2*
G04 #@! TF.CreationDate,2026-05-20T00:21:07-04:00*
G04 #@! TF.ProjectId,tairakb,74616972-616b-4622-9e6b-696361645f70,1.1*
G04 #@! TF.SameCoordinates,Original*
G04 #@! TF.FileFunction,Copper,L2,Bot*
G04 #@! TF.FilePolarity,Positive*
%FSLAX46Y46*%
G04 Gerber Fmt 4.6, Leading zero omitted, Abs format (unit mm)*
G04 Created by KiCad (PCBNEW 10.0.2) date 2026-05-20 00:21:07*
%MOMM*%
%LPD*%
G01*
G04 APERTURE LIST*
G04 Aperture macros list*
%AMRoundRect*
0 Rectangle with rounded corners*
0 $1 Rounding radius*
0 $2 $3 $4 $5 $6 $7 $8 $9 X,Y pos of 4 corners*
0 Add a 4 corners polygon primitive as box body*
4,1,4,$2,$3,$4,$5,$6,$7,$8,$9,$2,$3,0*
0 Add four circle primitives for the rounded corners*
1,1,$1+$1,$2,$3*
1,1,$1+$1,$4,$5*
1,1,$1+$1,$6,$7*
1,1,$1+$1,$8,$9*
0 Add four rect primitives between the rounded corners*
20,1,$1+$1,$2,$3,$4,$5,0*
20,1,$1+$1,$4,$5,$6,$7,0*
20,1,$1+$1,$6,$7,$8,$9,0*
20,1,$1+$1,$8,$9,$2,$3,0*%
%AMRotRect*
0 Rectangle, with rotation*
0 The origin of the aperture is its center*
0 $1 length*
0 $2 width*
0 $3 Rotation angle, in degrees counterclockwise*
0 Add horizontal line*
21,1,$1,$2,0,0,$3*%
G04 Aperture macros list end*
G04 #@! TA.AperFunction,SMDPad,CuDef*
%ADD10R,1.600000X2.200000*%
G04 #@! TD*
G04 #@! TA.AperFunction,SMDPad,CuDef*
%ADD11RotRect,1.600000X2.200000X330.000000*%
G04 #@! TD*
G04 #@! TA.AperFunction,ComponentPad*
%ADD12C,2.000000*%
G04 #@! TD*
G04 #@! TA.AperFunction,ComponentPad*
%ADD13C,1.500000*%
G04 #@! TD*
G04 #@! TA.AperFunction,SMDPad,CuDef*
%ADD14R,0.950000X1.300000*%
G04 #@! TD*
G04 #@! TA.AperFunction,SMDPad,CuDef*
%ADD15R,1.300000X0.950000*%
G04 #@! TD*
G04 #@! TA.AperFunction,SMDPad,CuDef*
%ADD16RotRect,1.300000X0.950000X60.000000*%
G04 #@! TD*
G04 #@! TA.AperFunction,ComponentPad*
%ADD17RoundRect,0.250000X-0.750000X0.750000X-0.750000X-0.750000X0.750000X-0.750000X0.750000X0.750000X0*%
G04 #@! TD*
G04 #@! TA.AperFunction,ComponentPad*
%ADD18C,1.524000*%
G04 #@! TD*
G04 #@! TA.AperFunction,ComponentPad*
%ADD19C,5.000000*%
G04 #@! TD*
G04 #@! TA.AperFunction,ViaPad*
%ADD20C,0.800000*%
G04 #@! TD*
G04 #@! TA.AperFunction,Conductor*
%ADD21C,0.250000*%
G04 #@! TD*
G04 APERTURE END LIST*
D10*
G04 #@! TO.P,SW1,1*
G04 #@! TO.N,Net-(D1-Pad2)*
X79445000Y-57675000D03*
G04 #@! TO.P,SW1,2*
G04 #@! TO.N,/col0*
X90045000Y-59875000D03*
G04 #@! TD*
G04 #@! TO.P,SW2,1*
G04 #@! TO.N,Net-(D2-Pad2)*
X79445000Y-75675000D03*
G04 #@! TO.P,SW2,2*
G04 #@! TO.N,/col0*
X90045000Y-77875000D03*
G04 #@! TD*
G04 #@! TO.P,SW3,1*
G04 #@! TO.N,Net-(D3-Pad2)*
X79445000Y-93675000D03*
G04 #@! TO.P,SW3,2*
G04 #@! TO.N,/col0*
X90045000Y-95875000D03*
G04 #@! TD*
G04 #@! TO.P,SW4,1*
G04 #@! TO.N,Net-(D4-Pad2)*
X79445000Y-111675000D03*
G04 #@! TO.P,SW4,2*
G04 #@! TO.N,/col0*
X90045000Y-113875000D03*
G04 #@! TD*
G04 #@! TO.P,SW5,1*
G04 #@! TO.N,Net-(D5-Pad2)*
X79445000Y-129675000D03*
G04 #@! TO.P,SW5,2*
G04 #@! TO.N,/col0*
X90045000Y-131875000D03*
G04 #@! TD*
G04 #@! TO.P,SW6,1*
G04 #@! TO.N,Net-(D6-Pad2)*
X98445000Y-57675000D03*
G04 #@! TO.P,SW6,2*
G04 #@! TO.N,/col1*
X109045000Y-59875000D03*
G04 #@! TD*
G04 #@! TO.P,SW7,1*
G04 #@! TO.N,Net-(D7-Pad2)*
X98445000Y-75675000D03*
G04 #@! TO.P,SW7,2*
G04 #@! TO.N,/col1*
X109045000Y-77875000D03*
G04 #@! TD*
G04 #@! TO.P,SW8,1*
G04 #@! TO.N,Net-(D8-Pad2)*
X98445000Y-93675000D03*
G04 #@! TO.P,SW8,2*
G04 #@! TO.N,/col1*
X109045000Y-95875000D03*
G04 #@! TD*
G04 #@! TO.P,SW9,1*
G04 #@! TO.N,Net-(D9-Pad2)*
X98445000Y-111675000D03*
G04 #@! TO.P,SW9,2*
G04 #@! TO.N,/col1*
X109045000Y-113875000D03*
G04 #@! TD*
G04 #@! TO.P,SW10,1*
G04 #@! TO.N,Net-(D10-Pad2)*
X98445000Y-129675000D03*
G04 #@! TO.P,SW10,2*
G04 #@! TO.N,/col1*
X109045000Y-131875000D03*
G04 #@! TD*
G04 #@! TO.P,SW11,1*
G04 #@! TO.N,Net-(D11-Pad2)*
X117445000Y-52913000D03*
G04 #@! TO.P,SW11,2*
G04 #@! TO.N,/col2*
X128045000Y-55113000D03*
G04 #@! TD*
G04 #@! TO.P,SW12,1*
G04 #@! TO.N,Net-(D12-Pad2)*
X117445000Y-70913000D03*
G04 #@! TO.P,SW12,2*
G04 #@! TO.N,/col2*
X128045000Y-73113000D03*
G04 #@! TD*
G04 #@! TO.P,SW13,1*
G04 #@! TO.N,Net-(D13-Pad2)*
X117445000Y-88913000D03*
G04 #@! TO.P,SW13,2*
G04 #@! TO.N,/col2*
X128045000Y-91113000D03*
G04 #@! TD*
G04 #@! TO.P,SW14,1*
G04 #@! TO.N,Net-(D14-Pad2)*
X117445000Y-106913000D03*
G04 #@! TO.P,SW14,2*
G04 #@! TO.N,/col2*
X128045000Y-109113000D03*
G04 #@! TD*
G04 #@! TO.P,SW15,1*
G04 #@! TO.N,Net-(D15-Pad2)*
X117445000Y-124913000D03*
G04 #@! TO.P,SW15,2*
G04 #@! TO.N,/col2*
X128045000Y-127113000D03*
G04 #@! TD*
G04 #@! TO.P,SW16,1*
G04 #@! TO.N,Net-(D16-Pad2)*
X136445000Y-50532000D03*
G04 #@! TO.P,SW16,2*
G04 #@! TO.N,/col3*
X147045000Y-52732000D03*
G04 #@! TD*
G04 #@! TO.P,SW17,1*
G04 #@! TO.N,Net-(D17-Pad2)*
X136445000Y-68532000D03*
G04 #@! TO.P,SW17,2*
G04 #@! TO.N,/col3*
X147045000Y-70732000D03*
G04 #@! TD*
G04 #@! TO.P,SW18,1*
G04 #@! TO.N,Net-(D18-Pad2)*
X136445000Y-86532000D03*
G04 #@! TO.P,SW18,2*
G04 #@! TO.N,/col3*
X147045000Y-88732000D03*
G04 #@! TD*
G04 #@! TO.P,SW19,1*
G04 #@! TO.N,Net-(D19-Pad2)*
X136445000Y-104532000D03*
G04 #@! TO.P,SW19,2*
G04 #@! TO.N,/col3*
X147045000Y-106732000D03*
G04 #@! TD*
G04 #@! TO.P,SW20,1*
G04 #@! TO.N,Net-(D20-Pad2)*
X152045000Y-115132000D03*
G04 #@! TO.P,SW20,2*
G04 #@! TO.N,/col3*
X141445000Y-112932000D03*
G04 #@! TD*
G04 #@! TO.P,SW21,1*
G04 #@! TO.N,Net-(D21-Pad2)*
X155445000Y-52913000D03*
G04 #@! TO.P,SW21,2*
G04 #@! TO.N,/col4*
X166045000Y-55113000D03*
G04 #@! TD*
G04 #@! TO.P,SW22,1*
G04 #@! TO.N,Net-(D22-Pad2)*
X155445000Y-70913000D03*
G04 #@! TO.P,SW22,2*
G04 #@! TO.N,/col4*
X166045000Y-73113000D03*
G04 #@! TD*
G04 #@! TO.P,SW23,1*
G04 #@! TO.N,Net-(D23-Pad2)*
X155445000Y-88913000D03*
G04 #@! TO.P,SW23,2*
G04 #@! TO.N,/col4*
X166045000Y-91113000D03*
G04 #@! TD*
G04 #@! TO.P,SW24,1*
G04 #@! TO.N,Net-(D24-Pad2)*
X155445000Y-106913000D03*
G04 #@! TO.P,SW24,2*
G04 #@! TO.N,/col4*
X166045000Y-109113000D03*
G04 #@! TD*
D11*
G04 #@! TO.P,SW25,1*
G04 #@! TO.N,Net-(D25-Pad2)*
X183909998Y-128931706D03*
G04 #@! TO.P,SW25,2*
G04 #@! TO.N,/col4*
X175830129Y-121726450D03*
G04 #@! TD*
D10*
G04 #@! TO.P,SW26,1*
G04 #@! TO.N,Net-(D26-Pad2)*
X190045000Y-48894000D03*
G04 #@! TO.P,SW26,2*
G04 #@! TO.N,/col5*
X179445000Y-46694000D03*
G04 #@! TD*
G04 #@! TO.P,SW27,1*
G04 #@! TO.N,Net-(D27-Pad2)*
X174445000Y-74294000D03*
G04 #@! TO.P,SW27,2*
G04 #@! TO.N,/col5*
X185045000Y-76494000D03*
G04 #@! TD*
G04 #@! TO.P,SW28,1*
G04 #@! TO.N,Net-(D28-Pad2)*
X190045000Y-84894000D03*
G04 #@! TO.P,SW28,2*
G04 #@! TO.N,/col5*
X179445000Y-82694000D03*
G04 #@! TD*
G04 #@! TO.P,SW29,1*
G04 #@! TO.N,Net-(D29-Pad2)*
X174445000Y-110294000D03*
G04 #@! TO.P,SW29,2*
G04 #@! TO.N,/col5*
X185045000Y-112494000D03*
G04 #@! TD*
D12*
G04 #@! TO.P,RSW1,1*
G04 #@! TO.N,GND*
X202365000Y-85951000D03*
G04 #@! TO.P,RSW1,2*
G04 #@! TO.N,/RST*
X202365000Y-92451000D03*
G04 #@! TD*
D13*
G04 #@! TO.P,BSW1,1*
G04 #@! TO.N,N/C*
X209000000Y-88600000D03*
G04 #@! TO.P,BSW1,2*
G04 #@! TO.N,Net-(BSW1-Pad2)*
X209000000Y-86100000D03*
G04 #@! TO.P,BSW1,3*
G04 #@! TO.N,+BATT*
X209000000Y-83600000D03*
G04 #@! TD*
D14*
G04 #@! TO.P,D1,1*
G04 #@! TO.N,/row0*
X95118000Y-50865000D03*
G04 #@! TO.P,D1,2*
G04 #@! TO.N,Net-(D1-Pad2)*
X95118000Y-54415000D03*
G04 #@! TD*
G04 #@! TO.P,D2,1*
G04 #@! TO.N,/row1*
X95118000Y-68865000D03*
G04 #@! TO.P,D2,2*
G04 #@! TO.N,Net-(D2-Pad2)*
X95118000Y-72415000D03*
G04 #@! TD*
G04 #@! TO.P,D3,1*
G04 #@! TO.N,/row2*
X95118000Y-86865000D03*
G04 #@! TO.P,D3,2*
G04 #@! TO.N,Net-(D3-Pad2)*
X95118000Y-90415000D03*
G04 #@! TD*
G04 #@! TO.P,D4,1*
G04 #@! TO.N,/row3*
X95118000Y-104865000D03*
G04 #@! TO.P,D4,2*
G04 #@! TO.N,Net-(D4-Pad2)*
X95118000Y-108415000D03*
G04 #@! TD*
G04 #@! TO.P,D5,1*
G04 #@! TO.N,/row4*
X95118000Y-122865000D03*
G04 #@! TO.P,D5,2*
G04 #@! TO.N,Net-(D5-Pad2)*
X95118000Y-126415000D03*
G04 #@! TD*
G04 #@! TO.P,D6,1*
G04 #@! TO.N,/row0*
X114118000Y-50865000D03*
G04 #@! TO.P,D6,2*
G04 #@! TO.N,Net-(D6-Pad2)*
X114118000Y-54415000D03*
G04 #@! TD*
G04 #@! TO.P,D7,1*
G04 #@! TO.N,/row1*
X114118000Y-68865000D03*
G04 #@! TO.P,D7,2*
G04 #@! TO.N,Net-(D7-Pad2)*
X114118000Y-72415000D03*
G04 #@! TD*
G04 #@! TO.P,D8,1*
G04 #@! TO.N,/row2*
X114118000Y-86865000D03*
G04 #@! TO.P,D8,2*
G04 #@! TO.N,Net-(D8-Pad2)*
X114118000Y-90415000D03*
G04 #@! TD*
G04 #@! TO.P,D9,1*
G04 #@! TO.N,/row3*
X114118000Y-104865000D03*
G04 #@! TO.P,D9,2*
G04 #@! TO.N,Net-(D9-Pad2)*
X114118000Y-108415000D03*
G04 #@! TD*
G04 #@! TO.P,D10,1*
G04 #@! TO.N,/row4*
X114118000Y-122865000D03*
G04 #@! TO.P,D10,2*
G04 #@! TO.N,Net-(D10-Pad2)*
X114118000Y-126415000D03*
G04 #@! TD*
G04 #@! TO.P,D11,1*
G04 #@! TO.N,/row0*
X133133000Y-46140000D03*
G04 #@! TO.P,D11,2*
G04 #@! TO.N,Net-(D11-Pad2)*
X133133000Y-49690000D03*
G04 #@! TD*
G04 #@! TO.P,D12,1*
G04 #@! TO.N,/row1*
X133133000Y-64140000D03*
G04 #@! TO.P,D12,2*
G04 #@! TO.N,Net-(D12-Pad2)*
X133133000Y-67690000D03*
G04 #@! TD*
G04 #@! TO.P,D13,1*
G04 #@! TO.N,/row2*
X133133000Y-82140000D03*
G04 #@! TO.P,D13,2*
G04 #@! TO.N,Net-(D13-Pad2)*
X133133000Y-85690000D03*
G04 #@! TD*
G04 #@! TO.P,D14,1*
G04 #@! TO.N,/row3*
X133133000Y-100140000D03*
G04 #@! TO.P,D14,2*
G04 #@! TO.N,Net-(D14-Pad2)*
X133133000Y-103690000D03*
G04 #@! TD*
G04 #@! TO.P,D15,1*
G04 #@! TO.N,/row4*
X133133000Y-118140000D03*
G04 #@! TO.P,D15,2*
G04 #@! TO.N,Net-(D15-Pad2)*
X133133000Y-121690000D03*
G04 #@! TD*
G04 #@! TO.P,D16,1*
G04 #@! TO.N,/row0*
X152150000Y-43795000D03*
G04 #@! TO.P,D16,2*
G04 #@! TO.N,Net-(D16-Pad2)*
X152150000Y-47345000D03*
G04 #@! TD*
G04 #@! TO.P,D17,1*
G04 #@! TO.N,/row1*
X152150000Y-61795000D03*
G04 #@! TO.P,D17,2*
G04 #@! TO.N,Net-(D17-Pad2)*
X152150000Y-65345000D03*
G04 #@! TD*
G04 #@! TO.P,D18,1*
G04 #@! TO.N,/row2*
X152150000Y-79795000D03*
G04 #@! TO.P,D18,2*
G04 #@! TO.N,Net-(D18-Pad2)*
X152150000Y-83345000D03*
G04 #@! TD*
G04 #@! TO.P,D19,1*
G04 #@! TO.N,/row3*
X152150000Y-97795000D03*
G04 #@! TO.P,D19,2*
G04 #@! TO.N,Net-(D19-Pad2)*
X152150000Y-101345000D03*
G04 #@! TD*
D15*
G04 #@! TO.P,D20,1*
G04 #@! TO.N,/row4*
X147243000Y-120856000D03*
G04 #@! TO.P,D20,2*
G04 #@! TO.N,Net-(D20-Pad2)*
X150793000Y-120856000D03*
G04 #@! TD*
D14*
G04 #@! TO.P,D21,1*
G04 #@! TO.N,/row0*
X171132000Y-46177000D03*
G04 #@! TO.P,D21,2*
G04 #@! TO.N,Net-(D21-Pad2)*
X171132000Y-49727000D03*
G04 #@! TD*
G04 #@! TO.P,D22,1*
G04 #@! TO.N,/row1*
X171132000Y-64177000D03*
G04 #@! TO.P,D22,2*
G04 #@! TO.N,Net-(D22-Pad2)*
X171132000Y-67727000D03*
G04 #@! TD*
G04 #@! TO.P,D23,1*
G04 #@! TO.N,/row2*
X171132000Y-82177000D03*
G04 #@! TO.P,D23,2*
G04 #@! TO.N,Net-(D23-Pad2)*
X171132000Y-85727000D03*
G04 #@! TD*
G04 #@! TO.P,D24,1*
G04 #@! TO.N,/row3*
X171132000Y-100177000D03*
G04 #@! TO.P,D24,2*
G04 #@! TO.N,Net-(D24-Pad2)*
X171132000Y-103727000D03*
G04 #@! TD*
D16*
G04 #@! TO.P,D25,1*
G04 #@! TO.N,/row4*
X165937500Y-128631195D03*
G04 #@! TO.P,D25,2*
G04 #@! TO.N,Net-(D25-Pad2)*
X167712500Y-125556805D03*
G04 #@! TD*
D15*
G04 #@! TO.P,D26,1*
G04 #@! TO.N,/row0*
X180511000Y-58331000D03*
G04 #@! TO.P,D26,2*
G04 #@! TO.N,Net-(D26-Pad2)*
X184061000Y-58331000D03*
G04 #@! TD*
D14*
G04 #@! TO.P,D27,1*
G04 #@! TO.N,/row1*
X174431000Y-67785000D03*
G04 #@! TO.P,D27,2*
G04 #@! TO.N,Net-(D27-Pad2)*
X174431000Y-71335000D03*
G04 #@! TD*
G04 #@! TO.P,D28,1*
G04 #@! TO.N,/row2*
X174259000Y-78352000D03*
G04 #@! TO.P,D28,2*
G04 #@! TO.N,Net-(D28-Pad2)*
X174259000Y-81902000D03*
G04 #@! TD*
G04 #@! TO.P,D29,1*
G04 #@! TO.N,/row3*
X174431000Y-103785000D03*
G04 #@! TO.P,D29,2*
G04 #@! TO.N,Net-(D29-Pad2)*
X174431000Y-107335000D03*
G04 #@! TD*
D16*
G04 #@! TO.P,D31,1*
G04 #@! TO.N,/row2*
X191590500Y-122438195D03*
G04 #@! TO.P,D31,2*
G04 #@! TO.N,Net-(D31-Pad2)*
X193365500Y-119363805D03*
G04 #@! TD*
D17*
G04 #@! TO.P,BT1,1*
G04 #@! TO.N,Net-(BSW1-Pad2)*
X209141000Y-93087000D03*
D12*
G04 #@! TO.P,BT1,2*
G04 #@! TO.N,GND*
X209141000Y-97587000D03*
G04 #@! TD*
D16*
G04 #@! TO.P,D30,1*
G04 #@! TO.N,/row4*
X182530500Y-138157195D03*
G04 #@! TO.P,D30,2*
G04 #@! TO.N,Net-(D30-Pad2)*
X184305500Y-135082805D03*
G04 #@! TD*
D18*
G04 #@! TO.P,U3,1*
G04 #@! TO.N,Net-(U3-Pad1)*
X196881400Y-46634000D03*
X210795000Y-47904000D03*
G04 #@! TO.P,U3,2*
G04 #@! TO.N,Net-(U3-Pad2)*
X196881400Y-49174000D03*
X210795000Y-50444000D03*
G04 #@! TO.P,U3,3*
G04 #@! TO.N,GND*
X196881400Y-51714000D03*
X210795000Y-52984000D03*
G04 #@! TO.P,U3,4*
X196881400Y-54254000D03*
X210795000Y-55524000D03*
G04 #@! TO.P,U3,5*
G04 #@! TO.N,Net-(U3-Pad5)*
X196881400Y-56794000D03*
X210795000Y-58064000D03*
G04 #@! TO.P,U3,6*
G04 #@! TO.N,Net-(U3-Pad6)*
X196881400Y-59334000D03*
X210795000Y-60604000D03*
G04 #@! TO.P,U3,7*
G04 #@! TO.N,/row0*
X196881400Y-61874000D03*
X210795000Y-63144000D03*
G04 #@! TO.P,U3,8*
G04 #@! TO.N,/row1*
X196881400Y-64414000D03*
X210795000Y-65684000D03*
G04 #@! TO.P,U3,9*
G04 #@! TO.N,/row2*
X196881400Y-66954000D03*
X210795000Y-68224000D03*
G04 #@! TO.P,U3,10*
G04 #@! TO.N,/row3*
X196881400Y-69494000D03*
X210795000Y-70764000D03*
G04 #@! TO.P,U3,11*
G04 #@! TO.N,/row4*
X196881400Y-72034000D03*
X210795000Y-73304000D03*
G04 #@! TO.P,U3,12*
G04 #@! TO.N,Net-(U3-Pad12)*
X196881400Y-74574000D03*
X210795000Y-75844000D03*
G04 #@! TO.P,U3,13*
G04 #@! TO.N,Net-(U3-Pad13)*
X195555000Y-75844000D03*
X212101400Y-74574000D03*
G04 #@! TO.P,U3,14*
G04 #@! TO.N,/col6*
X195555000Y-73304000D03*
X212101400Y-72034000D03*
G04 #@! TO.P,U3,15*
G04 #@! TO.N,/col5*
X195555000Y-70764000D03*
X212101400Y-69494000D03*
G04 #@! TO.P,U3,16*
G04 #@! TO.N,/col4*
X195555000Y-68224000D03*
X212101400Y-66954000D03*
G04 #@! TO.P,U3,17*
G04 #@! TO.N,/col3*
X195555000Y-65684000D03*
X212101400Y-64414000D03*
G04 #@! TO.P,U3,18*
G04 #@! TO.N,/col2*
X195555000Y-63144000D03*
X212101400Y-61874000D03*
G04 #@! TO.P,U3,19*
G04 #@! TO.N,/col1*
X195555000Y-60604000D03*
X212101400Y-59334000D03*
G04 #@! TO.P,U3,20*
G04 #@! TO.N,/col0*
X195555000Y-58064000D03*
X212101400Y-56794000D03*
G04 #@! TO.P,U3,21*
G04 #@! TO.N,VCC*
X195555000Y-55524000D03*
X212101400Y-54254000D03*
G04 #@! TO.P,U3,22*
G04 #@! TO.N,/RST*
X195555000Y-52984000D03*
X212101400Y-51714000D03*
G04 #@! TO.P,U3,23*
G04 #@! TO.N,GND*
X195555000Y-50444000D03*
X212101400Y-49174000D03*
G04 #@! TO.P,U3,24*
G04 #@! TO.N,+BATT*
X195555000Y-47904000D03*
X212101400Y-46634000D03*
G04 #@! TD*
D10*
G04 #@! TO.P,SW20-1,1*
G04 #@! TO.N,Net-(D20-Pad2)*
X145641000Y-126560000D03*
G04 #@! TO.P,SW20-1,2*
G04 #@! TO.N,/col3*
X156241000Y-128760000D03*
G04 #@! TD*
D19*
G04 #@! TO.P,H1,*
G04 #@! TO.N,*
X96755000Y-62896000D03*
G04 #@! TD*
G04 #@! TO.P,H2,*
G04 #@! TO.N,*
X134342000Y-58240000D03*
G04 #@! TD*
G04 #@! TO.P,H3,*
G04 #@! TO.N,*
X172365000Y-58174000D03*
G04 #@! TD*
G04 #@! TO.P,H4,*
G04 #@! TO.N,*
X96694000Y-116997000D03*
G04 #@! TD*
G04 #@! TO.P,H5,*
G04 #@! TO.N,*
X134379000Y-94204000D03*
G04 #@! TD*
G04 #@! TO.P,H6,*
G04 #@! TO.N,*
X172463000Y-94248000D03*
G04 #@! TD*
G04 #@! TO.P,H7,*
G04 #@! TO.N,*
X165870000Y-117730000D03*
G04 #@! TD*
G04 #@! TO.P,H8,*
G04 #@! TO.N,*
X204723000Y-134762000D03*
G04 #@! TD*
D11*
G04 #@! TO.P,SW30,1*
G04 #@! TO.N,Net-(D30-Pad2)*
X203119998Y-133969706D03*
G04 #@! TO.P,SW30,2*
G04 #@! TO.N,/col5*
X195040129Y-126764450D03*
G04 #@! TD*
G04 #@! TO.P,SW31,1*
G04 #@! TO.N,Net-(D31-Pad2)*
X193495000Y-110294000D03*
G04 #@! TO.P,SW31,2*
G04 #@! TO.N,/col6*
X204095000Y-112494000D03*
G04 #@! TD*
D20*
G04 #@! TO.N,Net-(D1-Pad2)*
X87325000Y-56989000D03*
X96726000Y-54413000D03*
G04 #@! TO.N,/col0*
X87273920Y-97974803D03*
X87281993Y-133974676D03*
X87274336Y-79974797D03*
X87332717Y-115973170D03*
X87162000Y-62041000D03*
G04 #@! TO.N,Net-(D2-Pad2)*
X87279000Y-75042000D03*
X96671000Y-72387000D03*
G04 #@! TO.N,Net-(D3-Pad2)*
X96671000Y-90434000D03*
X87278000Y-93135000D03*
G04 #@! TO.N,Net-(D4-Pad2)*
X96727000Y-108463000D03*
X87278000Y-111211000D03*
G04 #@! TO.N,Net-(D5-Pad2)*
X96782000Y-126390000D03*
X87224000Y-129023000D03*
G04 #@! TO.N,Net-(D6-Pad2)*
X106260000Y-57008000D03*
X115760000Y-54410000D03*
G04 #@! TO.N,/col1*
X183448487Y-118450210D03*
X107435000Y-128490000D03*
X185426654Y-118522654D03*
X106301624Y-97974239D03*
X106264000Y-116051000D03*
X106261095Y-61974940D03*
X106260000Y-80018000D03*
G04 #@! TO.N,Net-(D7-Pad2)*
X115760000Y-72410000D03*
X106260000Y-74860000D03*
G04 #@! TO.N,Net-(D8-Pad2)*
X106226000Y-92941000D03*
X115726000Y-90410000D03*
G04 #@! TO.N,Net-(D9-Pad2)*
X106226000Y-110930000D03*
X115688000Y-108439000D03*
G04 #@! TO.N,Net-(D10-Pad2)*
X115653000Y-126410000D03*
X106226000Y-128934000D03*
G04 #@! TO.N,Net-(D11-Pad2)*
X125379000Y-52107000D03*
X134731000Y-49695000D03*
G04 #@! TO.N,/col2*
X183423047Y-117450532D03*
X125272441Y-111212823D03*
X125195208Y-93212412D03*
X125345079Y-129210616D03*
X125230000Y-57265000D03*
X125269643Y-75212858D03*
X187149307Y-117825307D03*
G04 #@! TO.N,Net-(D12-Pad2)*
X125306000Y-70223000D03*
X134695000Y-67679000D03*
G04 #@! TO.N,Net-(D13-Pad2)*
X125270000Y-88317000D03*
X134696000Y-85719000D03*
G04 #@! TO.N,Net-(D14-Pad2)*
X134733000Y-103688000D03*
X125233000Y-106053000D03*
G04 #@! TO.N,Net-(D15-Pad2)*
X125270000Y-124178000D03*
X134733000Y-121698000D03*
G04 #@! TO.N,Net-(D16-Pad2)*
X153785000Y-47322000D03*
X144396000Y-49771000D03*
G04 #@! TO.N,/col3*
X174144000Y-116085000D03*
X144287000Y-72878000D03*
X153619000Y-130883000D03*
X179795000Y-119934000D03*
X144182069Y-90831059D03*
X144107000Y-109755000D03*
X144211000Y-54929000D03*
G04 #@! TO.N,Net-(D17-Pad2)*
X153751000Y-65381000D03*
X144399000Y-67794000D03*
G04 #@! TO.N,Net-(D18-Pad2)*
X153758000Y-83378000D03*
X144294000Y-85716000D03*
G04 #@! TO.N,Net-(D19-Pad2)*
X144255000Y-103854000D03*
X153644000Y-101428000D03*
G04 #@! TO.N,Net-(D20-Pad2)*
X149426000Y-120863000D03*
X153396000Y-125947000D03*
G04 #@! TO.N,Net-(D21-Pad2)*
X172647000Y-49727000D03*
X163258000Y-52177000D03*
G04 #@! TO.N,/col4*
X163258401Y-57212959D03*
X165991999Y-110938001D03*
X163296079Y-75212380D03*
X177746276Y-119916724D03*
X163332000Y-93289000D03*
G04 #@! TO.N,Net-(D22-Pad2)*
X172721000Y-67709000D03*
X163183000Y-70121000D03*
G04 #@! TO.N,Net-(D23-Pad2)*
X172722000Y-85719000D03*
X163221000Y-88131000D03*
G04 #@! TO.N,Net-(D24-Pad2)*
X163371000Y-106359000D03*
X172649000Y-103725000D03*
G04 #@! TO.N,Net-(D25-Pad2)*
X176897000Y-125256000D03*
X168844000Y-126295000D03*
G04 #@! TO.N,Net-(D26-Pad2)*
X185043501Y-57108501D03*
X189862000Y-46378000D03*
G04 #@! TO.N,/col5*
X182299000Y-114683000D03*
X194281776Y-129452224D03*
X188270000Y-125477000D03*
X179445000Y-71953000D03*
X182249000Y-49490000D03*
X181581499Y-86260499D03*
X188270000Y-123789001D03*
G04 #@! TO.N,Net-(D27-Pad2)*
X173088000Y-71338000D03*
X182180000Y-73754000D03*
G04 #@! TO.N,Net-(D28-Pad2)*
X175575000Y-81868000D03*
X181587000Y-84911000D03*
G04 #@! TO.N,Net-(D29-Pad2)*
X182225000Y-109598000D03*
X173244000Y-107377000D03*
G04 #@! TO.N,/col6*
X205028773Y-115223274D03*
G04 #@! TO.N,/row0*
X198878000Y-79545000D03*
X95097000Y-49361000D03*
X171125000Y-44738000D03*
X180510000Y-56992000D03*
X152152000Y-42089000D03*
X133135000Y-44536000D03*
X114127000Y-49289000D03*
G04 #@! TO.N,/row1*
X114127000Y-67215000D03*
X171125000Y-62625000D03*
X198878000Y-82255000D03*
X174424000Y-66328000D03*
X133137000Y-62595000D03*
X152155000Y-60186000D03*
X95097000Y-67449000D03*
G04 #@! TO.N,/row2*
X171126000Y-80635000D03*
X198903600Y-84683600D03*
X189637000Y-87429000D03*
X190293000Y-88914000D03*
X190863000Y-123789000D03*
X95096000Y-85328000D03*
X174239000Y-76784000D03*
X133137000Y-80561000D03*
X114093000Y-85215000D03*
X152125000Y-78219000D03*
G04 #@! TO.N,/row3*
X133137000Y-98529000D03*
X152123000Y-96233000D03*
X174432000Y-102218000D03*
X114130000Y-103355000D03*
X209150000Y-132813000D03*
X95152000Y-103411000D03*
X200974000Y-87266000D03*
X171127000Y-98677000D03*
G04 #@! TO.N,/row4*
X189305000Y-119011000D03*
X146160000Y-120863000D03*
X191042939Y-89648000D03*
X114131000Y-121252000D03*
X186749000Y-121516000D03*
X189331000Y-91386000D03*
X133137000Y-116540000D03*
X95152000Y-121284000D03*
X186749000Y-123766000D03*
X198571000Y-89772000D03*
X165319000Y-129858000D03*
X198321000Y-149040000D03*
X184562000Y-134616000D03*
G04 #@! TO.N,Net-(D31-Pad2)*
X194574000Y-120264000D03*
X202553000Y-119262000D03*
G04 #@! TO.N,Net-(D30-Pad2)*
X185277000Y-135823000D03*
X193552000Y-134821000D03*
G04 #@! TO.N,Net-(U3-Pad1)*
X199031000Y-64358000D03*
G04 #@! TO.N,Net-(U3-Pad2)*
X199031000Y-66864000D03*
G04 #@! TO.N,Net-(U3-Pad5)*
X198929000Y-74483000D03*
G04 #@! TO.N,Net-(U3-Pad6)*
X198878000Y-76988000D03*
G04 #@! TO.N,Net-(U3-Pad12)*
X205883000Y-91052000D03*
G04 #@! TO.N,VCC*
X198980000Y-70801000D03*
G04 #@! TD*
G04 #@! TO.N,Net-(D1-Pad2)*
D21*
X81270001Y-59500001D02*
X84813999Y-59500001D01*
X84813999Y-59500001D02*
X87325000Y-56989000D01*
X95118000Y-54415000D02*
X96724000Y-54415000D01*
X79445000Y-57675000D02*
X81270001Y-59500001D01*
X96724000Y-54415000D02*
X96726000Y-54413000D01*
G04 #@! TO.N,/col0*
X87273920Y-97974803D02*
X87945197Y-97974803D01*
X87945197Y-97974803D02*
X90045000Y-95875000D01*
X87274336Y-79974797D02*
X87846205Y-79974797D01*
X87332717Y-115973170D02*
X87946830Y-115973170D01*
X87281993Y-133974676D02*
X87945324Y-133974676D01*
X87879000Y-62041000D02*
X90045000Y-59875000D01*
X87846205Y-79974797D02*
X89946002Y-77875000D01*
X87946830Y-115973170D02*
X90045000Y-113875000D01*
X89946002Y-77875000D02*
X90045000Y-77875000D01*
X87945324Y-133974676D02*
X90045000Y-131875000D01*
X87162000Y-62041000D02*
X87879000Y-62041000D01*
G04 #@! TO.N,Net-(D2-Pad2)*
X81270001Y-77500001D02*
X84820999Y-77500001D01*
X79445000Y-75675000D02*
X81270001Y-77500001D01*
X84820999Y-77500001D02*
X87279000Y-75042000D01*
X95146000Y-72387000D02*
X95118000Y-72415000D01*
X96671000Y-72387000D02*
X95146000Y-72387000D01*
G04 #@! TO.N,Net-(D3-Pad2)*
X81270001Y-95500001D02*
X84912999Y-95500001D01*
X96671000Y-90434000D02*
X95137000Y-90434000D01*
X79445000Y-93675000D02*
X81270001Y-95500001D01*
X95137000Y-90434000D02*
X95118000Y-90415000D01*
X84912999Y-95500001D02*
X87278000Y-93135000D01*
G04 #@! TO.N,Net-(D4-Pad2)*
X95118000Y-108415000D02*
X96679000Y-108415000D01*
X79445000Y-111675000D02*
X81270001Y-113500001D01*
X81270001Y-113500001D02*
X84988999Y-113500001D01*
X84988999Y-113500001D02*
X87278000Y-111211000D01*
X96679000Y-108415000D02*
X96727000Y-108463000D01*
G04 #@! TO.N,Net-(D5-Pad2)*
X96782000Y-126390000D02*
X95143000Y-126390000D01*
X84746999Y-131500001D02*
X87224000Y-129023000D01*
X81270001Y-131500001D02*
X84746999Y-131500001D01*
X79445000Y-129675000D02*
X81270001Y-131500001D01*
X95143000Y-126390000D02*
X95118000Y-126415000D01*
G04 #@! TO.N,Net-(D6-Pad2)*
X115760000Y-54410000D02*
X114123000Y-54410000D01*
X100270001Y-59500001D02*
X103767999Y-59500001D01*
X98445000Y-57675000D02*
X100270001Y-59500001D01*
X103767999Y-59500001D02*
X106260000Y-57008000D01*
X114123000Y-54410000D02*
X114118000Y-54415000D01*
G04 #@! TO.N,/col1*
X106260000Y-80018000D02*
X106902000Y-80018000D01*
X183472346Y-118474069D02*
X183448487Y-118450210D01*
X109045000Y-130100000D02*
X109045000Y-131875000D01*
X106945060Y-61974940D02*
X109045000Y-59875000D01*
X106261095Y-61974940D02*
X106945060Y-61974940D01*
X183472346Y-118522654D02*
X183472346Y-118474069D01*
X185426654Y-118522654D02*
X183472346Y-118522654D01*
X107435000Y-128490000D02*
X109045000Y-130100000D01*
X106301624Y-97974239D02*
X106945761Y-97974239D01*
X106902000Y-80018000D02*
X109045000Y-77875000D01*
X106264000Y-116051000D02*
X106869000Y-116051000D01*
X106869000Y-116051000D02*
X109045000Y-113875000D01*
X106945761Y-97974239D02*
X109045000Y-95875000D01*
G04 #@! TO.N,Net-(D7-Pad2)*
X103619999Y-77500001D02*
X106260000Y-74860000D01*
X100270001Y-77500001D02*
X103619999Y-77500001D01*
X98445000Y-75675000D02*
X100270001Y-77500001D01*
X115760000Y-72410000D02*
X114123000Y-72410000D01*
X114123000Y-72410000D02*
X114118000Y-72415000D01*
G04 #@! TO.N,Net-(D8-Pad2)*
X115726000Y-90410000D02*
X114123000Y-90410000D01*
X98445000Y-93675000D02*
X100270001Y-95500001D01*
X100270001Y-95500001D02*
X103666999Y-95500001D01*
X114123000Y-90410000D02*
X114118000Y-90415000D01*
X103666999Y-95500001D02*
X106226000Y-92941000D01*
G04 #@! TO.N,Net-(D9-Pad2)*
X103655999Y-113500001D02*
X106226000Y-110930000D01*
X98445000Y-111675000D02*
X100270001Y-113500001D01*
X100270001Y-113500001D02*
X103655999Y-113500001D01*
X114118000Y-108415000D02*
X115664000Y-108415000D01*
X115664000Y-108415000D02*
X115688000Y-108439000D01*
G04 #@! TO.N,Net-(D10-Pad2)*
X98445000Y-129675000D02*
X100270001Y-131500001D01*
X114118000Y-126415000D02*
X115648000Y-126415000D01*
X100270001Y-131500001D02*
X103659999Y-131500001D01*
X103659999Y-131500001D02*
X106226000Y-128934000D01*
X115648000Y-126415000D02*
X115653000Y-126410000D01*
G04 #@! TO.N,Net-(D11-Pad2)*
X122747999Y-54738001D02*
X125379000Y-52107000D01*
X134731000Y-49695000D02*
X133138000Y-49695000D01*
X119270001Y-54738001D02*
X122747999Y-54738001D01*
X133138000Y-49695000D02*
X133133000Y-49690000D01*
X117445000Y-52913000D02*
X119270001Y-54738001D01*
G04 #@! TO.N,/col2*
X125195208Y-93212412D02*
X125945588Y-93212412D01*
X125945177Y-111212823D02*
X128045000Y-109113000D01*
X187149307Y-117825307D02*
X186774532Y-117450532D01*
X186774532Y-117450532D02*
X183423047Y-117450532D01*
X125945142Y-75212858D02*
X128045000Y-73113000D01*
X125945588Y-93212412D02*
X128045000Y-91113000D01*
X125230000Y-57265000D02*
X125893000Y-57265000D01*
X125272441Y-111212823D02*
X125945177Y-111212823D01*
X125345079Y-129210616D02*
X125947384Y-129210616D01*
X125947384Y-129210616D02*
X128045000Y-127113000D01*
X125893000Y-57265000D02*
X128045000Y-55113000D01*
X125269643Y-75212858D02*
X125945142Y-75212858D01*
G04 #@! TO.N,Net-(D12-Pad2)*
X133144000Y-67679000D02*
X133133000Y-67690000D01*
X134695000Y-67679000D02*
X133144000Y-67679000D01*
X117445000Y-70913000D02*
X119270001Y-72738001D01*
X122790999Y-72738001D02*
X125306000Y-70223000D01*
X119270001Y-72738001D02*
X122790999Y-72738001D01*
G04 #@! TO.N,Net-(D13-Pad2)*
X122848999Y-90738001D02*
X125270000Y-88317000D01*
X133162000Y-85719000D02*
X133133000Y-85690000D01*
X117445000Y-88913000D02*
X119270001Y-90738001D01*
X134696000Y-85719000D02*
X133162000Y-85719000D01*
X119270001Y-90738001D02*
X122848999Y-90738001D01*
G04 #@! TO.N,Net-(D14-Pad2)*
X133135000Y-103688000D02*
X133133000Y-103690000D01*
X119270001Y-108738001D02*
X122547999Y-108738001D01*
X117445000Y-106913000D02*
X119270001Y-108738001D01*
X122547999Y-108738001D02*
X125233000Y-106053000D01*
X134733000Y-103688000D02*
X133135000Y-103688000D01*
G04 #@! TO.N,Net-(D15-Pad2)*
X117445000Y-124913000D02*
X119270001Y-126738001D01*
X133141000Y-121698000D02*
X133133000Y-121690000D01*
X134733000Y-121698000D02*
X133141000Y-121698000D01*
X122709999Y-126738001D02*
X125270000Y-124178000D01*
X119270001Y-126738001D02*
X122709999Y-126738001D01*
G04 #@! TO.N,Net-(D16-Pad2)*
X141809999Y-52357001D02*
X144396000Y-49771000D01*
X153785000Y-47322000D02*
X152173000Y-47322000D01*
X152173000Y-47322000D02*
X152150000Y-47345000D01*
X138270001Y-52357001D02*
X141809999Y-52357001D01*
X136445000Y-50532000D02*
X138270001Y-52357001D01*
G04 #@! TO.N,/col3*
X144182069Y-90831059D02*
X144945941Y-90831059D01*
X175946000Y-116085000D02*
X174144000Y-116085000D01*
X144848000Y-54929000D02*
X147045000Y-52732000D01*
X147045000Y-106732000D02*
X147045000Y-106817000D01*
X141445000Y-112932000D02*
X141445000Y-112417000D01*
X154118000Y-130883000D02*
X153619000Y-130883000D01*
X144945941Y-90831059D02*
X147045000Y-88732000D01*
X179795000Y-119934000D02*
X175946000Y-116085000D01*
X144211000Y-54929000D02*
X144848000Y-54929000D01*
X156241000Y-128760000D02*
X154118000Y-130883000D01*
X144287000Y-72878000D02*
X144899000Y-72878000D01*
X147045000Y-106817000D02*
X144107000Y-109755000D01*
X141445000Y-112417000D02*
X144107000Y-109755000D01*
X144899000Y-72878000D02*
X147045000Y-70732000D01*
G04 #@! TO.N,Net-(D17-Pad2)*
X152186000Y-65381000D02*
X152150000Y-65345000D01*
X136445000Y-68532000D02*
X138270001Y-70357001D01*
X153751000Y-65381000D02*
X152186000Y-65381000D01*
X141835999Y-70357001D02*
X144399000Y-67794000D01*
X138270001Y-70357001D02*
X141835999Y-70357001D01*
G04 #@! TO.N,Net-(D18-Pad2)*
X141652999Y-88357001D02*
X144294000Y-85716000D01*
X136445000Y-86532000D02*
X138270001Y-88357001D01*
X138270001Y-88357001D02*
X141652999Y-88357001D01*
X152183000Y-83378000D02*
X152150000Y-83345000D01*
X153758000Y-83378000D02*
X152183000Y-83378000D01*
G04 #@! TO.N,Net-(D19-Pad2)*
X136445000Y-104532000D02*
X138270001Y-106357001D01*
X138270001Y-106357001D02*
X141751999Y-106357001D01*
X152233000Y-101428000D02*
X152150000Y-101345000D01*
X153644000Y-101428000D02*
X152233000Y-101428000D01*
X141751999Y-106357001D02*
X144255000Y-103854000D01*
G04 #@! TO.N,Net-(D20-Pad2)*
X149426000Y-120863000D02*
X150786000Y-120863000D01*
X148930001Y-124734999D02*
X149092000Y-124573000D01*
X149548999Y-123857001D02*
X149861001Y-123857001D01*
X150793000Y-122925002D02*
X150793000Y-120856000D01*
X152045000Y-115132000D02*
X152045000Y-119604000D01*
X147564999Y-124734999D02*
X148930001Y-124734999D01*
X153396000Y-125947000D02*
X150793000Y-123344000D01*
X145739998Y-126560000D02*
X147564999Y-124734999D01*
X149092000Y-124573000D02*
X149092000Y-124314000D01*
X149092000Y-124314000D02*
X149548999Y-123857001D01*
X150786000Y-120863000D02*
X150793000Y-120856000D01*
X152045000Y-119604000D02*
X150793000Y-120856000D01*
X145641000Y-126560000D02*
X145739998Y-126560000D01*
X149861001Y-123857001D02*
X150793000Y-122925002D01*
X150793000Y-123344000D02*
X150793000Y-122925002D01*
G04 #@! TO.N,Net-(D21-Pad2)*
X157270001Y-54738001D02*
X160696999Y-54738001D01*
X160696999Y-54738001D02*
X163258000Y-52177000D01*
X155445000Y-52913000D02*
X157270001Y-54738001D01*
X172647000Y-49727000D02*
X171132000Y-49727000D01*
G04 #@! TO.N,/col4*
X163824086Y-57212959D02*
X165924045Y-55113000D01*
X166045000Y-109113000D02*
X166045000Y-110885000D01*
X163945620Y-75212380D02*
X166045000Y-73113000D01*
X165924045Y-55113000D02*
X166045000Y-55113000D01*
X175830129Y-121726450D02*
X165991999Y-111888320D01*
X177639855Y-119916724D02*
X177746276Y-119916724D01*
X163332000Y-93289000D02*
X163869000Y-93289000D01*
X165991999Y-111888320D02*
X165991999Y-110938001D01*
X163296079Y-75212380D02*
X163945620Y-75212380D01*
X163869000Y-93289000D02*
X166045000Y-91113000D01*
X166045000Y-110885000D02*
X165991999Y-110938001D01*
X175830129Y-121726450D02*
X177639855Y-119916724D01*
X163258401Y-57212959D02*
X163824086Y-57212959D01*
G04 #@! TO.N,Net-(D22-Pad2)*
X172721000Y-67709000D02*
X171150000Y-67709000D01*
X171150000Y-67709000D02*
X171132000Y-67727000D01*
X155445000Y-70913000D02*
X157270001Y-72738001D01*
X160565999Y-72738001D02*
X163183000Y-70121000D01*
X157270001Y-72738001D02*
X160565999Y-72738001D01*
G04 #@! TO.N,Net-(D23-Pad2)*
X171140000Y-85719000D02*
X171132000Y-85727000D01*
X155445000Y-88913000D02*
X157270001Y-90738001D01*
X160613999Y-90738001D02*
X163221000Y-88131000D01*
X157270001Y-90738001D02*
X160613999Y-90738001D01*
X172722000Y-85719000D02*
X171140000Y-85719000D01*
G04 #@! TO.N,Net-(D24-Pad2)*
X160991999Y-108738001D02*
X163371000Y-106359000D01*
X157270001Y-108738001D02*
X160991999Y-108738001D01*
X172649000Y-103725000D02*
X171134000Y-103725000D01*
X171134000Y-103725000D02*
X171132000Y-103727000D01*
X155445000Y-106913000D02*
X157270001Y-108738001D01*
G04 #@! TO.N,Net-(D25-Pad2)*
X168450695Y-126295000D02*
X167712500Y-125556805D01*
X176897000Y-125256000D02*
X176897000Y-125821685D01*
X176897000Y-125821685D02*
X180432022Y-129356707D01*
X168844000Y-126295000D02*
X168450695Y-126295000D01*
X180432022Y-129356707D02*
X183484997Y-129356707D01*
X183484997Y-129356707D02*
X183909998Y-128931706D01*
G04 #@! TO.N,Net-(D26-Pad2)*
X184061000Y-58331000D02*
X184061000Y-58091002D01*
X189862000Y-48711000D02*
X190045000Y-48894000D01*
X184061000Y-58091002D02*
X185043501Y-57108501D01*
X190045000Y-48894000D02*
X190045000Y-52107002D01*
X189862000Y-46378000D02*
X189862000Y-48711000D01*
X190045000Y-52107002D02*
X185043501Y-57108501D01*
G04 #@! TO.N,/col5*
X179453000Y-46694000D02*
X182249000Y-49490000D01*
X179445000Y-84124000D02*
X181581499Y-86260499D01*
X182856000Y-114683000D02*
X185045000Y-112494000D01*
X185045000Y-76494000D02*
X185045000Y-77075000D01*
X180520999Y-73028999D02*
X179445000Y-71953000D01*
X182299000Y-114683000D02*
X182856000Y-114683000D01*
X185045000Y-76494000D02*
X185045000Y-75144000D01*
X192415129Y-131311450D02*
X194274355Y-129452224D01*
X179445000Y-82694000D02*
X179445000Y-82675000D01*
X192415129Y-131311450D02*
X192415129Y-129622129D01*
X188270000Y-123789001D02*
X188270000Y-115719000D01*
X192415129Y-129622129D02*
X188270000Y-125477000D01*
X188270000Y-115719000D02*
X185045000Y-112494000D01*
X182929999Y-73028999D02*
X180520999Y-73028999D01*
X179445000Y-46694000D02*
X179453000Y-46694000D01*
X194274355Y-129452224D02*
X194281776Y-129452224D01*
X179445000Y-82694000D02*
X179445000Y-84124000D01*
X185045000Y-75144000D02*
X182929999Y-73028999D01*
G04 #@! TO.N,Net-(D27-Pad2)*
X174445000Y-74294000D02*
X176270001Y-76119001D01*
X174445000Y-74294000D02*
X174445000Y-71349000D01*
X174431000Y-71335000D02*
X173091000Y-71335000D01*
X173091000Y-71335000D02*
X173088000Y-71338000D01*
X179814999Y-76119001D02*
X182180000Y-73754000D01*
X176270001Y-76119001D02*
X179814999Y-76119001D01*
X174445000Y-71349000D02*
X174431000Y-71335000D01*
G04 #@! TO.N,Net-(D28-Pad2)*
X174293000Y-81868000D02*
X174259000Y-81902000D01*
X188219999Y-86719001D02*
X190045000Y-84894000D01*
X175575000Y-81868000D02*
X174293000Y-81868000D01*
X183395001Y-86719001D02*
X188219999Y-86719001D01*
X181587000Y-84911000D02*
X183395001Y-86719001D01*
G04 #@! TO.N,Net-(D29-Pad2)*
X174445000Y-107349000D02*
X174431000Y-107335000D01*
X174431000Y-107335000D02*
X173286000Y-107335000D01*
X173286000Y-107335000D02*
X173244000Y-107377000D01*
X174445000Y-110294000D02*
X174445000Y-107349000D01*
X179703999Y-112119001D02*
X182225000Y-109598000D01*
X174445000Y-110294000D02*
X176270001Y-112119001D01*
X176270001Y-112119001D02*
X179703999Y-112119001D01*
G04 #@! TO.N,/col6*
X202262304Y-114823275D02*
X201485129Y-115600450D01*
G04 #@! TO.N,GND*
X196881000Y-51714000D02*
X196881000Y-54254000D01*
G04 #@! TO.N,+BATT*
X212101000Y-46634000D02*
X213188000Y-64180600D01*
X213188401Y-94411599D02*
X209000000Y-98600000D01*
X213188401Y-64180601D02*
X213188401Y-94411599D01*
G04 #@! TO.N,/row0*
X180510000Y-58330000D02*
X180511000Y-58331000D01*
X171132000Y-46177000D02*
X171132000Y-44745000D01*
X95118000Y-50865000D02*
X114118000Y-50865000D01*
X195216238Y-78333600D02*
X194465000Y-77582362D01*
X114118000Y-49298000D02*
X114127000Y-49289000D01*
X171132000Y-46177000D02*
X157967998Y-46177000D01*
X177333001Y-51368999D02*
X176323999Y-51368999D01*
X198878000Y-79545000D02*
X198092800Y-79545000D01*
X133133000Y-44538000D02*
X133135000Y-44536000D01*
X194465000Y-77582362D02*
X194465000Y-63469000D01*
X95118000Y-49382000D02*
X95097000Y-49361000D01*
X155585998Y-43795000D02*
X152150000Y-43795000D01*
X118843000Y-46140000D02*
X114118000Y-50865000D01*
X152150000Y-42091000D02*
X152152000Y-42089000D01*
X171132000Y-44745000D02*
X171125000Y-44738000D01*
X183643000Y-61463000D02*
X180511000Y-58331000D01*
X180511000Y-54546998D02*
X177333001Y-51368999D01*
X133133000Y-46140000D02*
X118843000Y-46140000D01*
X133133000Y-46140000D02*
X133133000Y-44538000D01*
X176323999Y-51368999D02*
X171132000Y-46177000D01*
X192459000Y-61463000D02*
X183643000Y-61463000D01*
X152150000Y-43795000D02*
X152150000Y-42091000D01*
X198093000Y-79545000D02*
X196881000Y-61874000D01*
X152150000Y-43795000D02*
X135478000Y-43795000D01*
X194465000Y-63469000D02*
X192459000Y-61463000D01*
X135478000Y-43795000D02*
X133133000Y-46140000D01*
X180511000Y-58331000D02*
X180511000Y-54546998D01*
X114118000Y-50865000D02*
X114118000Y-49298000D01*
X95118000Y-50865000D02*
X95118000Y-49382000D01*
X196881000Y-61874000D02*
X195216000Y-78333600D01*
X157967998Y-46177000D02*
X155585998Y-43795000D01*
X180510000Y-56992000D02*
X180510000Y-58330000D01*
G04 #@! TO.N,/row1*
X197497000Y-80873600D02*
X196881000Y-64414000D01*
X95097000Y-67449000D02*
X95097000Y-68844000D01*
X114118000Y-68865000D02*
X114118000Y-67224000D01*
X194014990Y-70784990D02*
X191015000Y-67785000D01*
X95097000Y-68844000D02*
X95118000Y-68865000D01*
X198878000Y-82255000D02*
X197496600Y-80873600D01*
X174431000Y-67476000D02*
X171132000Y-64177000D01*
X194014990Y-79672352D02*
X194014990Y-70784990D01*
X133133000Y-64140000D02*
X118843000Y-64140000D01*
X171132000Y-62632000D02*
X171125000Y-62625000D01*
X114118000Y-68865000D02*
X95118000Y-68865000D01*
X133133000Y-64140000D02*
X133133000Y-62599000D01*
X114118000Y-67224000D02*
X114127000Y-67215000D01*
X157967998Y-64177000D02*
X155585998Y-61795000D01*
X152150000Y-61795000D02*
X135478000Y-61795000D01*
X195216238Y-80873600D02*
X194014990Y-79672352D01*
X191015000Y-67785000D02*
X174431000Y-67785000D01*
X174431000Y-67785000D02*
X174431000Y-67476000D01*
X171132000Y-64177000D02*
X171132000Y-62632000D01*
X135478000Y-61795000D02*
X133133000Y-64140000D01*
X196881000Y-64414000D02*
X195216000Y-80873600D01*
X171132000Y-64177000D02*
X157967998Y-64177000D01*
X133133000Y-62599000D02*
X133137000Y-62595000D01*
X152150000Y-61795000D02*
X152150000Y-60191000D01*
X118843000Y-64140000D02*
X114118000Y-68865000D01*
X155585998Y-61795000D02*
X152150000Y-61795000D01*
X174424000Y-66328000D02*
X174424000Y-67778000D01*
X152150000Y-60191000D02*
X152155000Y-60186000D01*
X174424000Y-67778000D02*
X174431000Y-67785000D01*
G04 #@! TO.N,/row2*
X190293000Y-107818000D02*
X191590500Y-109115500D01*
X194010402Y-83413600D02*
X189995002Y-87429000D01*
X174259000Y-76804000D02*
X174239000Y-76784000D01*
X198151400Y-84683600D02*
X198903600Y-84683600D01*
X157967998Y-82177000D02*
X155585998Y-79795000D01*
X191590500Y-122438195D02*
X191590500Y-123061500D01*
X155585998Y-79795000D02*
X152150000Y-79795000D01*
X114118000Y-86865000D02*
X114118000Y-85240000D01*
X152150000Y-79795000D02*
X152150000Y-78244000D01*
X171126000Y-80635000D02*
X171126000Y-82171000D01*
X189995002Y-87429000D02*
X189637000Y-87429000D01*
X95118000Y-86865000D02*
X95118000Y-85350000D01*
X175483000Y-79576000D02*
X174259000Y-78352000D01*
X193564980Y-81762342D02*
X193564980Y-80303980D01*
X192837000Y-79576000D02*
X175483000Y-79576000D01*
X152150000Y-78244000D02*
X152125000Y-78219000D01*
X174259000Y-78352000D02*
X174259000Y-76804000D01*
X133133000Y-80565000D02*
X133137000Y-80561000D01*
X133133000Y-82140000D02*
X133133000Y-80565000D01*
X95118000Y-85350000D02*
X95096000Y-85328000D01*
X133133000Y-82140000D02*
X118843000Y-82140000D01*
X114118000Y-86865000D02*
X95118000Y-86865000D01*
X196881000Y-66954000D02*
X194010000Y-83413600D01*
X195216238Y-83413600D02*
X193564980Y-81762342D01*
X174259000Y-78352000D02*
X174259000Y-79050000D01*
X171132000Y-82177000D02*
X157967998Y-82177000D01*
X171126000Y-82171000D02*
X171132000Y-82177000D01*
X118843000Y-82140000D02*
X114118000Y-86865000D01*
X174259000Y-79050000D02*
X171132000Y-82177000D01*
X190293000Y-88914000D02*
X190293000Y-107818000D01*
X152150000Y-79795000D02*
X135478000Y-79795000D01*
X196881000Y-66954000D02*
X195216000Y-83413600D01*
X191590500Y-123061500D02*
X190863000Y-123789000D01*
X135478000Y-79795000D02*
X133133000Y-82140000D01*
X196881000Y-66954000D02*
X198151000Y-84683600D01*
X191590500Y-109115500D02*
X191590500Y-122438195D01*
X114118000Y-85240000D02*
X114093000Y-85215000D01*
X193564980Y-80303980D02*
X192837000Y-79576000D01*
G04 #@! TO.N,/row3*
X175934002Y-102218000D02*
X174432000Y-102218000D01*
X208228500Y-132047195D02*
X208384195Y-132047195D01*
X95152000Y-103411000D02*
X95152000Y-104831000D01*
X172518999Y-110853001D02*
X172518999Y-105697001D01*
X200974000Y-87266000D02*
X199661600Y-85953600D01*
X152150000Y-97795000D02*
X152150000Y-96260000D01*
X95152000Y-104831000D02*
X95118000Y-104865000D01*
X205849539Y-132047195D02*
X198316345Y-124514001D01*
X174431000Y-103785000D02*
X174431000Y-103476000D01*
X116279998Y-104865000D02*
X114118000Y-104865000D01*
X133133000Y-98533000D02*
X133137000Y-98529000D01*
X192198402Y-85953600D02*
X175934002Y-102218000D01*
X135478000Y-97795000D02*
X133133000Y-100140000D01*
X208228500Y-132047195D02*
X205849539Y-132047195D01*
X114130000Y-104853000D02*
X114118000Y-104865000D01*
X208384195Y-132047195D02*
X209150000Y-132813000D01*
X114130000Y-103355000D02*
X114130000Y-104853000D01*
X121004998Y-100140000D02*
X116279998Y-104865000D01*
X174432000Y-102218000D02*
X174432000Y-103784000D01*
X171132000Y-100177000D02*
X154532000Y-100177000D01*
X171132000Y-98682000D02*
X171127000Y-98677000D01*
X174432000Y-103784000D02*
X174431000Y-103785000D01*
X152150000Y-96260000D02*
X152123000Y-96233000D01*
X171132000Y-100177000D02*
X171132000Y-98682000D01*
X196881000Y-69494000D02*
X192198000Y-85953600D01*
X172518999Y-105697001D02*
X174431000Y-103785000D01*
X198316345Y-124514001D02*
X186179999Y-124514001D01*
X154532000Y-100177000D02*
X152150000Y-97795000D01*
X199662000Y-85953600D02*
X196881000Y-69494000D01*
X152150000Y-97795000D02*
X135478000Y-97795000D01*
X114118000Y-104865000D02*
X95118000Y-104865000D01*
X186179999Y-124514001D02*
X172518999Y-110853001D01*
X133133000Y-100140000D02*
X133133000Y-98533000D01*
X174431000Y-103476000D02*
X171132000Y-100177000D01*
X133133000Y-100140000D02*
X121004998Y-100140000D01*
G04 #@! TO.N,/row4*
X198571000Y-89772000D02*
X198159800Y-89772000D01*
X198160000Y-89772000D02*
X196881000Y-72034000D01*
X95118000Y-121318000D02*
X95152000Y-121284000D01*
X133133000Y-116544000D02*
X133137000Y-116540000D01*
X196881000Y-72034000D02*
X192197000Y-88493600D01*
X198321000Y-149040000D02*
X184562000Y-134616000D01*
X133133000Y-118140000D02*
X133133000Y-116544000D01*
X184562000Y-134616000D02*
X165319000Y-129858000D01*
X114131000Y-122852000D02*
X114118000Y-122865000D01*
X95118000Y-122865000D02*
X95118000Y-121318000D01*
X144515999Y-122507001D02*
X146160000Y-120863000D01*
X148203999Y-131608001D02*
X144515999Y-127920001D01*
X135354002Y-118140000D02*
X133133000Y-118140000D01*
X199289389Y-147592306D02*
X199122500Y-147759195D01*
X139721003Y-122507001D02*
X135354002Y-118140000D01*
X198321000Y-148560695D02*
X199122500Y-147759195D01*
X163568999Y-131608001D02*
X148203999Y-131608001D01*
X189331000Y-91386000D02*
X189331000Y-118985000D01*
X144515999Y-127920001D02*
X144515999Y-122507001D01*
X118843000Y-118140000D02*
X114118000Y-122865000D01*
X192197339Y-88493600D02*
X191042939Y-89648000D01*
X114118000Y-122865000D02*
X95118000Y-122865000D01*
X189331000Y-118985000D02*
X189305000Y-119011000D01*
X181937000Y-138750695D02*
X182530500Y-138157195D01*
X147236000Y-120863000D02*
X147243000Y-120856000D01*
X165937500Y-129239500D02*
X165319000Y-129858000D01*
X186749000Y-121516000D02*
X186749000Y-123766000D01*
X133133000Y-118140000D02*
X118843000Y-118140000D01*
X184562000Y-134616000D02*
X181937000Y-138751000D01*
X144515999Y-122507001D02*
X139721003Y-122507001D01*
X146160000Y-120863000D02*
X147236000Y-120863000D01*
X198321000Y-149040000D02*
X198321000Y-148560695D01*
X165937500Y-128631195D02*
X165937500Y-129239500D01*
X114131000Y-121252000D02*
X114131000Y-122852000D01*
X165319000Y-129858000D02*
X163568999Y-131608001D01*
G04 #@! TO.N,Net-(D31-Pad2)*
X194265695Y-120264000D02*
X193365500Y-119363805D01*
X206287103Y-123610961D02*
X208759743Y-123610961D01*
X202553000Y-119262000D02*
X202553000Y-119876858D01*
X202553000Y-119876858D02*
X206287103Y-123610961D01*
X208759743Y-123610961D02*
X209564998Y-122805706D01*
X194574000Y-120264000D02*
X194265695Y-120264000D01*
G04 #@! TO.N,Net-(D30-Pad2)*
X184305500Y-135082805D02*
X184536805Y-135082805D01*
X200069997Y-138941707D02*
X200494998Y-138516706D01*
X193552000Y-135386685D02*
X197107022Y-138941707D01*
X184536805Y-135082805D02*
X185277000Y-135823000D01*
X197107022Y-138941707D02*
X200069997Y-138941707D01*
X193552000Y-134821000D02*
X193552000Y-135386685D01*
G04 #@! TO.N,Net-(U3-Pad1)*
X199031000Y-64358000D02*
X197766600Y-63093600D01*
X197767000Y-63093600D02*
X196881000Y-46634000D01*
G04 #@! TO.N,Net-(U3-Pad2)*
X197801000Y-65633600D02*
X196881000Y-49174000D01*
X199031000Y-66864000D02*
X197800600Y-65633600D01*
G04 #@! TO.N,Net-(U3-Pad5)*
X198929000Y-74483000D02*
X197699600Y-73253600D01*
X197700000Y-73253600D02*
X196881000Y-56794000D01*
G04 #@! TO.N,Net-(U3-Pad6)*
X198076000Y-76988000D02*
X196881000Y-59334000D01*
X198878000Y-76988000D02*
X198075800Y-76988000D01*
G04 #@! TO.N,Net-(U3-Pad12)*
X205883000Y-91052000D02*
X207134600Y-92303600D01*
X207135000Y-92303600D02*
X210795000Y-75844000D01*
G04 #@! TO.N,VCC*
X197797000Y-71983600D02*
X195555000Y-55524000D01*
X198980000Y-70801000D02*
X197797400Y-71983600D01*
G04 #@! TD*
G04 #@! TA.AperFunction,Conductor*
G04 #@! TO.N,GND*
G36*
X191918804Y-58789294D02*
G01*
X191950958Y-58808409D01*
X192217656Y-59025921D01*
X192266079Y-59058094D01*
X192267549Y-59059086D01*
X192315159Y-59091685D01*
X192317671Y-59093043D01*
X192705688Y-59299355D01*
X192759415Y-59321500D01*
X192761049Y-59322187D01*
X192814096Y-59344923D01*
X192816751Y-59345744D01*
X193237536Y-59472787D01*
X193294557Y-59484077D01*
X193296296Y-59484433D01*
X193352730Y-59496428D01*
X193355566Y-59496726D01*
X193798602Y-59540167D01*
X193798658Y-59540173D01*
X193827359Y-59543000D01*
X211389278Y-59543000D01*
X211401671Y-59543606D01*
X211741843Y-59576961D01*
X211766157Y-59581775D01*
X212059976Y-59670483D01*
X212082892Y-59679929D01*
X212353885Y-59824018D01*
X212374530Y-59837734D01*
X212612370Y-60031712D01*
X212629957Y-60049177D01*
X212825596Y-60285664D01*
X212839456Y-60306213D01*
X212985431Y-60576187D01*
X212995036Y-60599036D01*
X213085795Y-60892231D01*
X213090779Y-60916511D01*
X213126304Y-61254512D01*
X213127000Y-61267787D01*
X213127000Y-62016545D01*
X213117333Y-62065146D01*
X213089803Y-62106348D01*
X213048601Y-62133878D01*
X213000000Y-62143545D01*
X212951399Y-62133878D01*
X212921496Y-62113898D01*
X212921377Y-62114077D01*
X212702968Y-61968140D01*
X212471844Y-61872405D01*
X212226483Y-61823600D01*
X211976317Y-61823600D01*
X211730955Y-61872405D01*
X211499831Y-61968140D01*
X211291823Y-62107127D01*
X211114927Y-62284023D01*
X210975940Y-62492031D01*
X210880205Y-62723155D01*
X210828960Y-62980784D01*
X210828593Y-62980711D01*
X210821733Y-63015201D01*
X210794203Y-63056403D01*
X210753001Y-63083933D01*
X210704400Y-63093600D01*
X210669917Y-63093600D01*
X210424555Y-63142405D01*
X210193431Y-63238140D01*
X209985423Y-63377127D01*
X209808527Y-63554023D01*
X209669540Y-63762031D01*
X209573805Y-63993155D01*
X209525000Y-64238517D01*
X209525000Y-64488682D01*
X209573805Y-64734044D01*
X209669540Y-64965168D01*
X209808527Y-65173176D01*
X209985423Y-65350072D01*
X210193431Y-65489059D01*
X210259116Y-65516267D01*
X210300318Y-65543798D01*
X210327848Y-65585000D01*
X210337515Y-65633600D01*
X210327848Y-65682201D01*
X210300317Y-65723403D01*
X210259116Y-65750933D01*
X210193431Y-65778140D01*
X209985423Y-65917127D01*
X209808527Y-66094023D01*
X209669540Y-66302031D01*
X209573805Y-66533155D01*
X209525000Y-66778517D01*
X209525000Y-67028682D01*
X209573805Y-67274044D01*
X209669540Y-67505168D01*
X209808527Y-67713176D01*
X209985423Y-67890072D01*
X210193431Y-68029059D01*
X210253544Y-68053959D01*
X210294746Y-68081490D01*
X210322276Y-68122692D01*
X210331943Y-68171292D01*
X210322276Y-68219893D01*
X210294745Y-68261095D01*
X210253543Y-68288625D01*
X210247995Y-68290772D01*
X210243708Y-68292316D01*
X210183761Y-68324358D01*
X210151306Y-68440695D01*
X210839503Y-69128892D01*
X210857748Y-69132522D01*
X210898946Y-69160050D01*
X211078551Y-69339655D01*
X211106081Y-69380857D01*
X211115748Y-69429458D01*
X211112934Y-69443600D01*
X211115748Y-69457743D01*
X211106081Y-69506344D01*
X211078551Y-69547546D01*
X210898946Y-69727151D01*
X210857744Y-69754681D01*
X210839501Y-69758309D01*
X210151306Y-70446504D01*
X210182714Y-70559086D01*
X210260686Y-70595751D01*
X210300554Y-70625181D01*
X210326124Y-70667626D01*
X210333505Y-70716627D01*
X210321572Y-70764721D01*
X210292142Y-70804589D01*
X210249697Y-70830159D01*
X210243706Y-70832317D01*
X210183761Y-70864358D01*
X210151306Y-70980695D01*
X210839503Y-71668892D01*
X210857748Y-71672522D01*
X210898946Y-71700050D01*
X211078551Y-71879655D01*
X211106081Y-71920857D01*
X211115748Y-71969458D01*
X211112934Y-71983600D01*
X211115748Y-71997743D01*
X211106081Y-72046344D01*
X211078551Y-72087546D01*
X210898946Y-72267151D01*
X210857744Y-72294681D01*
X210839501Y-72298309D01*
X210151306Y-72986504D01*
X210182714Y-73099086D01*
X210265803Y-73138157D01*
X210305670Y-73167587D01*
X210331240Y-73210033D01*
X210338621Y-73259033D01*
X210326688Y-73307128D01*
X210297258Y-73346995D01*
X210260360Y-73370418D01*
X210193432Y-73398139D01*
X209985423Y-73537127D01*
X209808527Y-73714023D01*
X209669540Y-73922031D01*
X209573805Y-74153155D01*
X209525000Y-74398517D01*
X209525000Y-74648682D01*
X209573805Y-74894044D01*
X209669540Y-75125168D01*
X209808527Y-75333176D01*
X209985423Y-75510072D01*
X210193431Y-75649059D01*
X210259116Y-75676267D01*
X210300318Y-75703798D01*
X210327848Y-75745000D01*
X210337515Y-75793600D01*
X210327848Y-75842201D01*
X210300317Y-75883403D01*
X210259116Y-75910933D01*
X210193431Y-75938140D01*
X209985423Y-76077127D01*
X209808527Y-76254023D01*
X209669540Y-76462031D01*
X209573805Y-76693155D01*
X209525000Y-76938517D01*
X209525000Y-77188682D01*
X209573805Y-77434044D01*
X209669540Y-77665168D01*
X209808527Y-77873176D01*
X209985423Y-78050072D01*
X210193431Y-78189059D01*
X210259116Y-78216267D01*
X210300318Y-78243798D01*
X210327848Y-78285000D01*
X210337515Y-78333600D01*
X210327848Y-78382201D01*
X210300317Y-78423403D01*
X210259116Y-78450933D01*
X210193431Y-78478140D01*
X209985423Y-78617127D01*
X209808527Y-78794023D01*
X209669540Y-79002031D01*
X209573805Y-79233155D01*
X209525000Y-79478517D01*
X209525000Y-79728682D01*
X209573805Y-79974044D01*
X209669540Y-80205168D01*
X209808527Y-80413176D01*
X209985423Y-80590072D01*
X210193431Y-80729059D01*
X210259116Y-80756267D01*
X210300318Y-80783798D01*
X210327848Y-80825000D01*
X210337515Y-80873600D01*
X210327848Y-80922201D01*
X210300317Y-80963403D01*
X210259116Y-80990933D01*
X210193431Y-81018140D01*
X209985423Y-81157127D01*
X209808527Y-81334023D01*
X209669540Y-81542031D01*
X209573805Y-81773155D01*
X209525000Y-82018517D01*
X209525000Y-82268682D01*
X209573805Y-82514044D01*
X209669540Y-82745168D01*
X209808527Y-82953176D01*
X209985423Y-83130072D01*
X210193431Y-83269059D01*
X210259116Y-83296267D01*
X210300318Y-83323798D01*
X210327848Y-83365000D01*
X210337515Y-83413600D01*
X210327848Y-83462201D01*
X210300317Y-83503403D01*
X210259116Y-83530933D01*
X210193431Y-83558140D01*
X209985423Y-83697127D01*
X209808527Y-83874023D01*
X209669540Y-84082031D01*
X209573805Y-84313155D01*
X209525000Y-84558517D01*
X209525000Y-84808682D01*
X209573805Y-85054044D01*
X209669540Y-85285168D01*
X209808527Y-85493176D01*
X209985423Y-85670072D01*
X210193431Y-85809059D01*
X210259116Y-85836267D01*
X210300318Y-85863798D01*
X210327848Y-85905000D01*
X210337515Y-85953600D01*
X210327848Y-86002201D01*
X210300317Y-86043403D01*
X210259116Y-86070933D01*
X210193431Y-86098140D01*
X209985423Y-86237127D01*
X209808527Y-86414023D01*
X209669540Y-86622031D01*
X209573805Y-86853155D01*
X209525000Y-87098517D01*
X209525000Y-87348682D01*
X209573805Y-87594044D01*
X209669540Y-87825168D01*
X209808527Y-88033176D01*
X209985423Y-88210072D01*
X210193431Y-88349059D01*
X210259116Y-88376267D01*
X210300318Y-88403798D01*
X210327848Y-88445000D01*
X210337515Y-88493600D01*
X210327848Y-88542201D01*
X210300317Y-88583403D01*
X210259116Y-88610933D01*
X210193431Y-88638140D01*
X209985423Y-88777127D01*
X209808527Y-88954023D01*
X209669540Y-89162031D01*
X209573805Y-89393155D01*
X209525000Y-89638517D01*
X209525000Y-89888682D01*
X209573805Y-90134044D01*
X209669540Y-90365168D01*
X209808527Y-90573176D01*
X209985423Y-90750072D01*
X210193431Y-90889059D01*
X210259116Y-90916267D01*
X210300318Y-90943798D01*
X210327848Y-90985000D01*
X210337515Y-91033600D01*
X210327848Y-91082201D01*
X210300317Y-91123403D01*
X210259116Y-91150933D01*
X210193431Y-91178140D01*
X209985423Y-91317127D01*
X209808527Y-91494023D01*
X209728256Y-91614158D01*
X209693216Y-91649197D01*
X209647435Y-91668160D01*
X209622659Y-91670600D01*
X207449402Y-91670600D01*
X207400801Y-91660933D01*
X207359600Y-91633403D01*
X206828198Y-91102002D01*
X206800667Y-91060800D01*
X206791000Y-91012199D01*
X206791000Y-90962570D01*
X206756106Y-90787147D01*
X206687658Y-90621899D01*
X206588291Y-90473186D01*
X206461813Y-90346708D01*
X206313100Y-90247341D01*
X206147852Y-90178893D01*
X205972430Y-90144000D01*
X205793570Y-90144000D01*
X205618147Y-90178893D01*
X205452899Y-90247341D01*
X205304186Y-90346708D01*
X205177708Y-90473186D01*
X205078341Y-90621899D01*
X205009893Y-90787147D01*
X204975000Y-90962570D01*
X204975000Y-91141429D01*
X205009893Y-91316852D01*
X205078341Y-91482100D01*
X205177708Y-91630813D01*
X205304186Y-91757291D01*
X205452899Y-91856658D01*
X205618147Y-91925106D01*
X205793570Y-91960000D01*
X205843199Y-91960000D01*
X205891800Y-91969667D01*
X205933002Y-91997197D01*
X205933002Y-91997198D01*
X206660604Y-92724801D01*
X206668973Y-92734035D01*
X206684835Y-92753364D01*
X206781220Y-92832465D01*
X206891188Y-92891244D01*
X207010515Y-92927441D01*
X207109686Y-92937209D01*
X207109723Y-92937211D01*
X207134600Y-92939661D01*
X207159477Y-92937211D01*
X207171925Y-92936600D01*
X209622659Y-92936600D01*
X209671260Y-92946267D01*
X209712462Y-92973797D01*
X209728256Y-92993042D01*
X209808527Y-93113176D01*
X209985423Y-93290072D01*
X210193431Y-93429059D01*
X210424555Y-93524794D01*
X210669917Y-93573600D01*
X210920083Y-93573600D01*
X211165444Y-93524794D01*
X211396568Y-93429059D01*
X211604576Y-93290072D01*
X211781472Y-93113176D01*
X211920459Y-92905168D01*
X212016194Y-92674044D01*
X212067440Y-92416416D01*
X212067806Y-92416488D01*
X212074667Y-92381999D01*
X212102197Y-92340797D01*
X212143399Y-92313267D01*
X212192000Y-92303600D01*
X212226483Y-92303600D01*
X212403626Y-92268364D01*
X212453178Y-92268364D01*
X212498959Y-92287327D01*
X212533999Y-92322367D01*
X212552962Y-92368148D01*
X212555402Y-92392924D01*
X212555402Y-94096795D01*
X212545735Y-94145396D01*
X212518205Y-94186598D01*
X209371168Y-97333636D01*
X209329966Y-97361166D01*
X209281365Y-97370833D01*
X209256589Y-97368393D01*
X209123902Y-97342000D01*
X208876099Y-97342000D01*
X208633055Y-97390344D01*
X208404115Y-97485174D01*
X208198072Y-97622848D01*
X208022848Y-97798072D01*
X207885174Y-98004115D01*
X207790344Y-98233055D01*
X207742000Y-98476099D01*
X207742000Y-98723900D01*
X207790344Y-98966944D01*
X207885174Y-99195884D01*
X208022848Y-99401927D01*
X208198072Y-99577151D01*
X208404115Y-99714825D01*
X208447189Y-99732667D01*
X208488391Y-99760198D01*
X208515921Y-99801399D01*
X208525588Y-99850000D01*
X208515921Y-99898601D01*
X208488390Y-99939803D01*
X208447189Y-99967333D01*
X208404115Y-99985174D01*
X208198072Y-100122848D01*
X208022848Y-100298072D01*
X207885174Y-100504115D01*
X207790344Y-100733055D01*
X207742000Y-100976099D01*
X207742000Y-101223900D01*
X207790344Y-101466944D01*
X207885174Y-101695884D01*
X208022848Y-101901927D01*
X208198072Y-102077151D01*
X208404115Y-102214825D01*
X208447189Y-102232667D01*
X208488391Y-102260198D01*
X208515921Y-102301399D01*
X208525588Y-102350000D01*
X208515921Y-102398601D01*
X208488390Y-102439803D01*
X208447189Y-102467333D01*
X208404115Y-102485174D01*
X208198072Y-102622848D01*
X208022848Y-102798072D01*
X207885174Y-103004115D01*
X207790344Y-103233055D01*
X207742000Y-103476099D01*
X207742000Y-103723900D01*
X207790344Y-103966944D01*
X207885174Y-104195884D01*
X208022848Y-104401927D01*
X208198072Y-104577151D01*
X208404115Y-104714825D01*
X208633055Y-104809655D01*
X208876099Y-104858000D01*
X209123901Y-104858000D01*
X209366944Y-104809655D01*
X209595884Y-104714825D01*
X209801927Y-104577151D01*
X209977151Y-104401927D01*
X210114825Y-104195884D01*
X210209655Y-103966944D01*
X210258000Y-103723900D01*
X210258000Y-103476099D01*
X210209655Y-103233055D01*
X210114825Y-103004115D01*
X209977151Y-102798072D01*
X209801927Y-102622848D01*
X209595884Y-102485174D01*
X209552811Y-102467333D01*
X209511609Y-102439802D01*
X209484079Y-102398601D01*
X209474412Y-102350000D01*
X209484079Y-102301399D01*
X209511610Y-102260197D01*
X209552811Y-102232667D01*
X209595884Y-102214825D01*
X209801927Y-102077151D01*
X209977151Y-101901927D01*
X210114825Y-101695884D01*
X210209655Y-101466944D01*
X210258000Y-101223900D01*
X210258000Y-100976099D01*
X210209655Y-100733055D01*
X210114825Y-100504115D01*
X209977151Y-100298072D01*
X209801927Y-100122848D01*
X209595884Y-99985174D01*
X209552811Y-99967333D01*
X209511609Y-99939802D01*
X209484079Y-99898601D01*
X209474412Y-99850000D01*
X209484079Y-99801399D01*
X209511610Y-99760197D01*
X209552811Y-99732667D01*
X209595884Y-99714825D01*
X209801927Y-99577151D01*
X209977151Y-99401927D01*
X210114825Y-99195884D01*
X210209655Y-98966944D01*
X210258000Y-98723900D01*
X210258000Y-98476098D01*
X210231607Y-98343411D01*
X210231607Y-98293858D01*
X210250570Y-98248077D01*
X210266364Y-98228832D01*
X212910198Y-95584999D01*
X212951400Y-95557469D01*
X213000001Y-95547802D01*
X213048602Y-95557469D01*
X213089804Y-95584999D01*
X213117334Y-95626201D01*
X213127001Y-95674802D01*
X213127001Y-119248997D01*
X213126929Y-119253286D01*
X213125394Y-119298705D01*
X213130987Y-119332804D01*
X213132050Y-119340912D01*
X213136063Y-119381658D01*
X213131206Y-119430973D01*
X213107847Y-119474674D01*
X213069542Y-119506110D01*
X213022123Y-119520494D01*
X212972808Y-119515637D01*
X212946246Y-119504132D01*
X205988815Y-115493201D01*
X205951538Y-115460552D01*
X205929593Y-115416124D01*
X205926320Y-115366679D01*
X205927684Y-115358399D01*
X205936773Y-115312704D01*
X205936773Y-115133844D01*
X205901879Y-114958421D01*
X205833431Y-114793173D01*
X205734064Y-114644460D01*
X205607586Y-114517982D01*
X205458873Y-114418615D01*
X205293625Y-114350167D01*
X205118203Y-114315274D01*
X205052999Y-114315274D01*
X205004398Y-114305607D01*
X204993131Y-114300278D01*
X204872185Y-114235630D01*
X204752858Y-114199433D01*
X204653670Y-114189664D01*
X204653647Y-114189663D01*
X204628774Y-114187213D01*
X204603901Y-114189663D01*
X204591452Y-114190275D01*
X203762722Y-114190275D01*
X203714121Y-114180608D01*
X203699292Y-114173301D01*
X203108027Y-113832439D01*
X203108027Y-113832438D01*
X202973882Y-113755104D01*
X208332106Y-113755104D01*
X208382826Y-113895141D01*
X208614876Y-114008027D01*
X208902218Y-114083363D01*
X209198734Y-114101196D01*
X209493023Y-114060838D01*
X209776104Y-113963042D01*
X209898221Y-113897770D01*
X209949893Y-113755104D01*
X209141000Y-112946211D01*
X208332106Y-113755104D01*
X202973882Y-113755104D01*
X201247099Y-112759621D01*
X201047814Y-112644734D01*
X207626803Y-112644734D01*
X207667161Y-112939023D01*
X207764957Y-113222104D01*
X207830229Y-113344221D01*
X207972895Y-113395893D01*
X208781789Y-112587000D01*
X209500211Y-112587000D01*
X210309104Y-113395893D01*
X210449141Y-113345173D01*
X210562027Y-113113123D01*
X210637363Y-112825781D01*
X210655196Y-112529265D01*
X210614838Y-112234976D01*
X210517042Y-111951895D01*
X210451770Y-111829778D01*
X210309104Y-111778106D01*
X209500211Y-112587000D01*
X208781789Y-112587000D01*
X207972895Y-111778106D01*
X207832858Y-111828826D01*
X207719972Y-112060876D01*
X207644636Y-112348218D01*
X207626803Y-112644734D01*
X201047814Y-112644734D01*
X199169013Y-111561613D01*
X198921452Y-111418895D01*
X208332106Y-111418895D01*
X209141000Y-112227789D01*
X209949893Y-111418895D01*
X209899173Y-111278858D01*
X209667123Y-111165972D01*
X209379781Y-111090636D01*
X209083265Y-111072803D01*
X208788976Y-111113161D01*
X208505895Y-111210957D01*
X208383778Y-111276229D01*
X208332106Y-111418895D01*
X198921452Y-111418895D01*
X192008267Y-107433473D01*
X191970990Y-107400824D01*
X191949045Y-107356396D01*
X191944697Y-107323970D01*
X191944608Y-107302476D01*
X200857000Y-107302476D01*
X200857000Y-107599523D01*
X200914951Y-107890866D01*
X201028628Y-108165307D01*
X201193658Y-108412291D01*
X201403708Y-108622341D01*
X201650692Y-108787371D01*
X201925133Y-108901048D01*
X202216476Y-108959000D01*
X202513524Y-108959000D01*
X202804866Y-108901048D01*
X203079307Y-108787371D01*
X203326291Y-108622341D01*
X203536341Y-108412291D01*
X203701371Y-108165307D01*
X203815048Y-107890866D01*
X203873000Y-107599523D01*
X203873000Y-107343234D01*
X207629928Y-107343234D01*
X207629928Y-108830765D01*
X207645153Y-108985357D01*
X207688426Y-109128010D01*
X207758702Y-109259485D01*
X207853275Y-109374724D01*
X207968514Y-109469297D01*
X208099989Y-109539573D01*
X208242642Y-109582846D01*
X208397234Y-109598072D01*
X209884766Y-109598072D01*
X210039357Y-109582846D01*
X210182010Y-109539573D01*
X210313485Y-109469297D01*
X210428724Y-109374724D01*
X210523297Y-109259485D01*
X210593573Y-109128010D01*
X210636846Y-108985357D01*
X210652072Y-108830765D01*
X210652072Y-107343234D01*
X210636846Y-107188642D01*
X210593573Y-107045989D01*
X210523297Y-106914514D01*
X210428724Y-106799275D01*
X210313485Y-106704702D01*
X210182010Y-106634426D01*
X210039357Y-106591153D01*
X209884766Y-106575928D01*
X208397234Y-106575928D01*
X208242642Y-106591153D01*
X208099989Y-106634426D01*
X207968514Y-106704702D01*
X207853275Y-106799275D01*
X207758702Y-106914514D01*
X207688426Y-107045989D01*
X207645153Y-107188642D01*
X207629928Y-107343234D01*
X203873000Y-107343234D01*
X203873000Y-107302476D01*
X203815048Y-107011133D01*
X203701371Y-106736692D01*
X203536341Y-106489708D01*
X203326291Y-106279658D01*
X203079307Y-106114628D01*
X202804866Y-106000951D01*
X202513524Y-105943000D01*
X202216476Y-105943000D01*
X201925133Y-106000951D01*
X201650692Y-106114628D01*
X201403708Y-106279658D01*
X201193658Y-106489708D01*
X201028628Y-106736692D01*
X200914951Y-107011133D01*
X200857000Y-107302476D01*
X191944608Y-107302476D01*
X191944559Y-107290494D01*
X191923090Y-102119104D01*
X201556106Y-102119104D01*
X201606826Y-102259141D01*
X201838876Y-102372027D01*
X202126218Y-102447363D01*
X202422734Y-102465196D01*
X202717023Y-102424838D01*
X203000104Y-102327042D01*
X203122221Y-102261770D01*
X203173893Y-102119104D01*
X202365000Y-101310211D01*
X201556106Y-102119104D01*
X191923090Y-102119104D01*
X191922956Y-102086940D01*
X191918502Y-101014122D01*
X191918480Y-101008734D01*
X200850803Y-101008734D01*
X200891161Y-101303023D01*
X200988957Y-101586104D01*
X201054229Y-101708221D01*
X201196895Y-101759893D01*
X202005789Y-100951000D01*
X202724211Y-100951000D01*
X203533104Y-101759893D01*
X203673141Y-101709173D01*
X203786027Y-101477123D01*
X203861363Y-101189781D01*
X203879196Y-100893265D01*
X203838838Y-100598976D01*
X203741042Y-100315895D01*
X203675770Y-100193778D01*
X203533104Y-100142106D01*
X202724211Y-100951000D01*
X202005789Y-100951000D01*
X201196895Y-100142106D01*
X201056858Y-100192826D01*
X200943972Y-100424876D01*
X200868636Y-100712218D01*
X200850803Y-101008734D01*
X191918480Y-101008734D01*
X191913529Y-99816114D01*
X191913391Y-99782895D01*
X201556106Y-99782895D01*
X202365000Y-100591789D01*
X203173893Y-99782895D01*
X203123173Y-99642858D01*
X202891123Y-99529972D01*
X202603781Y-99454636D01*
X202307265Y-99436803D01*
X202012976Y-99477161D01*
X201729895Y-99574957D01*
X201607778Y-99640229D01*
X201556106Y-99782895D01*
X191913391Y-99782895D01*
X191895064Y-95368358D01*
X194481000Y-95368358D01*
X194481000Y-96313641D01*
X194483329Y-96337288D01*
X194483485Y-96340708D01*
X194484243Y-96348449D01*
X194487133Y-96375936D01*
X194487218Y-96376765D01*
X194489589Y-96400845D01*
X194490834Y-96405750D01*
X194501358Y-96457018D01*
X194501703Y-96458758D01*
X194512517Y-96515449D01*
X194513348Y-96518201D01*
X194528677Y-96567722D01*
X194551191Y-96621279D01*
X194551867Y-96622918D01*
X194573496Y-96676451D01*
X194574784Y-96678873D01*
X194599500Y-96724584D01*
X194631994Y-96772756D01*
X194632976Y-96774235D01*
X194664581Y-96822533D01*
X194666413Y-96824780D01*
X194699441Y-96864704D01*
X194740674Y-96905648D01*
X194741926Y-96906908D01*
X194782316Y-96948153D01*
X194784454Y-96949921D01*
X194824703Y-96982748D01*
X194873108Y-97014908D01*
X194874580Y-97015900D01*
X194922193Y-97048502D01*
X194924641Y-97049825D01*
X194970488Y-97074203D01*
X195024203Y-97096344D01*
X195025837Y-97097031D01*
X195078903Y-97119775D01*
X195081686Y-97120636D01*
X195131271Y-97135607D01*
X195188300Y-97146900D01*
X195190034Y-97147256D01*
X195246482Y-97159253D01*
X195249286Y-97159548D01*
X195307115Y-97165218D01*
X195307171Y-97165224D01*
X195335357Y-97168000D01*
X198792643Y-97168000D01*
X198816289Y-97165671D01*
X198819706Y-97165514D01*
X198827480Y-97164753D01*
X198854923Y-97161869D01*
X198855749Y-97161785D01*
X198879840Y-97159412D01*
X198884751Y-97158166D01*
X198936016Y-97147642D01*
X198937758Y-97147297D01*
X198994449Y-97136482D01*
X198997201Y-97135651D01*
X199046722Y-97120322D01*
X199100279Y-97097809D01*
X199101918Y-97097133D01*
X199155451Y-97075503D01*
X199157873Y-97074215D01*
X199203584Y-97049499D01*
X199251756Y-97017006D01*
X199253235Y-97016024D01*
X199301533Y-96984418D01*
X199303780Y-96982586D01*
X199343704Y-96949558D01*
X199384648Y-96908326D01*
X199385908Y-96907074D01*
X199427153Y-96866683D01*
X199428921Y-96864545D01*
X199461748Y-96824296D01*
X199493908Y-96775892D01*
X199494900Y-96774420D01*
X199527502Y-96726806D01*
X199528825Y-96724358D01*
X199553203Y-96678511D01*
X199575344Y-96624797D01*
X199576031Y-96623163D01*
X199598775Y-96570096D01*
X199599636Y-96567313D01*
X199614609Y-96517722D01*
X199625900Y-96460700D01*
X199626256Y-96458966D01*
X199638253Y-96402517D01*
X199638548Y-96399713D01*
X199644218Y-96341885D01*
X199644224Y-96341829D01*
X199647000Y-96313642D01*
X199647000Y-95368357D01*
X199644671Y-95344711D01*
X199644514Y-95341293D01*
X199643753Y-95333519D01*
X199640869Y-95306077D01*
X199640785Y-95305251D01*
X199638412Y-95281159D01*
X199637166Y-95276249D01*
X199626642Y-95224984D01*
X199626297Y-95223242D01*
X199615482Y-95166550D01*
X199614651Y-95163798D01*
X199599324Y-95114283D01*
X199576807Y-95060717D01*
X199576132Y-95059079D01*
X199554503Y-95005548D01*
X199553215Y-95003126D01*
X199528496Y-94957410D01*
X199495991Y-94909220D01*
X199495009Y-94907742D01*
X199463418Y-94859465D01*
X199461598Y-94857234D01*
X199428557Y-94817295D01*
X199387309Y-94776334D01*
X199386059Y-94775075D01*
X199345689Y-94733851D01*
X199343475Y-94732020D01*
X199303309Y-94699261D01*
X199254900Y-94667099D01*
X199253428Y-94666105D01*
X199205812Y-94633501D01*
X199203358Y-94632174D01*
X199157506Y-94607793D01*
X199103785Y-94585650D01*
X199102153Y-94584964D01*
X199049100Y-94562225D01*
X199046313Y-94561363D01*
X198996727Y-94546392D01*
X198939693Y-94535099D01*
X198937956Y-94534743D01*
X198881511Y-94522745D01*
X198878771Y-94522457D01*
X198820885Y-94516782D01*
X198820829Y-94516776D01*
X198792643Y-94514000D01*
X195335357Y-94514000D01*
X195311711Y-94516329D01*
X195308293Y-94516485D01*
X195300519Y-94517246D01*
X195273077Y-94520131D01*
X195272251Y-94520215D01*
X195248159Y-94522587D01*
X195243249Y-94523834D01*
X195191984Y-94534358D01*
X195190242Y-94534703D01*
X195133550Y-94545517D01*
X195130798Y-94546348D01*
X195081283Y-94561675D01*
X195027717Y-94584193D01*
X195026079Y-94584868D01*
X194972548Y-94606496D01*
X194970126Y-94607784D01*
X194924410Y-94632503D01*
X194876220Y-94665009D01*
X194874742Y-94665991D01*
X194826465Y-94697581D01*
X194824234Y-94699401D01*
X194784295Y-94732442D01*
X194743334Y-94773691D01*
X194742075Y-94774941D01*
X194700851Y-94815310D01*
X194699020Y-94817524D01*
X194666261Y-94857690D01*
X194634099Y-94906100D01*
X194633105Y-94907572D01*
X194600501Y-94955187D01*
X194599174Y-94957641D01*
X194574793Y-95003493D01*
X194552650Y-95057215D01*
X194551964Y-95058847D01*
X194529225Y-95111899D01*
X194528363Y-95114686D01*
X194513392Y-95164272D01*
X194502099Y-95221307D01*
X194501743Y-95223044D01*
X194489746Y-95279484D01*
X194489446Y-95282335D01*
X194483782Y-95340117D01*
X194483776Y-95340175D01*
X194481000Y-95368358D01*
X191895064Y-95368358D01*
X191895040Y-95362650D01*
X191872953Y-90042680D01*
X191882419Y-89994040D01*
X191882619Y-89993552D01*
X191916045Y-89912852D01*
X191950939Y-89737429D01*
X191950939Y-89687801D01*
X191960606Y-89639200D01*
X191988136Y-89597998D01*
X191988137Y-89597998D01*
X192422339Y-89163797D01*
X192463540Y-89136267D01*
X192512141Y-89126600D01*
X194254147Y-89126600D01*
X194302748Y-89136267D01*
X194343950Y-89163797D01*
X194371480Y-89204999D01*
X194381147Y-89253600D01*
X194371480Y-89302201D01*
X194333805Y-89393155D01*
X194285000Y-89638517D01*
X194285000Y-89888682D01*
X194333805Y-90134044D01*
X194429540Y-90365168D01*
X194568527Y-90573176D01*
X194745423Y-90750072D01*
X194953431Y-90889059D01*
X195019116Y-90916267D01*
X195060318Y-90943798D01*
X195087848Y-90985000D01*
X195097515Y-91033600D01*
X195087848Y-91082201D01*
X195060317Y-91123403D01*
X195019116Y-91150933D01*
X194953431Y-91178140D01*
X194745423Y-91317127D01*
X194568527Y-91494023D01*
X194429540Y-91702031D01*
X194333805Y-91933155D01*
X194285000Y-92178517D01*
X194285000Y-92428682D01*
X194333805Y-92674044D01*
X194429540Y-92905168D01*
X194568527Y-93113176D01*
X194745423Y-93290072D01*
X194953431Y-93429059D01*
X195184555Y-93524794D01*
X195429917Y-93573600D01*
X195680083Y-93573600D01*
X195925444Y-93524794D01*
X196156568Y-93429059D01*
X196364576Y-93290072D01*
X196541472Y-93113176D01*
X196680459Y-92905168D01*
X196776194Y-92674044D01*
X196827440Y-92416416D01*
X196827806Y-92416488D01*
X196834667Y-92381999D01*
X196862197Y-92340797D01*
X196903399Y-92313267D01*
X196952000Y-92303600D01*
X197006483Y-92303600D01*
X197251844Y-92254794D01*
X197482968Y-92159059D01*
X197690976Y-92020072D01*
X197867872Y-91843176D01*
X198006859Y-91635168D01*
X198102594Y-91404044D01*
X198151400Y-91158682D01*
X198151400Y-90908518D01*
X198126758Y-90784637D01*
X198126758Y-90735084D01*
X198145721Y-90689303D01*
X198180760Y-90654264D01*
X198226541Y-90635300D01*
X198276094Y-90635300D01*
X198299917Y-90642526D01*
X198306147Y-90645106D01*
X198481570Y-90680000D01*
X198660430Y-90680000D01*
X198835852Y-90645106D01*
X199001100Y-90576658D01*
X199149813Y-90477291D01*
X199276291Y-90350813D01*
X199375658Y-90202100D01*
X199444106Y-90036852D01*
X199479000Y-89861429D01*
X199479000Y-89682570D01*
X199444106Y-89507147D01*
X199375658Y-89341899D01*
X199276291Y-89193186D01*
X199149813Y-89066708D01*
X199001100Y-88967341D01*
X198835852Y-88898893D01*
X198660430Y-88864000D01*
X198481570Y-88864000D01*
X198306145Y-88898893D01*
X198296684Y-88902813D01*
X198248083Y-88912481D01*
X198199482Y-88902814D01*
X198158280Y-88875284D01*
X198158135Y-88875139D01*
X198157825Y-88874828D01*
X198130361Y-88833582D01*
X198120772Y-88784965D01*
X198123212Y-88760394D01*
X198151400Y-88618682D01*
X198151400Y-88368517D01*
X198102594Y-88123155D01*
X198006859Y-87892031D01*
X197867872Y-87684023D01*
X197690976Y-87507127D01*
X197482968Y-87368140D01*
X197417284Y-87340933D01*
X197376082Y-87313402D01*
X197348552Y-87272200D01*
X197338885Y-87223600D01*
X197348552Y-87174999D01*
X197376083Y-87133797D01*
X197417284Y-87106267D01*
X197482968Y-87079059D01*
X197690976Y-86940072D01*
X197867872Y-86763176D01*
X197948144Y-86643042D01*
X197983184Y-86608003D01*
X198028965Y-86589040D01*
X198053741Y-86586600D01*
X199346799Y-86586600D01*
X199395400Y-86596267D01*
X199436602Y-86623797D01*
X199436602Y-86623798D01*
X200028803Y-87216000D01*
X200056333Y-87257201D01*
X200066000Y-87305802D01*
X200066000Y-87355429D01*
X200100893Y-87530852D01*
X200169341Y-87696100D01*
X200268708Y-87844813D01*
X200395186Y-87971291D01*
X200543899Y-88070658D01*
X200709147Y-88139106D01*
X200884570Y-88174000D01*
X201063430Y-88174000D01*
X201238852Y-88139106D01*
X201404100Y-88070658D01*
X201552813Y-87971291D01*
X201679291Y-87844813D01*
X201778658Y-87696100D01*
X201847106Y-87530852D01*
X201882000Y-87355429D01*
X201882000Y-87176570D01*
X201847106Y-87001147D01*
X201778658Y-86835899D01*
X201679291Y-86687186D01*
X201552813Y-86560708D01*
X201404100Y-86461341D01*
X201238852Y-86392893D01*
X201063430Y-86358000D01*
X201013802Y-86358000D01*
X200965201Y-86348333D01*
X200923999Y-86320803D01*
X200135601Y-85532406D01*
X200127232Y-85523171D01*
X200111364Y-85503835D01*
X200014979Y-85424734D01*
X199905011Y-85365955D01*
X199773720Y-85326129D01*
X199773877Y-85325609D01*
X199741032Y-85315646D01*
X199702728Y-85284209D01*
X199679370Y-85240507D01*
X199674514Y-85191192D01*
X199688899Y-85143773D01*
X199695305Y-85133086D01*
X199708258Y-85113700D01*
X199776706Y-84948452D01*
X199811600Y-84773029D01*
X199811600Y-84594170D01*
X199776706Y-84418747D01*
X199708258Y-84253499D01*
X199608891Y-84104786D01*
X199482413Y-83978308D01*
X199333700Y-83878941D01*
X199168452Y-83810493D01*
X198993030Y-83775600D01*
X198814170Y-83775600D01*
X198638747Y-83810493D01*
X198473502Y-83878940D01*
X198421350Y-83913788D01*
X198375569Y-83932751D01*
X198326016Y-83932751D01*
X198280235Y-83913788D01*
X198260989Y-83897993D01*
X198157969Y-83794972D01*
X198130439Y-83753770D01*
X198120772Y-83705169D01*
X198123212Y-83680394D01*
X198151400Y-83538682D01*
X198151400Y-83288517D01*
X198113267Y-83096810D01*
X198113267Y-83047258D01*
X198132230Y-83001477D01*
X198167270Y-82966437D01*
X198213051Y-82947474D01*
X198262603Y-82947474D01*
X198308384Y-82966437D01*
X198447899Y-83059658D01*
X198613147Y-83128106D01*
X198788570Y-83163000D01*
X198967430Y-83163000D01*
X199142852Y-83128106D01*
X199308100Y-83059658D01*
X199456813Y-82960291D01*
X199583291Y-82833813D01*
X199682658Y-82685100D01*
X199751106Y-82519852D01*
X199786000Y-82344429D01*
X199786000Y-82165570D01*
X199751106Y-81990147D01*
X199682658Y-81824899D01*
X199583291Y-81676186D01*
X199456813Y-81549708D01*
X199308100Y-81450341D01*
X199142852Y-81381893D01*
X198967430Y-81347000D01*
X198917802Y-81347000D01*
X198869201Y-81337333D01*
X198827999Y-81309803D01*
X198150009Y-80631813D01*
X198122479Y-80590611D01*
X198115252Y-80566787D01*
X198102594Y-80503155D01*
X198040647Y-80353601D01*
X198030980Y-80305000D01*
X198040647Y-80256399D01*
X198068177Y-80215197D01*
X198109379Y-80187667D01*
X198157980Y-80178000D01*
X198174289Y-80178000D01*
X198222890Y-80187667D01*
X198264092Y-80215197D01*
X198299186Y-80250291D01*
X198447899Y-80349658D01*
X198613147Y-80418106D01*
X198788570Y-80453000D01*
X198967430Y-80453000D01*
X199142852Y-80418106D01*
X199308100Y-80349658D01*
X199456813Y-80250291D01*
X199583291Y-80123813D01*
X199682658Y-79975100D01*
X199751106Y-79809852D01*
X199786000Y-79634429D01*
X199786000Y-79455570D01*
X199751106Y-79280147D01*
X199682658Y-79114899D01*
X199583291Y-78966186D01*
X199456813Y-78839708D01*
X199308100Y-78740341D01*
X199142852Y-78671893D01*
X198967430Y-78637000D01*
X198788570Y-78637000D01*
X198613147Y-78671893D01*
X198447902Y-78740340D01*
X198375968Y-78788406D01*
X198330187Y-78807369D01*
X198280634Y-78807369D01*
X198234853Y-78788406D01*
X198215607Y-78772611D01*
X198157969Y-78714972D01*
X198130439Y-78673770D01*
X198120772Y-78625169D01*
X198123212Y-78600394D01*
X198151400Y-78458682D01*
X198151400Y-78208517D01*
X198102594Y-77963155D01*
X198033605Y-77796601D01*
X198023938Y-77748000D01*
X198033605Y-77699399D01*
X198061135Y-77658198D01*
X198102337Y-77630667D01*
X198150938Y-77621000D01*
X198174289Y-77621000D01*
X198222890Y-77630667D01*
X198264092Y-77658197D01*
X198299186Y-77693291D01*
X198447899Y-77792658D01*
X198613147Y-77861106D01*
X198788570Y-77896000D01*
X198967430Y-77896000D01*
X199142852Y-77861106D01*
X199308100Y-77792658D01*
X199456813Y-77693291D01*
X199583291Y-77566813D01*
X199682658Y-77418100D01*
X199751106Y-77252852D01*
X199786000Y-77077429D01*
X199786000Y-76898570D01*
X199751106Y-76723147D01*
X199682658Y-76557899D01*
X199583291Y-76409186D01*
X199456813Y-76282708D01*
X199308100Y-76183341D01*
X199142852Y-76114893D01*
X198967430Y-76080000D01*
X198788570Y-76080000D01*
X198613147Y-76114893D01*
X198447899Y-76183341D01*
X198365776Y-76238215D01*
X198319995Y-76257178D01*
X198270442Y-76257178D01*
X198224661Y-76238215D01*
X198205415Y-76222420D01*
X198157968Y-76174972D01*
X198130439Y-76133770D01*
X198120772Y-76085169D01*
X198123212Y-76060394D01*
X198151400Y-75918682D01*
X198151400Y-75668517D01*
X198102594Y-75423155D01*
X198004724Y-75186876D01*
X197995057Y-75138275D01*
X198004724Y-75089674D01*
X198032254Y-75048473D01*
X198073456Y-75020942D01*
X198122057Y-75011275D01*
X198170658Y-75020942D01*
X198211859Y-75048472D01*
X198218686Y-75056791D01*
X198350186Y-75188291D01*
X198498899Y-75287658D01*
X198664147Y-75356106D01*
X198839570Y-75391000D01*
X199018430Y-75391000D01*
X199193852Y-75356106D01*
X199359100Y-75287658D01*
X199507813Y-75188291D01*
X199634291Y-75061813D01*
X199733658Y-74913100D01*
X199802106Y-74747852D01*
X199837000Y-74572429D01*
X199837000Y-74393570D01*
X199802106Y-74218147D01*
X199733658Y-74052899D01*
X199634291Y-73904186D01*
X199507813Y-73777708D01*
X199359100Y-73678341D01*
X199193852Y-73609893D01*
X199018430Y-73575000D01*
X198968802Y-73575000D01*
X198920201Y-73565333D01*
X198879000Y-73537803D01*
X198173602Y-72832406D01*
X198165232Y-72823171D01*
X198149366Y-72803839D01*
X198081844Y-72748425D01*
X198050408Y-72710120D01*
X198036024Y-72662701D01*
X198040880Y-72613386D01*
X198064239Y-72569684D01*
X198102544Y-72538249D01*
X198150775Y-72512468D01*
X198247164Y-72433364D01*
X198263032Y-72414029D01*
X198271401Y-72404794D01*
X198627122Y-72049073D01*
X209520536Y-72049073D01*
X209557797Y-72296447D01*
X209643716Y-72534891D01*
X209675758Y-72594838D01*
X209792095Y-72627293D01*
X210435789Y-71983600D01*
X209792095Y-71339906D01*
X209679513Y-71371314D01*
X209592495Y-71556369D01*
X209532252Y-71799177D01*
X209520536Y-72049073D01*
X198627122Y-72049073D01*
X198710381Y-71965814D01*
X198710382Y-71965814D01*
X198930000Y-71746197D01*
X198971201Y-71718667D01*
X199019802Y-71709000D01*
X199069430Y-71709000D01*
X199244852Y-71674106D01*
X199410100Y-71605658D01*
X199558813Y-71506291D01*
X199685291Y-71379813D01*
X199784658Y-71231100D01*
X199853106Y-71065852D01*
X199888000Y-70890429D01*
X199888000Y-70711570D01*
X199853106Y-70536147D01*
X199784658Y-70370899D01*
X199685291Y-70222186D01*
X199558813Y-70095708D01*
X199410100Y-69996341D01*
X199244852Y-69927893D01*
X199069430Y-69893000D01*
X198890570Y-69893000D01*
X198715147Y-69927893D01*
X198549899Y-69996341D01*
X198401186Y-70095708D01*
X198274707Y-70222187D01*
X198271274Y-70227326D01*
X198236234Y-70262364D01*
X198190453Y-70281326D01*
X198140900Y-70281325D01*
X198095119Y-70262361D01*
X198060081Y-70227321D01*
X198046199Y-70199818D01*
X198032683Y-70162308D01*
X198000641Y-70102361D01*
X197884304Y-70069906D01*
X197196109Y-70758101D01*
X197192481Y-70776344D01*
X197164951Y-70817546D01*
X196985346Y-70997151D01*
X196944144Y-71024681D01*
X196895543Y-71034348D01*
X196881401Y-71031535D01*
X196867262Y-71034348D01*
X196818661Y-71024682D01*
X196777459Y-70997154D01*
X196777455Y-70997151D01*
X196597850Y-70817546D01*
X196570320Y-70776344D01*
X196560653Y-70727743D01*
X196563466Y-70713600D01*
X196560653Y-70699458D01*
X196570320Y-70650857D01*
X196597850Y-70609655D01*
X196777455Y-70430050D01*
X196818657Y-70402520D01*
X196836897Y-70398891D01*
X197525093Y-69710695D01*
X197493685Y-69598113D01*
X197415714Y-69561449D01*
X197375846Y-69532019D01*
X197362023Y-69509073D01*
X209520536Y-69509073D01*
X209557797Y-69756447D01*
X209643716Y-69994891D01*
X209675758Y-70054838D01*
X209792095Y-70087293D01*
X210435789Y-69443600D01*
X209792095Y-68799906D01*
X209679513Y-68831314D01*
X209592495Y-69016369D01*
X209532252Y-69259177D01*
X209520536Y-69509073D01*
X197362023Y-69509073D01*
X197350276Y-69489574D01*
X197342895Y-69440573D01*
X197354828Y-69392479D01*
X197384258Y-69352611D01*
X197426703Y-69327041D01*
X197432693Y-69324882D01*
X197492638Y-69292841D01*
X197525093Y-69176504D01*
X196836898Y-68488309D01*
X196818661Y-68484682D01*
X196777459Y-68457154D01*
X196777455Y-68457151D01*
X196597850Y-68277546D01*
X196570320Y-68236344D01*
X196566691Y-68218102D01*
X196522189Y-68173600D01*
X197240611Y-68173600D01*
X197884304Y-68817293D01*
X197996886Y-68785885D01*
X198083904Y-68600830D01*
X198144147Y-68358022D01*
X198155863Y-68108126D01*
X198118602Y-67860752D01*
X198032683Y-67622308D01*
X198000641Y-67562361D01*
X197884304Y-67529906D01*
X197240611Y-68173600D01*
X196522189Y-68173600D01*
X195873327Y-67524738D01*
X195856452Y-67526019D01*
X195809368Y-67510573D01*
X195781934Y-67489745D01*
X195510498Y-67218309D01*
X195492261Y-67214682D01*
X195451059Y-67187154D01*
X195451055Y-67187151D01*
X195271450Y-67007546D01*
X195243920Y-66966344D01*
X195234253Y-66917743D01*
X195237066Y-66903600D01*
X195234253Y-66889458D01*
X195243920Y-66840857D01*
X195271450Y-66799655D01*
X195451055Y-66620050D01*
X195492257Y-66592520D01*
X195540858Y-66582853D01*
X195555001Y-66585666D01*
X195569147Y-66582853D01*
X195617748Y-66592522D01*
X195658946Y-66620050D01*
X195838551Y-66799655D01*
X195866081Y-66840857D01*
X195869709Y-66859098D01*
X196563072Y-67552461D01*
X196579948Y-67551181D01*
X196627032Y-67566627D01*
X196654466Y-67587455D01*
X196881400Y-67814389D01*
X197525093Y-67170695D01*
X197493685Y-67058113D01*
X197410597Y-67019043D01*
X197370730Y-66989613D01*
X197345160Y-66947167D01*
X197337779Y-66898167D01*
X197349712Y-66850072D01*
X197379142Y-66810205D01*
X197416040Y-66786782D01*
X197482967Y-66759060D01*
X197690976Y-66620072D01*
X197701624Y-66609425D01*
X197742826Y-66581895D01*
X197791427Y-66572228D01*
X197840028Y-66581895D01*
X197881230Y-66609425D01*
X197881230Y-66609426D01*
X198085803Y-66814000D01*
X198113333Y-66855201D01*
X198123000Y-66903802D01*
X198123000Y-66953429D01*
X198157893Y-67128852D01*
X198226341Y-67294100D01*
X198325708Y-67442813D01*
X198452186Y-67569291D01*
X198600899Y-67668658D01*
X198766147Y-67737106D01*
X198941570Y-67772000D01*
X199120430Y-67772000D01*
X199295852Y-67737106D01*
X199461100Y-67668658D01*
X199609813Y-67569291D01*
X199736291Y-67442813D01*
X199835658Y-67294100D01*
X199904106Y-67128852D01*
X199939000Y-66953429D01*
X199939000Y-66774570D01*
X199904106Y-66599147D01*
X199835658Y-66433899D01*
X199736291Y-66285186D01*
X199609813Y-66158708D01*
X199461100Y-66059341D01*
X199295852Y-65990893D01*
X199120430Y-65956000D01*
X199070802Y-65956000D01*
X199022201Y-65946333D01*
X198981000Y-65918803D01*
X198379404Y-65317208D01*
X198351873Y-65276006D01*
X198342206Y-65227405D01*
X198351873Y-65178804D01*
X198379403Y-65137603D01*
X198420605Y-65110072D01*
X198469206Y-65100405D01*
X198517807Y-65110072D01*
X198539763Y-65121808D01*
X198600899Y-65162658D01*
X198766147Y-65231106D01*
X198941570Y-65266000D01*
X199120430Y-65266000D01*
X199295852Y-65231106D01*
X199461100Y-65162658D01*
X199609813Y-65063291D01*
X199736291Y-64936813D01*
X199835658Y-64788100D01*
X199904106Y-64622852D01*
X199939000Y-64447429D01*
X199939000Y-64268570D01*
X199904106Y-64093147D01*
X199835658Y-63927899D01*
X199736291Y-63779186D01*
X199609813Y-63652708D01*
X199461100Y-63553341D01*
X199295852Y-63484893D01*
X199120430Y-63450000D01*
X199070802Y-63450000D01*
X199022201Y-63440333D01*
X198980999Y-63412803D01*
X198240601Y-62672406D01*
X198232232Y-62663171D01*
X198216364Y-62643835D01*
X198119978Y-62564734D01*
X198047636Y-62526066D01*
X198009331Y-62494629D01*
X198001907Y-62484620D01*
X197867872Y-62284023D01*
X197690976Y-62107127D01*
X197482968Y-61968140D01*
X197251844Y-61872405D01*
X197006483Y-61823600D01*
X196756317Y-61823600D01*
X196510955Y-61872405D01*
X196279831Y-61968140D01*
X196071823Y-62107127D01*
X195894927Y-62284023D01*
X195755940Y-62492031D01*
X195660205Y-62723155D01*
X195608960Y-62980784D01*
X195608593Y-62980711D01*
X195601733Y-63015201D01*
X195574203Y-63056403D01*
X195533001Y-63083933D01*
X195484400Y-63093600D01*
X195429917Y-63093600D01*
X195184553Y-63142405D01*
X195145668Y-63158513D01*
X195097067Y-63168181D01*
X195048466Y-63158514D01*
X195007264Y-63130984D01*
X194998894Y-63121749D01*
X194914763Y-63019235D01*
X194895440Y-63003377D01*
X194886205Y-62995008D01*
X192933001Y-61041805D01*
X192924633Y-61032572D01*
X192908762Y-61013235D01*
X192812379Y-60934134D01*
X192702411Y-60875355D01*
X192583084Y-60839158D01*
X192483896Y-60829389D01*
X192483873Y-60829388D01*
X192459000Y-60826938D01*
X192434127Y-60829388D01*
X192421678Y-60830000D01*
X191878148Y-60830000D01*
X191829547Y-60820333D01*
X191788345Y-60792803D01*
X191760815Y-60751601D01*
X191751149Y-60703527D01*
X191743692Y-58907354D01*
X191753158Y-58858714D01*
X191780516Y-58817398D01*
X191821604Y-58789697D01*
X191870164Y-58779828D01*
X191918804Y-58789294D01*
G37*
G04 #@! TD.AperFunction*
G04 #@! TA.AperFunction,Conductor*
G36*
X212164148Y-65322522D02*
G01*
X212205346Y-65350050D01*
X212384951Y-65529655D01*
X212412481Y-65570857D01*
X212422148Y-65619458D01*
X212419334Y-65633600D01*
X212422148Y-65647743D01*
X212412481Y-65696344D01*
X212384951Y-65737546D01*
X212205346Y-65917151D01*
X212164144Y-65944681D01*
X212115543Y-65954348D01*
X212101401Y-65951535D01*
X212087262Y-65954348D01*
X212038661Y-65944682D01*
X211997459Y-65917154D01*
X211997455Y-65917151D01*
X211817850Y-65737546D01*
X211790320Y-65696344D01*
X211780653Y-65647743D01*
X211783466Y-65633600D01*
X211780653Y-65619458D01*
X211790320Y-65570857D01*
X211817850Y-65529655D01*
X211997455Y-65350050D01*
X212038657Y-65322520D01*
X212087258Y-65312853D01*
X212101401Y-65315666D01*
X212115547Y-65312853D01*
X212164148Y-65322522D01*
G37*
G04 #@! TD.AperFunction*
G04 #@! TD*
M02*
