M48
; DRILL file KiCad 10.0.2 date 2026-05-20T00:21:07
; FORMAT={-:-/ absolute / metric / decimal}
; #@! TF.CreationDate,2026-05-20T00:21:07-04:00
; #@! TF.GenerationSoftware,Kicad,Pcbnew,10.0.2
; #@! TF.FileFunction,MixedPlating,1,2
FMAT,2
METRIC
; #@! TA.AperFunction,Plated,PTH,ViaDrill
T1C0.400
; #@! TA.AperFunction,Plated,PTH,ComponentDrill
T2C0.700
; #@! TA.AperFunction,Plated,PTH,ComponentDrill
T3C0.813
; #@! TA.AperFunction,Plated,PTH,ComponentDrill
T4C0.850
; #@! TA.AperFunction,Plated,PTH,ComponentDrill
T5C1.300
; #@! TA.AperFunction,Plated,PTH,ComponentDrill
T6C4.100
; #@! TA.AperFunction,NonPlated,NPTH,ComponentDrill
T7C1.000
; #@! TA.AperFunction,NonPlated,NPTH,ComponentDrill
T8C1.800
; #@! TA.AperFunction,NonPlated,NPTH,ComponentDrill
T9C3.000
; #@! TA.AperFunction,NonPlated,NPTH,ComponentDrill
T10C3.400
%
G90
G05
T1
X87.162Y-62.041
X87.224Y-129.023
X87.274Y-97.975
X87.274Y-79.975
X87.278Y-93.135
X87.278Y-111.211
X87.279Y-75.042
X87.282Y-133.975
X87.325Y-56.989
X87.333Y-115.973
X95.096Y-85.328
X95.097Y-49.361
X95.097Y-67.449
X95.152Y-103.411
X95.152Y-121.284
X96.671Y-72.387
X96.671Y-90.434
X96.726Y-54.413
X96.727Y-108.463
X96.782Y-126.39
X106.226Y-92.941
X106.226Y-110.93
X106.226Y-128.934
X106.26Y-57.008
X106.26Y-74.86
X106.26Y-80.018
X106.261Y-61.975
X106.264Y-116.051
X106.302Y-97.974
X107.435Y-128.49
X114.093Y-85.215
X114.127Y-49.289
X114.127Y-67.215
X114.13Y-103.355
X114.131Y-121.252
X115.653Y-126.41
X115.688Y-108.439
X115.726Y-90.41
X115.76Y-54.41
X115.76Y-72.41
X125.195Y-93.212
X125.23Y-57.265
X125.233Y-106.053
X125.27Y-75.213
X125.27Y-88.317
X125.27Y-124.178
X125.272Y-111.213
X125.306Y-70.223
X125.345Y-129.211
X125.379Y-52.107
X133.135Y-44.536
X133.137Y-62.595
X133.137Y-80.561
X133.137Y-98.529
X133.137Y-116.54
X134.695Y-67.679
X134.696Y-85.719
X134.731Y-49.695
X134.733Y-103.688
X134.733Y-121.698
X144.107Y-109.755
X144.182Y-90.831
X144.211Y-54.929
X144.255Y-103.854
X144.287Y-72.878
X144.294Y-85.716
X144.396Y-49.771
X144.399Y-67.794
X146.16Y-120.863
X149.426Y-120.863
X152.123Y-96.233
X152.125Y-78.219
X152.152Y-42.089
X152.155Y-60.186
X153.396Y-125.947
X153.619Y-130.883
X153.644Y-101.428
X153.751Y-65.381
X153.758Y-83.378
X153.785Y-47.322
X163.183Y-70.121
X163.221Y-88.131
X163.258Y-52.177
X163.258Y-57.213
X163.296Y-75.212
X163.332Y-93.289
X163.371Y-106.359
X165.319Y-129.858
X165.992Y-110.938
X168.844Y-126.295
X171.125Y-44.738
X171.125Y-62.625
X171.126Y-80.635
X171.127Y-98.677
X172.647Y-49.727
X172.649Y-103.725
X172.721Y-67.709
X172.722Y-85.719
X173.088Y-71.338
X173.244Y-107.377
X174.144Y-116.085
X174.239Y-76.784
X174.424Y-66.328
X174.432Y-102.218
X175.575Y-81.868
X176.897Y-125.256
X177.746Y-119.917
X179.445Y-71.953
X179.795Y-119.934
X180.51Y-56.992
X181.581Y-86.26
X181.587Y-84.911
X182.18Y-73.754
X182.225Y-109.598
X182.249Y-49.49
X182.299Y-114.683
X183.423Y-117.451
X183.448Y-118.45
X184.562Y-134.616
X185.044Y-57.109
X185.277Y-135.823
X185.427Y-118.523
X186.749Y-121.516
X186.749Y-123.766
X187.149Y-117.825
X188.27Y-123.789
X188.27Y-125.477
X189.305Y-119.011
X189.331Y-91.386
X189.637Y-87.429
X189.862Y-46.378
X190.293Y-88.914
X190.863Y-123.789
X191.043Y-89.648
X193.552Y-134.821
X194.282Y-129.452
X194.574Y-120.264
X198.321Y-149.04
X198.571Y-89.772
X198.878Y-76.988
X198.878Y-79.545
X198.878Y-82.255
X198.904Y-84.684
X198.929Y-74.483
X198.98Y-70.801
X199.031Y-64.358
X199.031Y-66.864
X200.974Y-87.266
X202.553Y-119.262
X205.029Y-115.223
X205.883Y-91.052
X209.15Y-132.813
T2
X209.0Y-83.6
X209.0Y-86.1
X209.0Y-88.6
T3
X195.555Y-47.904
X195.555Y-50.444
X195.555Y-52.984
X195.555Y-55.524
X195.555Y-58.064
X195.555Y-60.604
X195.555Y-63.144
X195.555Y-65.684
X195.555Y-68.224
X195.555Y-70.764
X195.555Y-73.304
X195.555Y-75.844
X196.881Y-46.634
X196.881Y-49.174
X196.881Y-51.714
X196.881Y-54.254
X196.881Y-56.794
X196.881Y-59.334
X196.881Y-61.874
X196.881Y-64.414
X196.881Y-66.954
X196.881Y-69.494
X196.881Y-72.034
X196.881Y-74.574
X210.795Y-47.904
X210.795Y-50.444
X210.795Y-52.984
X210.795Y-55.524
X210.795Y-58.064
X210.795Y-60.604
X210.795Y-63.144
X210.795Y-65.684
X210.795Y-68.224
X210.795Y-70.764
X210.795Y-73.304
X210.795Y-75.844
X212.101Y-46.634
X212.101Y-49.174
X212.101Y-51.714
X212.101Y-54.254
X212.101Y-56.794
X212.101Y-59.334
X212.101Y-61.874
X212.101Y-64.414
X212.101Y-66.954
X212.101Y-69.494
X212.101Y-72.034
X212.101Y-74.574
T4
X209.141Y-93.087
X209.141Y-97.587
T5
X202.365Y-85.951
X202.365Y-92.451
T6
X96.694Y-116.997
X96.755Y-62.896
X134.342Y-58.24
X134.379Y-94.204
X165.87Y-117.73
X172.365Y-58.174
X172.463Y-94.248
X204.723Y-134.762
T7
X82.025Y-49.775
X82.025Y-67.775
X82.025Y-85.775
X82.025Y-103.775
X82.025Y-121.775
X92.465Y-49.775
X92.465Y-67.775
X92.465Y-85.775
X92.465Y-103.775
X92.465Y-121.775
X101.025Y-49.775
X101.025Y-67.775
X101.025Y-85.775
X101.025Y-103.775
X101.025Y-121.775
X111.465Y-49.775
X111.465Y-67.775
X111.465Y-85.775
X111.465Y-103.775
X111.465Y-121.775
X120.025Y-45.013
X120.025Y-63.013
X120.025Y-81.013
X120.025Y-99.013
X120.025Y-117.013
X130.465Y-45.013
X130.465Y-63.013
X130.465Y-81.013
X130.465Y-99.013
X130.465Y-117.013
X139.025Y-42.632
X139.025Y-60.632
X139.025Y-78.632
X139.025Y-96.632
X139.025Y-123.032
X148.221Y-118.66
X149.465Y-42.632
X149.465Y-60.632
X149.465Y-78.632
X149.465Y-96.632
X149.465Y-123.032
X158.025Y-45.013
X158.025Y-63.013
X158.025Y-81.013
X158.025Y-99.013
X158.661Y-118.66
X168.465Y-45.013
X168.465Y-63.013
X168.465Y-81.013
X168.465Y-99.013
X168.684Y-129.263
X177.025Y-56.794
X177.025Y-66.394
X177.025Y-92.794
X177.025Y-102.394
X177.726Y-134.483
X187.465Y-56.794
X187.465Y-66.394
X187.465Y-92.794
X187.465Y-102.394
X187.894Y-134.301
X196.075Y-102.394
X196.936Y-139.521
X206.515Y-102.394
T8
X81.745Y-53.975
X81.745Y-71.975
X81.745Y-89.975
X81.745Y-107.975
X81.745Y-125.975
X92.745Y-53.975
X92.745Y-71.975
X92.745Y-89.975
X92.745Y-107.975
X92.745Y-125.975
X100.745Y-53.975
X100.745Y-71.975
X100.745Y-89.975
X100.745Y-107.975
X100.745Y-125.975
X111.745Y-53.975
X111.745Y-71.975
X111.745Y-89.975
X111.745Y-107.975
X111.745Y-125.975
X119.745Y-49.213
X119.745Y-67.213
X119.745Y-85.213
X119.745Y-103.213
X119.745Y-121.213
X130.745Y-49.213
X130.745Y-67.213
X130.745Y-85.213
X130.745Y-103.213
X130.745Y-121.213
X138.745Y-46.832
X138.745Y-64.832
X138.745Y-82.832
X138.745Y-100.832
X138.745Y-118.832
X147.941Y-122.86
X149.745Y-46.832
X149.745Y-64.832
X149.745Y-82.832
X149.745Y-100.832
X149.745Y-118.832
X157.745Y-49.213
X157.745Y-67.213
X157.745Y-85.213
X157.745Y-103.213
X158.941Y-122.86
X168.745Y-49.213
X168.745Y-67.213
X168.745Y-85.213
X168.745Y-103.213
X170.542Y-125.486
X176.745Y-52.594
X176.745Y-70.594
X176.745Y-88.594
X176.745Y-106.594
X180.068Y-130.986
X187.745Y-52.594
X187.745Y-70.594
X187.745Y-88.594
X187.745Y-106.594
X189.752Y-130.524
X195.795Y-106.594
X199.278Y-136.024
X206.795Y-106.594
T9
X82.245Y-57.675
X82.245Y-75.675
X82.245Y-93.675
X82.245Y-111.675
X82.245Y-129.675
X87.245Y-59.875
X87.245Y-77.875
X87.245Y-95.875
X87.245Y-113.875
X87.245Y-131.875
X92.245Y-57.675
X92.245Y-75.675
X92.245Y-93.675
X92.245Y-111.675
X92.245Y-129.675
X101.245Y-57.675
X101.245Y-75.675
X101.245Y-93.675
X101.245Y-111.675
X101.245Y-129.675
X106.245Y-59.875
X106.245Y-77.875
X106.245Y-95.875
X106.245Y-113.875
X106.245Y-131.875
X111.245Y-57.675
X111.245Y-75.675
X111.245Y-93.675
X111.245Y-111.675
X111.245Y-129.675
X120.245Y-52.913
X120.245Y-70.913
X120.245Y-88.913
X120.245Y-106.913
X120.245Y-124.913
X125.245Y-55.113
X125.245Y-73.113
X125.245Y-91.113
X125.245Y-109.113
X125.245Y-127.113
X130.245Y-52.913
X130.245Y-70.913
X130.245Y-88.913
X130.245Y-106.913
X130.245Y-124.913
X139.245Y-50.532
X139.245Y-68.532
X139.245Y-86.532
X139.245Y-104.532
X139.245Y-115.132
X144.245Y-52.732
X144.245Y-70.732
X144.245Y-88.732
X144.245Y-106.732
X144.245Y-112.932
X148.441Y-126.56
X149.245Y-50.532
X149.245Y-68.532
X149.245Y-86.532
X149.245Y-104.532
X149.245Y-115.132
X153.441Y-128.76
X158.245Y-52.913
X158.245Y-70.913
X158.245Y-88.913
X158.245Y-106.913
X158.441Y-126.56
X163.245Y-55.113
X163.245Y-73.113
X163.245Y-91.113
X163.245Y-109.113
X168.245Y-52.913
X168.245Y-70.913
X168.245Y-88.913
X168.245Y-106.913
X172.825Y-122.532
X177.245Y-48.894
X177.245Y-74.294
X177.245Y-84.894
X177.245Y-110.294
X178.255Y-123.126
X181.485Y-127.532
X182.245Y-46.694
X182.245Y-76.494
X182.245Y-82.694
X182.245Y-112.494
X187.245Y-48.894
X187.245Y-74.294
X187.245Y-84.894
X187.245Y-110.294
X192.035Y-127.57
X196.295Y-110.294
X197.465Y-128.164
X200.695Y-132.57
X201.295Y-112.494
X206.295Y-110.294
T10
X87.245Y-53.975
X87.245Y-71.975
X87.245Y-89.975
X87.245Y-107.975
X87.245Y-125.975
X106.245Y-53.975
X106.245Y-71.975
X106.245Y-89.975
X106.245Y-107.975
X106.245Y-125.975
X125.245Y-49.213
X125.245Y-67.213
X125.245Y-85.213
X125.245Y-103.213
X125.245Y-121.213
X144.245Y-46.832
X144.245Y-64.832
X144.245Y-82.832
X144.245Y-100.832
X144.245Y-118.832
X153.441Y-122.86
X163.245Y-49.213
X163.245Y-67.213
X163.245Y-85.213
X163.245Y-103.213
X175.305Y-128.236
X182.245Y-52.594
X182.245Y-70.594
X182.245Y-88.594
X182.245Y-106.594
X194.515Y-133.274
X201.295Y-106.594
M30
