G04 #@! TF.GenerationSoftware,KiCad,Pcbnew,10.0.2*
G04 #@! TF.CreationDate,2026-05-18T00:06:31-04:00*
G04 #@! TF.ProjectId,tairakb,74616972-616b-4622-9e6b-696361645f70,1.1*
G04 #@! TF.SameCoordinates,Original*
G04 #@! TF.FileFunction,Soldermask,Bot*
G04 #@! TF.FilePolarity,Negative*
%FSLAX46Y46*%
G04 Gerber Fmt 4.6, Leading zero omitted, Abs format (unit mm)*
G04 Created by KiCad (PCBNEW 10.0.2) date 2026-05-18 00:06:31*
%MOMM*%
%LPD*%
G01*
G04 APERTURE LIST*
G04 Aperture macros list*
%AMRoundRect*
0 Rectangle with rounded corners*
0 $1 Rounding radius*
0 $2 $3 $4 $5 $6 $7 $8 $9 X,Y pos of 4 corners*
0 Add a 4 corners polygon primitive as box body*
4,1,4,$2,$3,$4,$5,$6,$7,$8,$9,$2,$3,0*
0 Add four circle primitives for the rounded corners*
1,1,$1+$1,$2,$3*
1,1,$1+$1,$4,$5*
1,1,$1+$1,$6,$7*
1,1,$1+$1,$8,$9*
0 Add four rect primitives between the rounded corners*
20,1,$1+$1,$2,$3,$4,$5,0*
20,1,$1+$1,$4,$5,$6,$7,0*
20,1,$1+$1,$6,$7,$8,$9,0*
20,1,$1+$1,$8,$9,$2,$3,0*%
%AMRotRect*
0 Rectangle, with rotation*
0 The origin of the aperture is its center*
0 $1 length*
0 $2 width*
0 $3 Rotation angle, in degrees counterclockwise*
0 Add horizontal line*
21,1,$1,$2,0,0,$3*%
G04 Aperture macros list end*
%ADD10C,1.800000*%
%ADD11C,1.000000*%
%ADD12C,3.000000*%
%ADD13C,3.400000*%
%ADD14R,1.600000X2.200000*%
%ADD15RotRect,1.600000X2.200000X330.000000*%
%ADD16C,2.000000*%
%ADD17C,1.500000*%
%ADD18R,0.950000X1.300000*%
%ADD19R,1.300000X0.950000*%
%ADD20RotRect,1.300000X0.950000X60.000000*%
%ADD21RoundRect,0.250000X-0.750000X0.750000X-0.750000X-0.750000X0.750000X-0.750000X0.750000X0.750000X0*%
%ADD22C,1.524000*%
%ADD23C,5.000000*%
G04 APERTURE END LIST*
D10*
G04 #@! TO.C,SW1*
X92745000Y-53975000D03*
D11*
X92465000Y-49775000D03*
D12*
X92245000Y-57675000D03*
X87245000Y-59875000D03*
D13*
X87245000Y-53975000D03*
D12*
X82245000Y-57675000D03*
D11*
X82025000Y-49775000D03*
D10*
X81745000Y-53975000D03*
D14*
X79445000Y-57675000D03*
X90045000Y-59875000D03*
G04 #@! TD*
D10*
G04 #@! TO.C,SW2*
X92745000Y-71975000D03*
D11*
X92465000Y-67775000D03*
D12*
X92245000Y-75675000D03*
X87245000Y-77875000D03*
D13*
X87245000Y-71975000D03*
D12*
X82245000Y-75675000D03*
D11*
X82025000Y-67775000D03*
D10*
X81745000Y-71975000D03*
D14*
X79445000Y-75675000D03*
X90045000Y-77875000D03*
G04 #@! TD*
D10*
G04 #@! TO.C,SW3*
X92745000Y-89975000D03*
D11*
X92465000Y-85775000D03*
D12*
X92245000Y-93675000D03*
X87245000Y-95875000D03*
D13*
X87245000Y-89975000D03*
D12*
X82245000Y-93675000D03*
D11*
X82025000Y-85775000D03*
D10*
X81745000Y-89975000D03*
D14*
X79445000Y-93675000D03*
X90045000Y-95875000D03*
G04 #@! TD*
D10*
G04 #@! TO.C,SW4*
X92745000Y-107975000D03*
D11*
X92465000Y-103775000D03*
D12*
X92245000Y-111675000D03*
X87245000Y-113875000D03*
D13*
X87245000Y-107975000D03*
D12*
X82245000Y-111675000D03*
D11*
X82025000Y-103775000D03*
D10*
X81745000Y-107975000D03*
D14*
X79445000Y-111675000D03*
X90045000Y-113875000D03*
G04 #@! TD*
D10*
G04 #@! TO.C,SW5*
X92745000Y-125975000D03*
D11*
X92465000Y-121775000D03*
D12*
X92245000Y-129675000D03*
X87245000Y-131875000D03*
D13*
X87245000Y-125975000D03*
D12*
X82245000Y-129675000D03*
D11*
X82025000Y-121775000D03*
D10*
X81745000Y-125975000D03*
D14*
X79445000Y-129675000D03*
X90045000Y-131875000D03*
G04 #@! TD*
D10*
G04 #@! TO.C,SW6*
X111745000Y-53975000D03*
D11*
X111465000Y-49775000D03*
D12*
X111245000Y-57675000D03*
X106245000Y-59875000D03*
D13*
X106245000Y-53975000D03*
D12*
X101245000Y-57675000D03*
D11*
X101025000Y-49775000D03*
D10*
X100745000Y-53975000D03*
D14*
X98445000Y-57675000D03*
X109045000Y-59875000D03*
G04 #@! TD*
D10*
G04 #@! TO.C,SW7*
X111745000Y-71975000D03*
D11*
X111465000Y-67775000D03*
D12*
X111245000Y-75675000D03*
X106245000Y-77875000D03*
D13*
X106245000Y-71975000D03*
D12*
X101245000Y-75675000D03*
D11*
X101025000Y-67775000D03*
D10*
X100745000Y-71975000D03*
D14*
X98445000Y-75675000D03*
X109045000Y-77875000D03*
G04 #@! TD*
D10*
G04 #@! TO.C,SW8*
X111745000Y-89975000D03*
D11*
X111465000Y-85775000D03*
D12*
X111245000Y-93675000D03*
X106245000Y-95875000D03*
D13*
X106245000Y-89975000D03*
D12*
X101245000Y-93675000D03*
D11*
X101025000Y-85775000D03*
D10*
X100745000Y-89975000D03*
D14*
X98445000Y-93675000D03*
X109045000Y-95875000D03*
G04 #@! TD*
D10*
G04 #@! TO.C,SW9*
X111745000Y-107975000D03*
D11*
X111465000Y-103775000D03*
D12*
X111245000Y-111675000D03*
X106245000Y-113875000D03*
D13*
X106245000Y-107975000D03*
D12*
X101245000Y-111675000D03*
D11*
X101025000Y-103775000D03*
D10*
X100745000Y-107975000D03*
D14*
X98445000Y-111675000D03*
X109045000Y-113875000D03*
G04 #@! TD*
D10*
G04 #@! TO.C,SW10*
X111745000Y-125975000D03*
D11*
X111465000Y-121775000D03*
D12*
X111245000Y-129675000D03*
X106245000Y-131875000D03*
D13*
X106245000Y-125975000D03*
D12*
X101245000Y-129675000D03*
D11*
X101025000Y-121775000D03*
D10*
X100745000Y-125975000D03*
D14*
X98445000Y-129675000D03*
X109045000Y-131875000D03*
G04 #@! TD*
D10*
G04 #@! TO.C,SW11*
X130745000Y-49213000D03*
D11*
X130465000Y-45013000D03*
D12*
X130245000Y-52913000D03*
X125245000Y-55113000D03*
D13*
X125245000Y-49213000D03*
D12*
X120245000Y-52913000D03*
D11*
X120025000Y-45013000D03*
D10*
X119745000Y-49213000D03*
D14*
X117445000Y-52913000D03*
X128045000Y-55113000D03*
G04 #@! TD*
D10*
G04 #@! TO.C,SW12*
X130745000Y-67213000D03*
D11*
X130465000Y-63013000D03*
D12*
X130245000Y-70913000D03*
X125245000Y-73113000D03*
D13*
X125245000Y-67213000D03*
D12*
X120245000Y-70913000D03*
D11*
X120025000Y-63013000D03*
D10*
X119745000Y-67213000D03*
D14*
X117445000Y-70913000D03*
X128045000Y-73113000D03*
G04 #@! TD*
D10*
G04 #@! TO.C,SW13*
X130745000Y-85213000D03*
D11*
X130465000Y-81013000D03*
D12*
X130245000Y-88913000D03*
X125245000Y-91113000D03*
D13*
X125245000Y-85213000D03*
D12*
X120245000Y-88913000D03*
D11*
X120025000Y-81013000D03*
D10*
X119745000Y-85213000D03*
D14*
X117445000Y-88913000D03*
X128045000Y-91113000D03*
G04 #@! TD*
D10*
G04 #@! TO.C,SW14*
X130745000Y-103213000D03*
D11*
X130465000Y-99013000D03*
D12*
X130245000Y-106913000D03*
X125245000Y-109113000D03*
D13*
X125245000Y-103213000D03*
D12*
X120245000Y-106913000D03*
D11*
X120025000Y-99013000D03*
D10*
X119745000Y-103213000D03*
D14*
X117445000Y-106913000D03*
X128045000Y-109113000D03*
G04 #@! TD*
D10*
G04 #@! TO.C,SW15*
X130745000Y-121213000D03*
D11*
X130465000Y-117013000D03*
D12*
X130245000Y-124913000D03*
X125245000Y-127113000D03*
D13*
X125245000Y-121213000D03*
D12*
X120245000Y-124913000D03*
D11*
X120025000Y-117013000D03*
D10*
X119745000Y-121213000D03*
D14*
X117445000Y-124913000D03*
X128045000Y-127113000D03*
G04 #@! TD*
D10*
G04 #@! TO.C,SW16*
X149745000Y-46832000D03*
D11*
X149465000Y-42632000D03*
D12*
X149245000Y-50532000D03*
X144245000Y-52732000D03*
D13*
X144245000Y-46832000D03*
D12*
X139245000Y-50532000D03*
D11*
X139025000Y-42632000D03*
D10*
X138745000Y-46832000D03*
D14*
X136445000Y-50532000D03*
X147045000Y-52732000D03*
G04 #@! TD*
D10*
G04 #@! TO.C,SW17*
X149745000Y-64832000D03*
D11*
X149465000Y-60632000D03*
D12*
X149245000Y-68532000D03*
X144245000Y-70732000D03*
D13*
X144245000Y-64832000D03*
D12*
X139245000Y-68532000D03*
D11*
X139025000Y-60632000D03*
D10*
X138745000Y-64832000D03*
D14*
X136445000Y-68532000D03*
X147045000Y-70732000D03*
G04 #@! TD*
D10*
G04 #@! TO.C,SW18*
X149745000Y-82832000D03*
D11*
X149465000Y-78632000D03*
D12*
X149245000Y-86532000D03*
X144245000Y-88732000D03*
D13*
X144245000Y-82832000D03*
D12*
X139245000Y-86532000D03*
D11*
X139025000Y-78632000D03*
D10*
X138745000Y-82832000D03*
D14*
X136445000Y-86532000D03*
X147045000Y-88732000D03*
G04 #@! TD*
D10*
G04 #@! TO.C,SW19*
X149745000Y-100832000D03*
D11*
X149465000Y-96632000D03*
D12*
X149245000Y-104532000D03*
X144245000Y-106732000D03*
D13*
X144245000Y-100832000D03*
D12*
X139245000Y-104532000D03*
D11*
X139025000Y-96632000D03*
D10*
X138745000Y-100832000D03*
D14*
X136445000Y-104532000D03*
X147045000Y-106732000D03*
G04 #@! TD*
D10*
G04 #@! TO.C,SW20*
X138745000Y-118832000D03*
D11*
X139025000Y-123032000D03*
D12*
X139245000Y-115132000D03*
X144245000Y-112932000D03*
D13*
X144245000Y-118832000D03*
D12*
X149245000Y-115132000D03*
D11*
X149465000Y-123032000D03*
D10*
X149745000Y-118832000D03*
D14*
X152045000Y-115132000D03*
X141445000Y-112932000D03*
G04 #@! TD*
D10*
G04 #@! TO.C,SW21*
X168745000Y-49213000D03*
D11*
X168465000Y-45013000D03*
D12*
X168245000Y-52913000D03*
X163245000Y-55113000D03*
D13*
X163245000Y-49213000D03*
D12*
X158245000Y-52913000D03*
D11*
X158025000Y-45013000D03*
D10*
X157745000Y-49213000D03*
D14*
X155445000Y-52913000D03*
X166045000Y-55113000D03*
G04 #@! TD*
D10*
G04 #@! TO.C,SW22*
X168745000Y-67213000D03*
D11*
X168465000Y-63013000D03*
D12*
X168245000Y-70913000D03*
X163245000Y-73113000D03*
D13*
X163245000Y-67213000D03*
D12*
X158245000Y-70913000D03*
D11*
X158025000Y-63013000D03*
D10*
X157745000Y-67213000D03*
D14*
X155445000Y-70913000D03*
X166045000Y-73113000D03*
G04 #@! TD*
D10*
G04 #@! TO.C,SW23*
X168745000Y-85213000D03*
D11*
X168465000Y-81013000D03*
D12*
X168245000Y-88913000D03*
X163245000Y-91113000D03*
D13*
X163245000Y-85213000D03*
D12*
X158245000Y-88913000D03*
D11*
X158025000Y-81013000D03*
D10*
X157745000Y-85213000D03*
D14*
X155445000Y-88913000D03*
X166045000Y-91113000D03*
G04 #@! TD*
D10*
G04 #@! TO.C,SW24*
X168745000Y-103213000D03*
D11*
X168465000Y-99013000D03*
D12*
X168245000Y-106913000D03*
X163245000Y-109113000D03*
D13*
X163245000Y-103213000D03*
D12*
X158245000Y-106913000D03*
D11*
X158025000Y-99013000D03*
D10*
X157745000Y-103213000D03*
D14*
X155445000Y-106913000D03*
X166045000Y-109113000D03*
G04 #@! TD*
D10*
G04 #@! TO.C,SW25*
X170541860Y-125486000D03*
D11*
X168684347Y-129263307D03*
D12*
X172824873Y-122531706D03*
X178255000Y-123126450D03*
D13*
X175305000Y-128236000D03*
D12*
X181485127Y-127531706D03*
D11*
X177725653Y-134483307D03*
D10*
X180068140Y-130986000D03*
D15*
X183909998Y-128931706D03*
X175830129Y-121726450D03*
G04 #@! TD*
D10*
G04 #@! TO.C,SW26*
X176745000Y-52594000D03*
D11*
X177025000Y-56794000D03*
D12*
X177245000Y-48894000D03*
X182245000Y-46694000D03*
D13*
X182245000Y-52594000D03*
D12*
X187245000Y-48894000D03*
D11*
X187465000Y-56794000D03*
D10*
X187745000Y-52594000D03*
D14*
X190045000Y-48894000D03*
X179445000Y-46694000D03*
G04 #@! TD*
D10*
G04 #@! TO.C,SW27*
X187745000Y-70594000D03*
D11*
X187465000Y-66394000D03*
D12*
X187245000Y-74294000D03*
X182245000Y-76494000D03*
D13*
X182245000Y-70594000D03*
D12*
X177245000Y-74294000D03*
D11*
X177025000Y-66394000D03*
D10*
X176745000Y-70594000D03*
D14*
X174445000Y-74294000D03*
X185045000Y-76494000D03*
G04 #@! TD*
D10*
G04 #@! TO.C,SW28*
X176745000Y-88594000D03*
D11*
X177025000Y-92794000D03*
D12*
X177245000Y-84894000D03*
X182245000Y-82694000D03*
D13*
X182245000Y-88594000D03*
D12*
X187245000Y-84894000D03*
D11*
X187465000Y-92794000D03*
D10*
X187745000Y-88594000D03*
D14*
X190045000Y-84894000D03*
X179445000Y-82694000D03*
G04 #@! TD*
D10*
G04 #@! TO.C,SW29*
X187745000Y-106594000D03*
D11*
X187465000Y-102394000D03*
D12*
X187245000Y-110294000D03*
X182245000Y-112494000D03*
D13*
X182245000Y-106594000D03*
D12*
X177245000Y-110294000D03*
D11*
X177025000Y-102394000D03*
D10*
X176745000Y-106594000D03*
D14*
X174445000Y-110294000D03*
X185045000Y-112494000D03*
G04 #@! TD*
D10*
G04 #@! TO.C,SW32*
X212766860Y-128922000D03*
D11*
X210909347Y-132699307D03*
D12*
X215049873Y-125967706D03*
X220480000Y-126562450D03*
D13*
X217530000Y-131672000D03*
D12*
X223710127Y-130967706D03*
D11*
X219950653Y-137919307D03*
D10*
X222293140Y-134422000D03*
D15*
X226134998Y-132367706D03*
X218055129Y-125162450D03*
G04 #@! TD*
D10*
G04 #@! TO.C,SW33*
X203696860Y-144640000D03*
D11*
X201839347Y-148417307D03*
D12*
X205979873Y-141685706D03*
X211410000Y-142280450D03*
D13*
X208460000Y-147390000D03*
D12*
X214640127Y-146685706D03*
D11*
X210880653Y-153637307D03*
D10*
X213223140Y-150140000D03*
D15*
X217064998Y-148085706D03*
X208985129Y-140880450D03*
G04 #@! TD*
D16*
G04 #@! TO.C,RSW1*
X202365000Y-100951000D03*
X202365000Y-107451000D03*
G04 #@! TD*
D17*
G04 #@! TO.C,BSW1*
X209000000Y-103600000D03*
X209000000Y-101100000D03*
X209000000Y-98600000D03*
G04 #@! TD*
D18*
G04 #@! TO.C,D1*
X95118000Y-50865000D03*
X95118000Y-54415000D03*
G04 #@! TD*
G04 #@! TO.C,D2*
X95118000Y-68865000D03*
X95118000Y-72415000D03*
G04 #@! TD*
G04 #@! TO.C,D3*
X95118000Y-86865000D03*
X95118000Y-90415000D03*
G04 #@! TD*
G04 #@! TO.C,D4*
X95118000Y-104865000D03*
X95118000Y-108415000D03*
G04 #@! TD*
G04 #@! TO.C,D5*
X95118000Y-122865000D03*
X95118000Y-126415000D03*
G04 #@! TD*
G04 #@! TO.C,D6*
X114118000Y-50865000D03*
X114118000Y-54415000D03*
G04 #@! TD*
G04 #@! TO.C,D7*
X114118000Y-68865000D03*
X114118000Y-72415000D03*
G04 #@! TD*
G04 #@! TO.C,D8*
X114118000Y-86865000D03*
X114118000Y-90415000D03*
G04 #@! TD*
G04 #@! TO.C,D9*
X114118000Y-104865000D03*
X114118000Y-108415000D03*
G04 #@! TD*
G04 #@! TO.C,D10*
X114118000Y-122865000D03*
X114118000Y-126415000D03*
G04 #@! TD*
G04 #@! TO.C,D11*
X133133000Y-46140000D03*
X133133000Y-49690000D03*
G04 #@! TD*
G04 #@! TO.C,D12*
X133133000Y-64140000D03*
X133133000Y-67690000D03*
G04 #@! TD*
G04 #@! TO.C,D13*
X133133000Y-82140000D03*
X133133000Y-85690000D03*
G04 #@! TD*
G04 #@! TO.C,D14*
X133133000Y-100140000D03*
X133133000Y-103690000D03*
G04 #@! TD*
G04 #@! TO.C,D15*
X133133000Y-118140000D03*
X133133000Y-121690000D03*
G04 #@! TD*
G04 #@! TO.C,D16*
X152150000Y-43795000D03*
X152150000Y-47345000D03*
G04 #@! TD*
G04 #@! TO.C,D17*
X152150000Y-61795000D03*
X152150000Y-65345000D03*
G04 #@! TD*
G04 #@! TO.C,D18*
X152150000Y-79795000D03*
X152150000Y-83345000D03*
G04 #@! TD*
G04 #@! TO.C,D19*
X152150000Y-97795000D03*
X152150000Y-101345000D03*
G04 #@! TD*
D19*
G04 #@! TO.C,D20*
X147243000Y-120856000D03*
X150793000Y-120856000D03*
G04 #@! TD*
D18*
G04 #@! TO.C,D21*
X171132000Y-46177000D03*
X171132000Y-49727000D03*
G04 #@! TD*
G04 #@! TO.C,D22*
X171132000Y-64177000D03*
X171132000Y-67727000D03*
G04 #@! TD*
G04 #@! TO.C,D23*
X171132000Y-82177000D03*
X171132000Y-85727000D03*
G04 #@! TD*
G04 #@! TO.C,D24*
X171132000Y-100177000D03*
X171132000Y-103727000D03*
G04 #@! TD*
D20*
G04 #@! TO.C,D25*
X165937500Y-128631195D03*
X167712500Y-125556805D03*
G04 #@! TD*
D19*
G04 #@! TO.C,D26*
X180511000Y-58331000D03*
X184061000Y-58331000D03*
G04 #@! TD*
D18*
G04 #@! TO.C,D27*
X174431000Y-67785000D03*
X174431000Y-71335000D03*
G04 #@! TD*
G04 #@! TO.C,D28*
X174259000Y-78352000D03*
X174259000Y-81902000D03*
G04 #@! TD*
G04 #@! TO.C,D29*
X174431000Y-103785000D03*
X174431000Y-107335000D03*
G04 #@! TD*
D20*
G04 #@! TO.C,D31*
X191590500Y-122438195D03*
X193365500Y-119363805D03*
G04 #@! TD*
G04 #@! TO.C,D32*
X208228500Y-132047195D03*
X210003500Y-128972805D03*
G04 #@! TD*
D21*
G04 #@! TO.C,BT1*
X209141000Y-108087000D03*
D16*
X209141000Y-112587000D03*
G04 #@! TD*
D20*
G04 #@! TO.C,D30*
X182530500Y-138157195D03*
X184305500Y-135082805D03*
G04 #@! TD*
D22*
G04 #@! TO.C,U3*
X196881400Y-63093600D03*
X210795000Y-64363600D03*
X196881400Y-65633600D03*
X210795000Y-66903600D03*
X196881400Y-68173600D03*
X210795000Y-69443600D03*
X196881400Y-70713600D03*
X210795000Y-71983600D03*
X196881400Y-73253600D03*
X210795000Y-74523600D03*
X196881400Y-75793600D03*
X210795000Y-77063600D03*
X196881400Y-78333600D03*
X210795000Y-79603600D03*
X196881400Y-80873600D03*
X210795000Y-82143600D03*
X196881400Y-83413600D03*
X210795000Y-84683600D03*
X196881400Y-85953600D03*
X210795000Y-87223600D03*
X196881400Y-88493600D03*
X210795000Y-89763600D03*
X196881400Y-91033600D03*
X210795000Y-92303600D03*
X195555000Y-92303600D03*
X212101400Y-91033600D03*
X195555000Y-89763600D03*
X212101400Y-88493600D03*
X195555000Y-87223600D03*
X212101400Y-85953600D03*
X195555000Y-84683600D03*
X212101400Y-83413600D03*
X195555000Y-82143600D03*
X212101400Y-80873600D03*
X195555000Y-79603600D03*
X212101400Y-78333600D03*
X195555000Y-77063600D03*
X212101400Y-75793600D03*
X195555000Y-74523600D03*
X212101400Y-73253600D03*
X195555000Y-71983600D03*
X212101400Y-70713600D03*
X195555000Y-69443600D03*
X212101400Y-68173600D03*
X195555000Y-66903600D03*
X212101400Y-65633600D03*
X195555000Y-64363600D03*
X212101400Y-63093600D03*
G04 #@! TD*
D10*
G04 #@! TO.C,SW20-1*
X158941000Y-122860000D03*
D11*
X158661000Y-118660000D03*
D12*
X158441000Y-126560000D03*
X153441000Y-128760000D03*
D13*
X153441000Y-122860000D03*
D12*
X148441000Y-126560000D03*
D11*
X148221000Y-118660000D03*
D10*
X147941000Y-122860000D03*
D14*
X145641000Y-126560000D03*
X156241000Y-128760000D03*
G04 #@! TD*
D23*
G04 #@! TO.C,H1*
X96755000Y-62896000D03*
G04 #@! TD*
G04 #@! TO.C,H2*
X134342000Y-58240000D03*
G04 #@! TD*
G04 #@! TO.C,H3*
X172365000Y-58174000D03*
G04 #@! TD*
G04 #@! TO.C,H4*
X96694000Y-116997000D03*
G04 #@! TD*
G04 #@! TO.C,H5*
X134379000Y-94204000D03*
G04 #@! TD*
G04 #@! TO.C,H6*
X172463000Y-94248000D03*
G04 #@! TD*
G04 #@! TO.C,H7*
X165870000Y-117730000D03*
G04 #@! TD*
G04 #@! TO.C,H8*
X204723000Y-134762000D03*
G04 #@! TD*
D20*
G04 #@! TO.C,D33*
X199122500Y-147759195D03*
X200897500Y-144684805D03*
G04 #@! TD*
D10*
G04 #@! TO.C,SW30*
X187126860Y-135071000D03*
D11*
X185269347Y-138848307D03*
D12*
X189409873Y-132116706D03*
X194840000Y-132711450D03*
D13*
X191890000Y-137821000D03*
D12*
X198070127Y-137116706D03*
D11*
X194310653Y-144068307D03*
D10*
X196653140Y-140571000D03*
D15*
X200494998Y-138516706D03*
X192415129Y-131311450D03*
G04 #@! TD*
D10*
G04 #@! TO.C,SW31*
X196196860Y-119360000D03*
D11*
X194339347Y-123137307D03*
D12*
X198479873Y-116405706D03*
X203910000Y-117000450D03*
D13*
X200960000Y-122110000D03*
D12*
X207140127Y-121405706D03*
D11*
X203380653Y-128357307D03*
D10*
X205723140Y-124860000D03*
D15*
X209564998Y-122805706D03*
X201485129Y-115600450D03*
G04 #@! TD*
M02*
